<?xml version="1.0" encoding="UTF-8" standalone="no"?>
<!DOCTYPE svg PUBLIC "-//W3C//DTD SVG 1.1//EN" "http://www.w3.org/Graphics/SVG/1.1/DTD/svg11.dtd">
<svg width="100%" height="100%" viewBox="0 0 323 291" version="1.1" xmlns="http://www.w3.org/2000/svg" xmlns:xlink="http://www.w3.org/1999/xlink" xml:space="preserve" xmlns:serif="http://www.serif.com/" style="fill-rule:evenodd;clip-rule:evenodd;stroke-linecap:round;stroke-linejoin:round;stroke-miterlimit:1.5;">
    <g id="Artboard1" transform="matrix(0.92192,0,0,0.93739,-124.933,-257.602)">
        <rect x="135.514" y="274.808" width="349.301" height="309.538" style="fill:none;"/>
        <g transform="matrix(1.08469,0,0,0.910333,-5.48286,60.3192)">
            <g transform="matrix(1,-0,-0,1.17187,129.988,235.616)">
                <path d="M42.701,23.398L38.411,10.528L34.121,23.398L42.701,23.398Z"/>
                <path d="M38.411,20.824L38.411,267.091" style="fill:none;stroke:black;stroke-width:1px;"/>
            </g>
        </g>
        <g transform="matrix(0.822563,0,0,1.06679,34.8005,-25.5162)">
            <path d="M153.677,530.723L529.171,530.723" style="fill:none;"/>
            <g transform="matrix(1.31867,-0,-0,1,122.438,281.521)">
                <path d="M295.589,244.918L308.441,249.202L295.589,253.486L295.589,244.918Z"/>
                <path d="M23.69,249.202L298.159,249.202" style="fill:none;stroke:black;stroke-width:1px;"/>
            </g>
        </g>
        <g transform="matrix(1.08469,0,0,1.06679,-66.2064,-31.9169)">
            <text x="336.135px" y="564.498px" style="font-family:'Inter-Regular', 'Inter';font-size:20px;fill:rgb(37,38,41);">x</text>
            <g transform="matrix(11.66,0,0,11.66,355.159,571.158)">
            </g>
            <text x="349.743px" y="571.158px" style="font-family:'Inter-Regular', 'Inter';font-size:11.66px;fill:rgb(37,38,41);">1</text>
        </g>
        <g transform="matrix(1.08469,0,0,1.06679,-222.421,-174.644)">
            <text x="336.135px" y="564.498px" style="font-family:'Inter-Regular', 'Inter';font-size:20px;fill:rgb(37,38,41);">x</text>
            <g transform="matrix(11.66,0,0,11.66,356.799,571.158)">
            </g>
            <text x="349.743px" y="571.158px" style="font-family:'Inter-Regular', 'Inter';font-size:11.66px;fill:rgb(37,38,41);">2</text>
        </g>
        <g transform="matrix(1.08469,0,0,1.06679,-13.633,-26.3783)">
            <g transform="matrix(1,0,0,1,0.51378,0.808191)">
                <circle cx="206.281" cy="456.643" r="5.132" style="fill:none;stroke:rgb(255,74,17);stroke-width:3px;"/>
            </g>
            <g transform="matrix(1,0,0,1,25.8098,21.8751)">
                <circle cx="206.281" cy="456.643" r="5.132" style="fill:none;stroke:rgb(255,74,17);stroke-width:3px;"/>
            </g>
            <g transform="matrix(1,0,0,1,25.8098,-38.1249)">
                <circle cx="206.281" cy="456.643" r="5.132" style="fill:none;stroke:rgb(255,74,17);stroke-width:3px;"/>
            </g>
            <g transform="matrix(1,0,0,1,55.8098,-38.1249)">
                <circle cx="206.281" cy="456.643" r="5.132" style="fill:none;stroke:rgb(255,74,17);stroke-width:3px;"/>
            </g>
            <g transform="matrix(1,0,0,1,75.8098,-8.12494)">
                <circle cx="206.281" cy="456.643" r="5.132" style="fill:none;stroke:rgb(255,74,17);stroke-width:3px;"/>
            </g>
            <g transform="matrix(1,0,0,1,28.8098,-86.1249)">
                <circle cx="206.281" cy="456.643" r="5.132" style="fill:none;stroke:rgb(255,74,17);stroke-width:3px;"/>
            </g>
            <g transform="matrix(1,0,0,1,86.8098,-78.1249)">
                <circle cx="206.281" cy="456.643" r="5.132" style="fill:none;stroke:rgb(255,74,17);stroke-width:3px;"/>
            </g>
            <g transform="matrix(1,0,0,1,136.81,-98.1249)">
                <circle cx="206.281" cy="456.643" r="5.132" style="fill:none;stroke:rgb(255,74,17);stroke-width:3px;"/>
            </g>
            <g transform="matrix(1,0,0,1,116.81,-79.1249)">
                <circle cx="206.281" cy="456.643" r="5.132" style="fill:none;stroke:rgb(255,74,17);stroke-width:3px;"/>
            </g>
            <g transform="matrix(1,0,0,1,116.81,-79.1249)">
                <circle cx="206.281" cy="456.643" r="5.132" style="fill:none;stroke:rgb(255,74,17);stroke-width:3px;"/>
            </g>
            <g transform="matrix(1,0,0,1,116.81,-109.125)">
                <circle cx="206.281" cy="456.643" r="5.132" style="fill:none;stroke:rgb(255,74,17);stroke-width:3px;"/>
            </g>
            <g transform="matrix(1,0,0,1,146.81,-119.125)">
                <circle cx="206.281" cy="456.643" r="5.132" style="fill:none;stroke:rgb(255,74,17);stroke-width:3px;"/>
            </g>
            <g transform="matrix(1,0,0,1,116.81,-29.1249)">
                <circle cx="206.281" cy="456.643" r="5.132" style="fill:none;stroke:rgb(255,74,17);stroke-width:3px;"/>
            </g>
            <g transform="matrix(1,0,0,1,156.81,10.8751)">
                <circle cx="206.281" cy="456.643" r="5.132" style="fill:none;stroke:rgb(255,74,17);stroke-width:3px;"/>
            </g>
            <g transform="matrix(1,0,0,1,116.81,10.8751)">
                <circle cx="206.281" cy="456.643" r="5.132" style="fill:none;stroke:rgb(255,74,17);stroke-width:3px;"/>
            </g>
            <g transform="matrix(1,0,0,1,116.81,40.8751)">
                <circle cx="206.281" cy="456.643" r="5.132" style="fill:none;stroke:rgb(255,74,17);stroke-width:3px;"/>
            </g>
            <g transform="matrix(1,0,0,1,151.81,40.8751)">
                <circle cx="206.281" cy="456.643" r="5.132" style="fill:none;stroke:rgb(255,74,17);stroke-width:3px;"/>
            </g>
            <g transform="matrix(1,0,0,1,81.8098,20.8751)">
                <circle cx="206.281" cy="456.643" r="5.132" style="fill:none;stroke:rgb(255,74,17);stroke-width:3px;"/>
            </g>
            <g transform="matrix(1,0,0,1,151.81,40.8751)">
                <circle cx="206.281" cy="456.643" r="5.132" style="fill:none;stroke:rgb(255,74,17);stroke-width:3px;"/>
            </g>
            <g transform="matrix(1,0,0,1,51.8098,40.8751)">
                <circle cx="206.281" cy="456.643" r="5.132" style="fill:none;stroke:rgb(255,74,17);stroke-width:3px;"/>
            </g>
            <g transform="matrix(1,0,0,1,51.8098,0.875064)">
                <circle cx="206.281" cy="456.643" r="5.132" style="fill:none;stroke:rgb(255,74,17);stroke-width:3px;"/>
            </g>
            <g transform="matrix(1,0,0,1,57.4423,20.7024)">
                <circle cx="206.281" cy="456.643" r="5.132" style="fill:none;stroke:rgb(255,74,17);stroke-width:3px;"/>
            </g>
            <g transform="matrix(1,0,0,1,62.9698,-22.579)">
                <circle cx="206.281" cy="456.643" r="5.132" style="fill:none;stroke:rgb(255,74,17);stroke-width:3px;"/>
            </g>
            <g transform="matrix(1,0,0,1,100.193,24.4574)">
                <circle cx="206.281" cy="456.643" r="5.132" style="fill:none;stroke:rgb(255,74,17);stroke-width:3px;"/>
            </g>
            <g transform="matrix(1,0,0,1,64.9143,-56.9686)">
                <circle cx="206.281" cy="456.643" r="5.132" style="fill:none;stroke:rgb(255,74,17);stroke-width:3px;"/>
            </g>
            <g transform="matrix(1,0,0,1,18.8487,-63.4699)">
                <circle cx="206.281" cy="456.643" r="5.132" style="fill:none;stroke:rgb(255,74,17);stroke-width:3px;"/>
            </g>
            <g transform="matrix(1,0,0,1,-12.7479,-90.3524)">
                <circle cx="206.281" cy="456.643" r="5.132" style="fill:none;stroke:rgb(255,74,17);stroke-width:3px;"/>
            </g>
            <g transform="matrix(1,0,0,1,21.8098,0.875064)">
                <circle cx="206.281" cy="456.643" r="5.132" style="fill:none;stroke:rgb(255,74,17);stroke-width:3px;"/>
            </g>
            <g transform="matrix(1,0,0,1,-8.1902,-19.1249)">
                <circle cx="206.281" cy="456.643" r="5.132" style="fill:none;stroke:rgb(255,74,17);stroke-width:3px;"/>
            </g>
            <g transform="matrix(1,0,0,1,1.8098,-49.1249)">
                <circle cx="206.281" cy="456.643" r="5.132" style="fill:none;stroke:rgb(255,74,17);stroke-width:3px;"/>
            </g>
            <g transform="matrix(1,0,0,1,41.8098,-59.1249)">
                <circle cx="206.281" cy="456.643" r="5.132" style="fill:none;stroke:rgb(255,74,17);stroke-width:3px;"/>
            </g>
            <g transform="matrix(1,0,0,1,55.8098,-75.1249)">
                <circle cx="206.281" cy="456.643" r="5.132" style="fill:none;stroke:rgb(255,74,17);stroke-width:3px;"/>
            </g>
            <g transform="matrix(1,0,0,1,85.8098,-55.1249)">
                <circle cx="206.281" cy="456.643" r="5.132" style="fill:none;stroke:rgb(255,74,17);stroke-width:3px;"/>
            </g>
            <g transform="matrix(1,0,0,1,85.8098,-29.1249)">
                <circle cx="206.281" cy="456.643" r="5.132" style="fill:none;stroke:rgb(255,74,17);stroke-width:3px;"/>
            </g>
            <g transform="matrix(1,0,0,1,34.8098,-19.1249)">
                <circle cx="206.281" cy="456.643" r="5.132" style="fill:none;stroke:rgb(255,74,17);stroke-width:3px;"/>
            </g>
            <g transform="matrix(1,0,0,1,34.8098,50.8751)">
                <circle cx="206.281" cy="456.643" r="5.132" style="fill:none;stroke:rgb(255,74,17);stroke-width:3px;"/>
            </g>
            <g transform="matrix(1,0,0,1,4.8098,50.8751)">
                <circle cx="206.281" cy="456.643" r="5.132" style="fill:none;stroke:rgb(255,74,17);stroke-width:3px;"/>
            </g>
            <g transform="matrix(1,0,0,1,-15.1902,30.8751)">
                <circle cx="206.281" cy="456.643" r="5.132" style="fill:none;stroke:rgb(255,74,17);stroke-width:3px;"/>
            </g>
            <g transform="matrix(1,0,0,1,74.8098,50.8751)">
                <circle cx="206.281" cy="456.643" r="5.132" style="fill:none;stroke:rgb(255,74,17);stroke-width:3px;"/>
            </g>
            <g transform="matrix(1,0,0,1,104.81,-9.12494)">
                <circle cx="206.281" cy="456.643" r="5.132" style="fill:none;stroke:rgb(255,74,17);stroke-width:3px;"/>
            </g>
            <g transform="matrix(1,0,0,1,134.81,-2.12494)">
                <circle cx="206.281" cy="456.643" r="5.132" style="fill:none;stroke:rgb(255,74,17);stroke-width:3px;"/>
            </g>
            <g transform="matrix(1,0,0,1,134.81,27.8751)">
                <circle cx="206.281" cy="456.643" r="5.132" style="fill:none;stroke:rgb(255,74,17);stroke-width:3px;"/>
            </g>
            <g transform="matrix(1,0,0,1,131.81,57.8751)">
                <circle cx="206.281" cy="456.643" r="5.132" style="fill:none;stroke:rgb(255,74,17);stroke-width:3px;"/>
            </g>
            <g transform="matrix(1,0,0,1,96.8098,47.8751)">
                <circle cx="206.281" cy="456.643" r="5.132" style="fill:none;stroke:rgb(255,74,17);stroke-width:3px;"/>
            </g>
            <g transform="matrix(1,0,0,1,106.81,-47.1249)">
                <circle cx="206.281" cy="456.643" r="5.132" style="fill:none;stroke:rgb(255,74,17);stroke-width:3px;"/>
            </g>
            <g transform="matrix(1,0,0,1,6.8098,-107.125)">
                <circle cx="206.281" cy="456.643" r="5.132" style="fill:none;stroke:rgb(255,74,17);stroke-width:3px;"/>
            </g>
            <g transform="matrix(1,0,0,1,6.8098,-77.1249)">
                <circle cx="206.281" cy="456.643" r="5.132" style="fill:none;stroke:rgb(255,74,17);stroke-width:3px;"/>
            </g>
        </g>
        <g transform="matrix(1.08469,0,0,1.06679,-13.633,-26.3783)">
            <g transform="matrix(0.703824,-0.703824,0.709962,0.709962,-178.816,265.041)">
                <path d="M268.662,351.244L268.662,351.546L263.59,351.546L263.59,356.574L263.285,356.574L263.285,351.546L258.214,351.546L258.214,351.244L263.285,351.244L263.285,346.216L263.59,346.216L263.59,351.244L268.662,351.244Z" style="fill:none;stroke:rgb(37,38,41);stroke-width:3px;"/>
            </g>
            <g transform="matrix(0.703824,-0.703824,0.709962,0.709962,-139.846,285.476)">
                <path d="M268.662,351.244L268.662,351.546L263.59,351.546L263.59,356.574L263.285,356.574L263.285,351.546L258.214,351.546L258.214,351.244L263.285,351.244L263.285,346.216L263.59,346.216L263.59,351.244L268.662,351.244Z" style="fill:none;stroke:rgb(37,38,41);stroke-width:3px;"/>
            </g>
            <g transform="matrix(0.703824,-0.703824,0.709962,0.709962,-123.066,262.414)">
                <path d="M268.662,351.244L268.662,351.546L263.59,351.546L263.59,356.574L263.285,356.574L263.285,351.546L258.214,351.546L258.214,351.244L263.285,351.244L263.285,346.216L263.59,346.216L263.59,351.244L268.662,351.244Z" style="fill:none;stroke:rgb(37,38,41);stroke-width:3px;"/>
            </g>
            <g transform="matrix(0.703824,-0.703824,0.709962,0.709962,-99.8409,252.118)">
                <path d="M268.662,351.244L268.662,351.546L263.59,351.546L263.59,356.574L263.285,356.574L263.285,351.546L258.214,351.546L258.214,351.244L263.285,351.244L263.285,346.216L263.59,346.216L263.59,351.244L268.662,351.244Z" style="fill:none;stroke:rgb(37,38,41);stroke-width:3px;"/>
            </g>
            <g transform="matrix(0.703824,-0.703824,0.709962,0.709962,-125.442,242.191)">
                <path d="M268.662,351.244L268.662,351.546L263.59,351.546L263.59,356.574L263.285,356.574L263.285,351.546L258.214,351.546L258.214,351.244L263.285,351.244L263.285,346.216L263.59,346.216L263.59,351.244L268.662,351.244Z" style="fill:none;stroke:rgb(37,38,41);stroke-width:3px;"/>
            </g>
            <g transform="matrix(0.703824,-0.703824,0.709962,0.709962,-160.074,267.992)">
                <path d="M268.662,351.244L268.662,351.546L263.59,351.546L263.59,356.574L263.285,356.574L263.285,351.546L258.214,351.546L258.214,351.244L263.285,351.244L263.285,346.216L263.59,346.216L263.59,351.244L268.662,351.244Z" style="fill:none;stroke:rgb(37,38,41);stroke-width:3px;"/>
            </g>
            <g transform="matrix(0.703824,-0.703824,0.709962,0.709962,-166.641,289.367)">
                <path d="M268.662,351.244L268.662,351.546L263.59,351.546L263.59,356.574L263.285,356.574L263.285,351.546L258.214,351.546L258.214,351.244L263.285,351.244L263.285,346.216L263.59,346.216L263.59,351.244L268.662,351.244Z" style="fill:none;stroke:rgb(37,38,41);stroke-width:3px;"/>
            </g>
            <g transform="matrix(0.703824,-0.703824,0.709962,0.709962,-188.016,282.799)">
                <path d="M268.662,351.244L268.662,351.546L263.59,351.546L263.59,356.574L263.285,356.574L263.285,351.546L258.214,351.546L258.214,351.244L263.285,351.244L263.285,346.216L263.59,346.216L263.59,351.244L268.662,351.244Z" style="fill:none;stroke:rgb(37,38,41);stroke-width:3px;"/>
            </g>
            <g transform="matrix(0.703824,-0.703824,0.709962,0.709962,-205.12,265.38)">
                <path d="M268.662,351.244L268.662,351.546L263.59,351.546L263.59,356.574L263.285,356.574L263.285,351.546L258.214,351.546L258.214,351.244L263.285,351.244L263.285,346.216L263.59,346.216L263.59,351.244L268.662,351.244Z" style="fill:none;stroke:rgb(37,38,41);stroke-width:3px;"/>
            </g>
            <g transform="matrix(0.704899,-0.702747,0.708876,0.711047,-145.101,252.997)">
                <path d="M268.662,351.244L268.662,351.546L263.59,351.546L263.59,356.574L263.285,356.574L263.285,351.546L258.214,351.546L258.214,351.244L263.285,351.244L263.285,346.216L263.59,346.216L263.59,351.244L268.662,351.244Z" style="fill:none;stroke:rgb(37,38,41);stroke-width:3px;"/>
            </g>
            <g transform="matrix(0.703824,-0.703824,0.709962,0.709962,-168.358,247.019)">
                <path d="M268.662,351.244L268.662,351.546L263.59,351.546L263.59,356.574L263.285,356.574L263.285,351.546L258.214,351.546L258.214,351.244L263.285,351.244L263.285,346.216L263.59,346.216L263.59,351.244L268.662,351.244Z" style="fill:none;stroke:rgb(37,38,41);stroke-width:3px;"/>
            </g>
            <g transform="matrix(0.703824,-0.703824,0.709962,0.709962,-234.71,270.324)">
                <path d="M268.662,351.244L268.662,351.546L263.59,351.546L263.59,356.574L263.285,356.574L263.285,351.546L258.214,351.546L258.214,351.244L263.285,351.244L263.285,346.216L263.59,346.216L263.59,351.244L268.662,351.244Z" style="fill:none;stroke:rgb(37,38,41);stroke-width:3px;"/>
            </g>
            <g transform="matrix(0.703824,-0.703824,0.709962,0.709962,-226.459,250.324)">
                <path d="M268.662,351.244L268.662,351.546L263.59,351.546L263.59,356.574L263.285,356.574L263.285,351.546L258.214,351.546L258.214,351.244L263.285,351.244L263.285,346.216L263.59,346.216L263.59,351.244L268.662,351.244Z" style="fill:none;stroke:rgb(37,38,41);stroke-width:3px;"/>
            </g>
            <g transform="matrix(0.703824,-0.703824,0.709962,0.709962,-195.242,248.094)">
                <path d="M268.662,351.244L268.662,351.546L263.59,351.546L263.59,356.574L263.285,356.574L263.285,351.546L258.214,351.546L258.214,351.244L263.285,351.244L263.285,346.216L263.59,346.216L263.59,351.244L268.662,351.244Z" style="fill:none;stroke:rgb(37,38,41);stroke-width:3px;"/>
            </g>
            <g transform="matrix(0.703824,-0.703824,0.709962,0.709962,-96.1851,333.753)">
                <path d="M268.662,351.244L268.662,351.546L263.59,351.546L263.59,356.574L263.285,356.574L263.285,351.546L258.214,351.546L258.214,351.244L263.285,351.244L263.285,346.216L263.59,346.216L263.59,351.244L268.662,351.244Z" style="fill:none;stroke:rgb(37,38,41);stroke-width:3px;"/>
            </g>
            <g transform="matrix(0.703824,-0.703824,0.709962,0.709962,-92.1851,354.753)">
                <path d="M268.662,351.244L268.662,351.546L263.59,351.546L263.59,356.574L263.285,356.574L263.285,351.546L258.214,351.546L258.214,351.244L263.285,351.244L263.285,346.216L263.59,346.216L263.59,351.244L268.662,351.244Z" style="fill:none;stroke:rgb(37,38,41);stroke-width:3px;"/>
            </g>
            <g transform="matrix(0.703824,-0.703824,0.709962,0.709962,-79.1851,377.753)">
                <path d="M268.662,351.244L268.662,351.546L263.59,351.546L263.59,356.574L263.285,356.574L263.285,351.546L258.214,351.546L258.214,351.244L263.285,351.244L263.285,346.216L263.59,346.216L263.59,351.244L268.662,351.244Z" style="fill:none;stroke:rgb(37,38,41);stroke-width:3px;"/>
            </g>
            <g transform="matrix(0.703824,-0.703824,0.709962,0.709962,-75.1851,357.753)">
                <path d="M268.662,351.244L268.662,351.546L263.59,351.546L263.59,356.574L263.285,356.574L263.285,351.546L258.214,351.546L258.214,351.244L263.285,351.244L263.285,346.216L263.59,346.216L263.59,351.244L268.662,351.244Z" style="fill:none;stroke:rgb(37,38,41);stroke-width:3px;"/>
            </g>
            <g transform="matrix(0.703824,-0.703824,0.709962,0.709962,-78.2061,334.86)">
                <path d="M268.662,351.244L268.662,351.546L263.59,351.546L263.59,356.574L263.285,356.574L263.285,351.546L258.214,351.546L258.214,351.244L263.285,351.244L263.285,346.216L263.59,346.216L263.59,351.244L268.662,351.244Z" style="fill:none;stroke:rgb(37,38,41);stroke-width:3px;"/>
            </g>
            <g transform="matrix(0.703824,-0.703824,0.709962,0.709962,-65.3495,291.558)">
                <path d="M268.662,351.244L268.662,351.546L263.59,351.546L263.59,356.574L263.285,356.574L263.285,351.546L258.214,351.546L258.214,351.244L263.285,351.244L263.285,346.216L263.59,346.216L263.59,351.244L268.662,351.244Z" style="fill:none;stroke:rgb(37,38,41);stroke-width:3px;"/>
            </g>
            <g transform="matrix(0.703824,-0.703824,0.709962,0.709962,-57.2755,259.158)">
                <path d="M268.662,351.244L268.662,351.546L263.59,351.546L263.59,356.574L263.285,356.574L263.285,351.546L258.214,351.546L258.214,351.244L263.285,351.244L263.285,346.216L263.59,346.216L263.59,351.244L268.662,351.244Z" style="fill:none;stroke:rgb(37,38,41);stroke-width:3px;"/>
            </g>
            <g transform="matrix(0.703824,-0.703824,0.709962,0.709962,-42.9046,280.023)">
                <path d="M268.662,351.244L268.662,351.546L263.59,351.546L263.59,356.574L263.285,356.574L263.285,351.546L258.214,351.546L258.214,351.244L263.285,351.244L263.285,346.216L263.59,346.216L263.59,351.244L268.662,351.244Z" style="fill:none;stroke:rgb(37,38,41);stroke-width:3px;"/>
            </g>
            <g transform="matrix(0.703824,-0.703824,0.709962,0.709962,-44.8594,304.488)">
                <path d="M268.662,351.244L268.662,351.546L263.59,351.546L263.59,356.574L263.285,356.574L263.285,351.546L258.214,351.546L258.214,351.244L263.285,351.244L263.285,346.216L263.59,346.216L263.59,351.244L268.662,351.244Z" style="fill:none;stroke:rgb(37,38,41);stroke-width:3px;"/>
            </g>
            <g transform="matrix(0.703824,-0.703824,0.709962,0.709962,-65.9792,315.711)">
                <path d="M268.662,351.244L268.662,351.546L263.59,351.546L263.59,356.574L263.285,356.574L263.285,351.546L258.214,351.546L258.214,351.244L263.285,351.244L263.285,346.216L263.59,346.216L263.59,351.244L268.662,351.244Z" style="fill:none;stroke:rgb(37,38,41);stroke-width:3px;"/>
            </g>
            <g transform="matrix(0.703824,-0.703824,0.709962,0.709962,-44.4924,328.93)">
                <path d="M268.662,351.244L268.662,351.546L263.59,351.546L263.59,356.574L263.285,356.574L263.285,351.546L258.214,351.546L258.214,351.244L263.285,351.244L263.285,346.216L263.59,346.216L263.59,351.244L268.662,351.244Z" style="fill:none;stroke:rgb(37,38,41);stroke-width:3px;"/>
            </g>
            <g transform="matrix(0.703824,-0.703824,0.709962,0.709962,-58.5774,345.905)">
                <path d="M268.662,351.244L268.662,351.546L263.59,351.546L263.59,356.574L263.285,356.574L263.285,351.546L258.214,351.546L258.214,351.244L263.285,351.244L263.285,346.216L263.59,346.216L263.59,351.244L268.662,351.244Z" style="fill:none;stroke:rgb(37,38,41);stroke-width:3px;"/>
            </g>
            <g transform="matrix(0.703824,-0.703824,0.709962,0.709962,-52.6398,369.922)">
                <path d="M268.662,351.244L268.662,351.546L263.59,351.546L263.59,356.574L263.285,356.574L263.285,351.546L258.214,351.546L258.214,351.244L263.285,351.244L263.285,346.216L263.59,346.216L263.59,351.244L268.662,351.244Z" style="fill:none;stroke:rgb(37,38,41);stroke-width:3px;"/>
            </g>
            <g transform="matrix(0.703824,-0.703824,0.709962,0.709962,-42.5338,394.608)">
                <path d="M268.662,351.244L268.662,351.546L263.59,351.546L263.59,356.574L263.285,356.574L263.285,351.546L258.214,351.546L258.214,351.244L263.285,351.244L263.285,346.216L263.59,346.216L263.59,351.244L268.662,351.244Z" style="fill:none;stroke:rgb(37,38,41);stroke-width:3px;"/>
            </g>
            <g transform="matrix(0.703824,-0.703824,0.709962,0.709962,-35.5183,352.422)">
                <path d="M268.662,351.244L268.662,351.546L263.59,351.546L263.59,356.574L263.285,356.574L263.285,351.546L258.214,351.546L258.214,351.244L263.285,351.244L263.285,346.216L263.59,346.216L263.59,351.244L268.662,351.244Z" style="fill:none;stroke:rgb(37,38,41);stroke-width:3px;"/>
            </g>
            <g transform="matrix(0.703824,-0.703824,0.709962,0.709962,-30.9984,374.724)">
                <path d="M268.662,351.244L268.662,351.546L263.59,351.546L263.59,356.574L263.285,356.574L263.285,351.546L258.214,351.546L258.214,351.244L263.285,351.244L263.285,346.216L263.59,346.216L263.59,351.244L268.662,351.244Z" style="fill:none;stroke:rgb(37,38,41);stroke-width:3px;"/>
            </g>
            <g transform="matrix(0.703824,-0.703824,0.709962,0.709962,-26.3974,316.703)">
                <path d="M268.662,351.244L268.662,351.546L263.59,351.546L263.59,356.574L263.285,356.574L263.285,351.546L258.214,351.546L258.214,351.244L263.285,351.244L263.285,346.216L263.59,346.216L263.59,351.244L268.662,351.244Z" style="fill:none;stroke:rgb(37,38,41);stroke-width:3px;"/>
            </g>
            <g transform="matrix(0.703824,-0.703824,0.709962,0.709962,-28.7964,293.741)">
                <path d="M268.662,351.244L268.662,351.546L263.59,351.546L263.59,356.574L263.285,356.574L263.285,351.546L258.214,351.546L258.214,351.244L263.285,351.244L263.285,346.216L263.59,346.216L263.59,351.244L268.662,351.244Z" style="fill:none;stroke:rgb(37,38,41);stroke-width:3px;"/>
            </g>
            <g transform="matrix(0.703824,-0.703824,0.709962,0.709962,-51.2065,421.113)">
                <path d="M268.662,351.244L268.662,351.546L263.59,351.546L263.59,356.574L263.285,356.574L263.285,351.546L258.214,351.546L258.214,351.244L263.285,351.244L263.285,346.216L263.59,346.216L263.59,351.244L268.662,351.244Z" style="fill:none;stroke:rgb(37,38,41);stroke-width:3px;"/>
            </g>
            <g transform="matrix(0.703824,-0.703824,0.709962,0.709962,-53.93,446.413)">
                <path d="M268.662,351.244L268.662,351.546L263.59,351.546L263.59,356.574L263.285,356.574L263.285,351.546L258.214,351.546L258.214,351.244L263.285,351.244L263.285,346.216L263.59,346.216L263.59,351.244L268.662,351.244Z" style="fill:none;stroke:rgb(37,38,41);stroke-width:3px;"/>
            </g>
            <g transform="matrix(0.703824,-0.703824,0.709962,0.709962,-29.0939,409.612)">
                <path d="M268.662,351.244L268.662,351.546L263.59,351.546L263.59,356.574L263.285,356.574L263.285,351.546L258.214,351.546L258.214,351.244L263.285,351.244L263.285,346.216L263.59,346.216L263.59,351.244L268.662,351.244Z" style="fill:none;stroke:rgb(37,38,41);stroke-width:3px;"/>
            </g>
            <g transform="matrix(0.703824,-0.703824,0.709962,0.709962,-32.8334,435.433)">
                <path d="M268.662,351.244L268.662,351.546L263.59,351.546L263.59,356.574L263.285,356.574L263.285,351.546L258.214,351.546L258.214,351.244L263.285,351.244L263.285,346.216L263.59,346.216L263.59,351.244L268.662,351.244Z" style="fill:none;stroke:rgb(37,38,41);stroke-width:3px;"/>
            </g>
            <g transform="matrix(0.703824,-0.703824,0.709962,0.709962,-19.7412,337.819)">
                <path d="M268.662,351.244L268.662,351.546L263.59,351.546L263.59,356.574L263.285,356.574L263.285,351.546L258.214,351.546L258.214,351.244L263.285,351.244L263.285,346.216L263.59,346.216L263.59,351.244L268.662,351.244Z" style="fill:none;stroke:rgb(37,38,41);stroke-width:3px;"/>
            </g>
            <g transform="matrix(0.703824,-0.703824,0.709962,0.709962,-15.2561,359.762)">
                <path d="M268.662,351.244L268.662,351.546L263.59,351.546L263.59,356.574L263.285,356.574L263.285,351.546L258.214,351.546L258.214,351.244L263.285,351.244L263.285,346.216L263.59,346.216L263.59,351.244L268.662,351.244Z" style="fill:none;stroke:rgb(37,38,41);stroke-width:3px;"/>
            </g>
            <g transform="matrix(0.703824,-0.703824,0.709962,0.709962,-14.9316,390.169)">
                <path d="M268.662,351.244L268.662,351.546L263.59,351.546L263.59,356.574L263.285,356.574L263.285,351.546L258.214,351.546L258.214,351.244L263.285,351.244L263.285,346.216L263.59,346.216L263.59,351.244L268.662,351.244Z" style="fill:none;stroke:rgb(37,38,41);stroke-width:3px;"/>
            </g>
            <g transform="matrix(0.703824,-0.703824,0.709962,0.709962,-86.845,315.554)">
                <path d="M268.662,351.244L268.662,351.546L263.59,351.546L263.59,356.574L263.285,356.574L263.285,351.546L258.214,351.546L258.214,351.244L263.285,351.244L263.285,346.216L263.59,346.216L263.59,351.244L268.662,351.244Z" style="fill:none;stroke:rgb(37,38,41);stroke-width:3px;"/>
            </g>
        </g>
        <g transform="matrix(1.08469,0,0,1.06679,-13.0757,-25.5162)">
            <path d="M181.808,354.883C187.094,350.35 195.661,345.885 201.853,343.052C206.047,341.133 212.769,337.122 217.351,337.644C221.307,338.095 226.971,341.403 229.492,344.485C233.497,349.38 234.109,353.956 239.798,357.27C255.243,366.269 272.336,367.715 289.753,366.416C297.059,365.87 305.808,363.98 309.667,357.004C312.809,351.325 311.81,342.914 316.578,338.059C323.076,331.441 328.589,330.023 336.746,326.206C341.258,324.094 351.583,317.102 357.972,319.307C364.566,321.584 369.141,331.837 369.878,337.692C370.236,340.539 365.027,345.74 363.694,347.02C361.76,348.879 359.658,350.558 357.562,352.233C353.634,356.318 351.201,361.567 347.592,365.938C342.337,372.303 335.456,377.469 330.993,384.414C328.982,387.544 328.471,396.122 328.385,399.386C328.301,402.552 327.646,405.859 328.577,408.886C330.168,414.062 334.202,423.952 337.93,430.442C341.534,436.719 343.339,444.528 348.688,448.048C354.036,451.567 367.333,448.351 372.752,450.823C377.579,453.025 377.573,459.2 378.246,463.385C378.919,467.571 375.298,472.845 374.058,476.673C373.008,479.911 371.542,483.031 370.801,486.354C369.708,491.255 369.108,500.806 367.498,506.079C366.184,510.383 361.139,517.989 361.139,517.989" style="fill:none;stroke:rgb(59,204,218);stroke-width:2px;stroke-linejoin:miter;"/>
        </g>
    </g>
</svg>
