<svg xmlns="http://www.w3.org/2000/svg" width="1956" height="996" style="cursor: move;"><g transform="translate(384.5,310.5) scale(0.5)"><path class="link" marker-end="" d="M818,428, 998,-592" style="stroke-width: 0.31; stroke-opacity: 0.29; stroke: rgb(80, 80, 80); fill: none;"></path><path class="link" marker-end="" d="M818,428, 998,-552" style="stroke-width: 0.31; stroke-opacity: 0.29; stroke: rgb(80, 80, 80); fill: none;"></path><path class="link" marker-end="" d="M818,428, 998,-512" style="stroke-width: 0.31; stroke-opacity: 0.29; stroke: rgb(80, 80, 80); fill: none;"></path><path class="link" marker-end="" d="M818,428, 998,-472" style="stroke-width: 0.31; stroke-opacity: 0.29; stroke: rgb(80, 80, 80); fill: none;"></path><path class="link" marker-end="" d="M818,428, 998,-432" style="stroke-width: 0.31; stroke-opacity: 0.29; stroke: rgb(80, 80, 80); fill: none;"></path><path class="link" marker-end="" d="M818,428, 998,-392" style="stroke-width: 0.31; stroke-opacity: 0.29; stroke: rgb(80, 80, 80); fill: none;"></path><path class="link" marker-end="" d="M818,428, 998,-352" style="stroke-width: 0.31; stroke-opacity: 0.29; stroke: rgb(80, 80, 80); fill: none;"></path><path class="link" marker-end="" d="M818,428, 998,-312" style="stroke-width: 0.31; stroke-opacity: 0.29; stroke: rgb(80, 80, 80); fill: none;"></path><path class="link" marker-end="" d="M818,428, 998,-272" style="stroke-width: 0.31; stroke-opacity: 0.29; stroke: rgb(80, 80, 80); fill: none;"></path><path class="link" marker-end="" d="M818,428, 998,-232" style="stroke-width: 0.31; stroke-opacity: 0.29; stroke: rgb(80, 80, 80); fill: none;"></path><path class="link" marker-end="" d="M818,428, 998,-192" style="stroke-width: 0.31; stroke-opacity: 0.29; stroke: rgb(80, 80, 80); fill: none;"></path><path class="link" marker-end="" d="M818,428, 998,-152" style="stroke-width: 0.31; stroke-opacity: 0.29; stroke: rgb(80, 80, 80); fill: none;"></path><path class="link" marker-end="" d="M818,468, 998,-592" style="stroke-width: 0.31; stroke-opacity: 0.29; stroke: rgb(80, 80, 80); fill: none;"></path><path class="link" marker-end="" d="M818,468, 998,-552" style="stroke-width: 0.31; stroke-opacity: 0.29; stroke: rgb(80, 80, 80); fill: none;"></path><path class="link" marker-end="" d="M818,468, 998,-512" style="stroke-width: 0.31; stroke-opacity: 0.29; stroke: rgb(80, 80, 80); fill: none;"></path><path class="link" marker-end="" d="M818,468, 998,-472" style="stroke-width: 0.31; stroke-opacity: 0.29; stroke: rgb(80, 80, 80); fill: none;"></path><path class="link" marker-end="" d="M818,468, 998,-432" style="stroke-width: 0.31; stroke-opacity: 0.29; stroke: rgb(80, 80, 80); fill: none;"></path><path class="link" marker-end="" d="M818,468, 998,-392" style="stroke-width: 0.31; stroke-opacity: 0.29; stroke: rgb(80, 80, 80); fill: none;"></path><path class="link" marker-end="" d="M818,468, 998,-352" style="stroke-width: 0.31; stroke-opacity: 0.29; stroke: rgb(80, 80, 80); fill: none;"></path><path class="link" marker-end="" d="M818,468, 998,-312" style="stroke-width: 0.31; stroke-opacity: 0.29; stroke: rgb(80, 80, 80); fill: none;"></path><path class="link" marker-end="" d="M818,468, 998,-272" style="stroke-width: 0.31; stroke-opacity: 0.29; stroke: rgb(80, 80, 80); fill: none;"></path><path class="link" marker-end="" d="M818,468, 998,-232" style="stroke-width: 0.31; stroke-opacity: 0.29; stroke: rgb(80, 80, 80); fill: none;"></path><path class="link" marker-end="" d="M818,468, 998,-192" style="stroke-width: 0.31; stroke-opacity: 0.29; stroke: rgb(80, 80, 80); fill: none;"></path><path class="link" marker-end="" d="M818,468, 998,-152" style="stroke-width: 0.31; stroke-opacity: 0.29; stroke: rgb(80, 80, 80); fill: none;"></path><path class="link" marker-end="" d="M818,508, 998,-592" style="stroke-width: 0.31; stroke-opacity: 0.29; stroke: rgb(80, 80, 80); fill: none;"></path><path class="link" marker-end="" d="M818,508, 998,-552" style="stroke-width: 0.31; stroke-opacity: 0.29; stroke: rgb(80, 80, 80); fill: none;"></path><path class="link" marker-end="" d="M818,508, 998,-512" style="stroke-width: 0.31; stroke-opacity: 0.29; stroke: rgb(80, 80, 80); fill: none;"></path><path class="link" marker-end="" d="M818,508, 998,-472" style="stroke-width: 0.31; stroke-opacity: 0.29; stroke: rgb(80, 80, 80); fill: none;"></path><path class="link" marker-end="" d="M818,508, 998,-432" style="stroke-width: 0.31; stroke-opacity: 0.29; stroke: rgb(80, 80, 80); fill: none;"></path><path class="link" marker-end="" d="M818,508, 998,-392" style="stroke-width: 0.31; stroke-opacity: 0.29; stroke: rgb(80, 80, 80); fill: none;"></path><path class="link" marker-end="" d="M818,508, 998,-352" style="stroke-width: 0.31; stroke-opacity: 0.29; stroke: rgb(80, 80, 80); fill: none;"></path><path class="link" marker-end="" d="M818,508, 998,-312" style="stroke-width: 0.31; stroke-opacity: 0.29; stroke: rgb(80, 80, 80); fill: none;"></path><path class="link" marker-end="" d="M818,508, 998,-272" style="stroke-width: 0.31; stroke-opacity: 0.29; stroke: rgb(80, 80, 80); fill: none;"></path><path class="link" marker-end="" d="M818,508, 998,-232" style="stroke-width: 0.31; stroke-opacity: 0.29; stroke: rgb(80, 80, 80); fill: none;"></path><path class="link" marker-end="" d="M818,508, 998,-192" style="stroke-width: 0.31; stroke-opacity: 0.29; stroke: rgb(80, 80, 80); fill: none;"></path><path class="link" marker-end="" d="M818,508, 998,-152" style="stroke-width: 0.31; stroke-opacity: 0.29; stroke: rgb(80, 80, 80); fill: none;"></path><path class="link" marker-end="" d="M818,548, 998,-592" style="stroke-width: 0.31; stroke-opacity: 0.29; stroke: rgb(80, 80, 80); fill: none;"></path><path class="link" marker-end="" d="M818,548, 998,-552" style="stroke-width: 0.31; stroke-opacity: 0.29; stroke: rgb(80, 80, 80); fill: none;"></path><path class="link" marker-end="" d="M818,548, 998,-512" style="stroke-width: 0.31; stroke-opacity: 0.29; stroke: rgb(80, 80, 80); fill: none;"></path><path class="link" marker-end="" d="M818,548, 998,-472" style="stroke-width: 0.31; stroke-opacity: 0.29; stroke: rgb(80, 80, 80); fill: none;"></path><path class="link" marker-end="" d="M818,548, 998,-432" style="stroke-width: 0.31; stroke-opacity: 0.29; stroke: rgb(80, 80, 80); fill: none;"></path><path class="link" marker-end="" d="M818,548, 998,-392" style="stroke-width: 0.31; stroke-opacity: 0.29; stroke: rgb(80, 80, 80); fill: none;"></path><path class="link" marker-end="" d="M818,548, 998,-352" style="stroke-width: 0.31; stroke-opacity: 0.29; stroke: rgb(80, 80, 80); fill: none;"></path><path class="link" marker-end="" d="M818,548, 998,-312" style="stroke-width: 0.31; stroke-opacity: 0.29; stroke: rgb(80, 80, 80); fill: none;"></path><path class="link" marker-end="" d="M818,548, 998,-272" style="stroke-width: 0.31; stroke-opacity: 0.29; stroke: rgb(80, 80, 80); fill: none;"></path><path class="link" marker-end="" d="M818,548, 998,-232" style="stroke-width: 0.31; stroke-opacity: 0.29; stroke: rgb(80, 80, 80); fill: none;"></path><path class="link" marker-end="" d="M818,548, 998,-192" style="stroke-width: 0.31; stroke-opacity: 0.29; stroke: rgb(80, 80, 80); fill: none;"></path><path class="link" marker-end="" d="M818,548, 998,-152" style="stroke-width: 0.31; stroke-opacity: 0.29; stroke: rgb(80, 80, 80); fill: none;"></path><path class="link" marker-end="" d="M998,-592, 1178,488" style="stroke-width: 0.31; stroke-opacity: 0.29; stroke: rgb(80, 80, 80); fill: none;"></path><path class="link" marker-end="" d="M998,-552, 1178,488" style="stroke-width: 0.31; stroke-opacity: 0.29; stroke: rgb(80, 80, 80); fill: none;"></path><path class="link" marker-end="" d="M998,-512, 1178,488" style="stroke-width: 0.31; stroke-opacity: 0.29; stroke: rgb(80, 80, 80); fill: none;"></path><path class="link" marker-end="" d="M998,-472, 1178,488" style="stroke-width: 0.31; stroke-opacity: 0.29; stroke: rgb(80, 80, 80); fill: none;"></path><path class="link" marker-end="" d="M998,-432, 1178,488" style="stroke-width: 0.31; stroke-opacity: 0.29; stroke: rgb(80, 80, 80); fill: none;"></path><path class="link" marker-end="" d="M998,-392, 1178,488" style="stroke-width: 0.31; stroke-opacity: 0.29; stroke: rgb(80, 80, 80); fill: none;"></path><path class="link" marker-end="" d="M998,-352, 1178,488" style="stroke-width: 0.31; stroke-opacity: 0.29; stroke: rgb(80, 80, 80); fill: none;"></path><path class="link" marker-end="" d="M998,-312, 1178,488" style="stroke-width: 0.31; stroke-opacity: 0.29; stroke: rgb(80, 80, 80); fill: none;"></path><path class="link" marker-end="" d="M998,-272, 1178,488" style="stroke-width: 0.31; stroke-opacity: 0.29; stroke: rgb(80, 80, 80); fill: none;"></path><path class="link" marker-end="" d="M998,-232, 1178,488" style="stroke-width: 0.31; stroke-opacity: 0.29; stroke: rgb(80, 80, 80); fill: none;"></path><path class="link" marker-end="" d="M998,-192, 1178,488" style="stroke-width: 0.31; stroke-opacity: 0.29; stroke: rgb(80, 80, 80); fill: none;"></path><path class="link" marker-end="" d="M998,-152, 1178,488" style="stroke-width: 0.31; stroke-opacity: 0.29; stroke: rgb(80, 80, 80); fill: none;"></path><path class="link" marker-end="" d="M818,428, 998,-112" style="stroke-width: 0.31; stroke-opacity: 0.29; stroke: rgb(80, 80, 80); fill: none;"></path><path class="link" marker-end="" d="M818,428, 998,-72" style="stroke-width: 0.31; stroke-opacity: 0.29; stroke: rgb(80, 80, 80); fill: none;"></path><path class="link" marker-end="" d="M818,428, 998,-32" style="stroke-width: 0.31; stroke-opacity: 0.29; stroke: rgb(80, 80, 80); fill: none;"></path><path class="link" marker-end="" d="M818,428, 998,8" style="stroke-width: 0.31; stroke-opacity: 0.29; stroke: rgb(80, 80, 80); fill: none;"></path><path class="link" marker-end="" d="M818,428, 998,48" style="stroke-width: 0.31; stroke-opacity: 0.29; stroke: rgb(80, 80, 80); fill: none;"></path><path class="link" marker-end="" d="M818,428, 998,88" style="stroke-width: 0.31; stroke-opacity: 0.29; stroke: rgb(80, 80, 80); fill: none;"></path><path class="link" marker-end="" d="M818,428, 998,128" style="stroke-width: 0.31; stroke-opacity: 0.29; stroke: rgb(80, 80, 80); fill: none;"></path><path class="link" marker-end="" d="M818,428, 998,168" style="stroke-width: 0.31; stroke-opacity: 0.29; stroke: rgb(80, 80, 80); fill: none;"></path><path class="link" marker-end="" d="M818,428, 998,208" style="stroke-width: 0.31; stroke-opacity: 0.29; stroke: rgb(80, 80, 80); fill: none;"></path><path class="link" marker-end="" d="M818,428, 998,248" style="stroke-width: 0.31; stroke-opacity: 0.29; stroke: rgb(80, 80, 80); fill: none;"></path><path class="link" marker-end="" d="M818,428, 998,288" style="stroke-width: 0.31; stroke-opacity: 0.29; stroke: rgb(80, 80, 80); fill: none;"></path><path class="link" marker-end="" d="M818,428, 998,328" style="stroke-width: 0.31; stroke-opacity: 0.29; stroke: rgb(80, 80, 80); fill: none;"></path><path class="link" marker-end="" d="M818,428, 998,368" style="stroke-width: 0.31; stroke-opacity: 0.29; stroke: rgb(80, 80, 80); fill: none;"></path><path class="link" marker-end="" d="M818,428, 998,408" style="stroke-width: 0.31; stroke-opacity: 0.29; stroke: rgb(80, 80, 80); fill: none;"></path><path class="link" marker-end="" d="M818,428, 998,448" style="stroke-width: 0.31; stroke-opacity: 0.29; stroke: rgb(80, 80, 80); fill: none;"></path><path class="link" marker-end="" d="M818,428, 998,488" style="stroke-width: 0.31; stroke-opacity: 0.29; stroke: rgb(80, 80, 80); fill: none;"></path><path class="link" marker-end="" d="M818,428, 998,528" style="stroke-width: 0.31; stroke-opacity: 0.29; stroke: rgb(80, 80, 80); fill: none;"></path><path class="link" marker-end="" d="M818,428, 998,568" style="stroke-width: 0.31; stroke-opacity: 0.29; stroke: rgb(80, 80, 80); fill: none;"></path><path class="link" marker-end="" d="M818,428, 998,608" style="stroke-width: 0.31; stroke-opacity: 0.29; stroke: rgb(80, 80, 80); fill: none;"></path><path class="link" marker-end="" d="M818,428, 998,648" style="stroke-width: 0.31; stroke-opacity: 0.29; stroke: rgb(80, 80, 80); fill: none;"></path><path class="link" marker-end="" d="M818,428, 998,688" style="stroke-width: 0.31; stroke-opacity: 0.29; stroke: rgb(80, 80, 80); fill: none;"></path><path class="link" marker-end="" d="M818,428, 998,728" style="stroke-width: 0.31; stroke-opacity: 0.29; stroke: rgb(80, 80, 80); fill: none;"></path><path class="link" marker-end="" d="M818,428, 998,768" style="stroke-width: 0.31; stroke-opacity: 0.29; stroke: rgb(80, 80, 80); fill: none;"></path><path class="link" marker-end="" d="M818,428, 998,808" style="stroke-width: 0.31; stroke-opacity: 0.29; stroke: rgb(80, 80, 80); fill: none;"></path><path class="link" marker-end="" d="M818,428, 998,848" style="stroke-width: 0.31; stroke-opacity: 0.29; stroke: rgb(80, 80, 80); fill: none;"></path><path class="link" marker-end="" d="M818,428, 998,888" style="stroke-width: 0.31; stroke-opacity: 0.29; stroke: rgb(80, 80, 80); fill: none;"></path><path class="link" marker-end="" d="M818,428, 998,928" style="stroke-width: 0.31; stroke-opacity: 0.29; stroke: rgb(80, 80, 80); fill: none;"></path><path class="link" marker-end="" d="M818,428, 998,968" style="stroke-width: 0.31; stroke-opacity: 0.29; stroke: rgb(80, 80, 80); fill: none;"></path><path class="link" marker-end="" d="M818,428, 998,1008" style="stroke-width: 0.31; stroke-opacity: 0.29; stroke: rgb(80, 80, 80); fill: none;"></path><path class="link" marker-end="" d="M818,428, 998,1048" style="stroke-width: 0.31; stroke-opacity: 0.29; stroke: rgb(80, 80, 80); fill: none;"></path><path class="link" marker-end="" d="M818,428, 998,1088" style="stroke-width: 0.31; stroke-opacity: 0.29; stroke: rgb(80, 80, 80); fill: none;"></path><path class="link" marker-end="" d="M818,428, 998,1128" style="stroke-width: 0.31; stroke-opacity: 0.29; stroke: rgb(80, 80, 80); fill: none;"></path><path class="link" marker-end="" d="M818,428, 998,1168" style="stroke-width: 0.31; stroke-opacity: 0.29; stroke: rgb(80, 80, 80); fill: none;"></path><path class="link" marker-end="" d="M818,428, 998,1208" style="stroke-width: 0.31; stroke-opacity: 0.29; stroke: rgb(80, 80, 80); fill: none;"></path><path class="link" marker-end="" d="M818,428, 998,1248" style="stroke-width: 0.31; stroke-opacity: 0.29; stroke: rgb(80, 80, 80); fill: none;"></path><path class="link" marker-end="" d="M818,428, 998,1288" style="stroke-width: 0.31; stroke-opacity: 0.29; stroke: rgb(80, 80, 80); fill: none;"></path><path class="link" marker-end="" d="M818,428, 998,1328" style="stroke-width: 0.31; stroke-opacity: 0.29; stroke: rgb(80, 80, 80); fill: none;"></path><path class="link" marker-end="" d="M818,428, 998,1368" style="stroke-width: 0.31; stroke-opacity: 0.29; stroke: rgb(80, 80, 80); fill: none;"></path><path class="link" marker-end="" d="M818,428, 998,1408" style="stroke-width: 0.31; stroke-opacity: 0.29; stroke: rgb(80, 80, 80); fill: none;"></path><path class="link" marker-end="" d="M818,428, 998,1448" style="stroke-width: 0.31; stroke-opacity: 0.29; stroke: rgb(80, 80, 80); fill: none;"></path><path class="link" marker-end="" d="M818,428, 998,1488" style="stroke-width: 0.31; stroke-opacity: 0.29; stroke: rgb(80, 80, 80); fill: none;"></path><path class="link" marker-end="" d="M818,428, 998,1528" style="stroke-width: 0.31; stroke-opacity: 0.29; stroke: rgb(80, 80, 80); fill: none;"></path><path class="link" marker-end="" d="M818,428, 998,1568" style="stroke-width: 0.31; stroke-opacity: 0.29; stroke: rgb(80, 80, 80); fill: none;"></path><path class="link" marker-end="" d="M818,468, 998,-112" style="stroke-width: 0.31; stroke-opacity: 0.29; stroke: rgb(80, 80, 80); fill: none;"></path><path class="link" marker-end="" d="M818,468, 998,-72" style="stroke-width: 0.31; stroke-opacity: 0.29; stroke: rgb(80, 80, 80); fill: none;"></path><path class="link" marker-end="" d="M818,468, 998,-32" style="stroke-width: 0.31; stroke-opacity: 0.29; stroke: rgb(80, 80, 80); fill: none;"></path><path class="link" marker-end="" d="M818,468, 998,8" style="stroke-width: 0.31; stroke-opacity: 0.29; stroke: rgb(80, 80, 80); fill: none;"></path><path class="link" marker-end="" d="M818,468, 998,48" style="stroke-width: 0.31; stroke-opacity: 0.29; stroke: rgb(80, 80, 80); fill: none;"></path><path class="link" marker-end="" d="M818,468, 998,88" style="stroke-width: 0.31; stroke-opacity: 0.29; stroke: rgb(80, 80, 80); fill: none;"></path><path class="link" marker-end="" d="M818,468, 998,128" style="stroke-width: 0.31; stroke-opacity: 0.29; stroke: rgb(80, 80, 80); fill: none;"></path><path class="link" marker-end="" d="M818,468, 998,168" style="stroke-width: 0.31; stroke-opacity: 0.29; stroke: rgb(80, 80, 80); fill: none;"></path><path class="link" marker-end="" d="M818,468, 998,208" style="stroke-width: 0.31; stroke-opacity: 0.29; stroke: rgb(80, 80, 80); fill: none;"></path><path class="link" marker-end="" d="M818,468, 998,248" style="stroke-width: 0.31; stroke-opacity: 0.29; stroke: rgb(80, 80, 80); fill: none;"></path><path class="link" marker-end="" d="M818,468, 998,288" style="stroke-width: 0.31; stroke-opacity: 0.29; stroke: rgb(80, 80, 80); fill: none;"></path><path class="link" marker-end="" d="M818,468, 998,328" style="stroke-width: 0.31; stroke-opacity: 0.29; stroke: rgb(80, 80, 80); fill: none;"></path><path class="link" marker-end="" d="M818,468, 998,368" style="stroke-width: 0.31; stroke-opacity: 0.29; stroke: rgb(80, 80, 80); fill: none;"></path><path class="link" marker-end="" d="M818,468, 998,408" style="stroke-width: 0.31; stroke-opacity: 0.29; stroke: rgb(80, 80, 80); fill: none;"></path><path class="link" marker-end="" d="M818,468, 998,448" style="stroke-width: 0.31; stroke-opacity: 0.29; stroke: rgb(80, 80, 80); fill: none;"></path><path class="link" marker-end="" d="M818,468, 998,488" style="stroke-width: 0.31; stroke-opacity: 0.29; stroke: rgb(80, 80, 80); fill: none;"></path><path class="link" marker-end="" d="M818,468, 998,528" style="stroke-width: 0.31; stroke-opacity: 0.29; stroke: rgb(80, 80, 80); fill: none;"></path><path class="link" marker-end="" d="M818,468, 998,568" style="stroke-width: 0.31; stroke-opacity: 0.29; stroke: rgb(80, 80, 80); fill: none;"></path><path class="link" marker-end="" d="M818,468, 998,608" style="stroke-width: 0.31; stroke-opacity: 0.29; stroke: rgb(80, 80, 80); fill: none;"></path><path class="link" marker-end="" d="M818,468, 998,648" style="stroke-width: 0.31; stroke-opacity: 0.29; stroke: rgb(80, 80, 80); fill: none;"></path><path class="link" marker-end="" d="M818,468, 998,688" style="stroke-width: 0.31; stroke-opacity: 0.29; stroke: rgb(80, 80, 80); fill: none;"></path><path class="link" marker-end="" d="M818,468, 998,728" style="stroke-width: 0.31; stroke-opacity: 0.29; stroke: rgb(80, 80, 80); fill: none;"></path><path class="link" marker-end="" d="M818,468, 998,768" style="stroke-width: 0.31; stroke-opacity: 0.29; stroke: rgb(80, 80, 80); fill: none;"></path><path class="link" marker-end="" d="M818,468, 998,808" style="stroke-width: 0.31; stroke-opacity: 0.29; stroke: rgb(80, 80, 80); fill: none;"></path><path class="link" marker-end="" d="M818,468, 998,848" style="stroke-width: 0.31; stroke-opacity: 0.29; stroke: rgb(80, 80, 80); fill: none;"></path><path class="link" marker-end="" d="M818,468, 998,888" style="stroke-width: 0.31; stroke-opacity: 0.29; stroke: rgb(80, 80, 80); fill: none;"></path><path class="link" marker-end="" d="M818,468, 998,928" style="stroke-width: 0.31; stroke-opacity: 0.29; stroke: rgb(80, 80, 80); fill: none;"></path><path class="link" marker-end="" d="M818,468, 998,968" style="stroke-width: 0.31; stroke-opacity: 0.29; stroke: rgb(80, 80, 80); fill: none;"></path><path class="link" marker-end="" d="M818,468, 998,1008" style="stroke-width: 0.31; stroke-opacity: 0.29; stroke: rgb(80, 80, 80); fill: none;"></path><path class="link" marker-end="" d="M818,468, 998,1048" style="stroke-width: 0.31; stroke-opacity: 0.29; stroke: rgb(80, 80, 80); fill: none;"></path><path class="link" marker-end="" d="M818,468, 998,1088" style="stroke-width: 0.31; stroke-opacity: 0.29; stroke: rgb(80, 80, 80); fill: none;"></path><path class="link" marker-end="" d="M818,468, 998,1128" style="stroke-width: 0.31; stroke-opacity: 0.29; stroke: rgb(80, 80, 80); fill: none;"></path><path class="link" marker-end="" d="M818,468, 998,1168" style="stroke-width: 0.31; stroke-opacity: 0.29; stroke: rgb(80, 80, 80); fill: none;"></path><path class="link" marker-end="" d="M818,468, 998,1208" style="stroke-width: 0.31; stroke-opacity: 0.29; stroke: rgb(80, 80, 80); fill: none;"></path><path class="link" marker-end="" d="M818,468, 998,1248" style="stroke-width: 0.31; stroke-opacity: 0.29; stroke: rgb(80, 80, 80); fill: none;"></path><path class="link" marker-end="" d="M818,468, 998,1288" style="stroke-width: 0.31; stroke-opacity: 0.29; stroke: rgb(80, 80, 80); fill: none;"></path><path class="link" marker-end="" d="M818,468, 998,1328" style="stroke-width: 0.31; stroke-opacity: 0.29; stroke: rgb(80, 80, 80); fill: none;"></path><path class="link" marker-end="" d="M818,468, 998,1368" style="stroke-width: 0.31; stroke-opacity: 0.29; stroke: rgb(80, 80, 80); fill: none;"></path><path class="link" marker-end="" d="M818,468, 998,1408" style="stroke-width: 0.31; stroke-opacity: 0.29; stroke: rgb(80, 80, 80); fill: none;"></path><path class="link" marker-end="" d="M818,468, 998,1448" style="stroke-width: 0.31; stroke-opacity: 0.29; stroke: rgb(80, 80, 80); fill: none;"></path><path class="link" marker-end="" d="M818,468, 998,1488" style="stroke-width: 0.31; stroke-opacity: 0.29; stroke: rgb(80, 80, 80); fill: none;"></path><path class="link" marker-end="" d="M818,468, 998,1528" style="stroke-width: 0.31; stroke-opacity: 0.29; stroke: rgb(80, 80, 80); fill: none;"></path><path class="link" marker-end="" d="M818,468, 998,1568" style="stroke-width: 0.31; stroke-opacity: 0.29; stroke: rgb(80, 80, 80); fill: none;"></path><path class="link" marker-end="" d="M818,508, 998,-112" style="stroke-width: 0.31; stroke-opacity: 0.29; stroke: rgb(80, 80, 80); fill: none;"></path><path class="link" marker-end="" d="M818,508, 998,-72" style="stroke-width: 0.31; stroke-opacity: 0.29; stroke: rgb(80, 80, 80); fill: none;"></path><path class="link" marker-end="" d="M818,508, 998,-32" style="stroke-width: 0.31; stroke-opacity: 0.29; stroke: rgb(80, 80, 80); fill: none;"></path><path class="link" marker-end="" d="M818,508, 998,8" style="stroke-width: 0.31; stroke-opacity: 0.29; stroke: rgb(80, 80, 80); fill: none;"></path><path class="link" marker-end="" d="M818,508, 998,48" style="stroke-width: 0.31; stroke-opacity: 0.29; stroke: rgb(80, 80, 80); fill: none;"></path><path class="link" marker-end="" d="M818,508, 998,88" style="stroke-width: 0.31; stroke-opacity: 0.29; stroke: rgb(80, 80, 80); fill: none;"></path><path class="link" marker-end="" d="M818,508, 998,128" style="stroke-width: 0.31; stroke-opacity: 0.29; stroke: rgb(80, 80, 80); fill: none;"></path><path class="link" marker-end="" d="M818,508, 998,168" style="stroke-width: 0.31; stroke-opacity: 0.29; stroke: rgb(80, 80, 80); fill: none;"></path><path class="link" marker-end="" d="M818,508, 998,208" style="stroke-width: 0.31; stroke-opacity: 0.29; stroke: rgb(80, 80, 80); fill: none;"></path><path class="link" marker-end="" d="M818,508, 998,248" style="stroke-width: 0.31; stroke-opacity: 0.29; stroke: rgb(80, 80, 80); fill: none;"></path><path class="link" marker-end="" d="M818,508, 998,288" style="stroke-width: 0.31; stroke-opacity: 0.29; stroke: rgb(80, 80, 80); fill: none;"></path><path class="link" marker-end="" d="M818,508, 998,328" style="stroke-width: 0.31; stroke-opacity: 0.29; stroke: rgb(80, 80, 80); fill: none;"></path><path class="link" marker-end="" d="M818,508, 998,368" style="stroke-width: 0.31; stroke-opacity: 0.29; stroke: rgb(80, 80, 80); fill: none;"></path><path class="link" marker-end="" d="M818,508, 998,408" style="stroke-width: 0.31; stroke-opacity: 0.29; stroke: rgb(80, 80, 80); fill: none;"></path><path class="link" marker-end="" d="M818,508, 998,448" style="stroke-width: 0.31; stroke-opacity: 0.29; stroke: rgb(80, 80, 80); fill: none;"></path><path class="link" marker-end="" d="M818,508, 998,488" style="stroke-width: 0.31; stroke-opacity: 0.29; stroke: rgb(80, 80, 80); fill: none;"></path><path class="link" marker-end="" d="M818,508, 998,528" style="stroke-width: 0.31; stroke-opacity: 0.29; stroke: rgb(80, 80, 80); fill: none;"></path><path class="link" marker-end="" d="M818,508, 998,568" style="stroke-width: 0.31; stroke-opacity: 0.29; stroke: rgb(80, 80, 80); fill: none;"></path><path class="link" marker-end="" d="M818,508, 998,608" style="stroke-width: 0.31; stroke-opacity: 0.29; stroke: rgb(80, 80, 80); fill: none;"></path><path class="link" marker-end="" d="M818,508, 998,648" style="stroke-width: 0.31; stroke-opacity: 0.29; stroke: rgb(80, 80, 80); fill: none;"></path><path class="link" marker-end="" d="M818,508, 998,688" style="stroke-width: 0.31; stroke-opacity: 0.29; stroke: rgb(80, 80, 80); fill: none;"></path><path class="link" marker-end="" d="M818,508, 998,728" style="stroke-width: 0.31; stroke-opacity: 0.29; stroke: rgb(80, 80, 80); fill: none;"></path><path class="link" marker-end="" d="M818,508, 998,768" style="stroke-width: 0.31; stroke-opacity: 0.29; stroke: rgb(80, 80, 80); fill: none;"></path><path class="link" marker-end="" d="M818,508, 998,808" style="stroke-width: 0.31; stroke-opacity: 0.29; stroke: rgb(80, 80, 80); fill: none;"></path><path class="link" marker-end="" d="M818,508, 998,848" style="stroke-width: 0.31; stroke-opacity: 0.29; stroke: rgb(80, 80, 80); fill: none;"></path><path class="link" marker-end="" d="M818,508, 998,888" style="stroke-width: 0.31; stroke-opacity: 0.29; stroke: rgb(80, 80, 80); fill: none;"></path><path class="link" marker-end="" d="M818,508, 998,928" style="stroke-width: 0.31; stroke-opacity: 0.29; stroke: rgb(80, 80, 80); fill: none;"></path><path class="link" marker-end="" d="M818,508, 998,968" style="stroke-width: 0.31; stroke-opacity: 0.29; stroke: rgb(80, 80, 80); fill: none;"></path><path class="link" marker-end="" d="M818,508, 998,1008" style="stroke-width: 0.31; stroke-opacity: 0.29; stroke: rgb(80, 80, 80); fill: none;"></path><path class="link" marker-end="" d="M818,508, 998,1048" style="stroke-width: 0.31; stroke-opacity: 0.29; stroke: rgb(80, 80, 80); fill: none;"></path><path class="link" marker-end="" d="M818,508, 998,1088" style="stroke-width: 0.31; stroke-opacity: 0.29; stroke: rgb(80, 80, 80); fill: none;"></path><path class="link" marker-end="" d="M818,508, 998,1128" style="stroke-width: 0.31; stroke-opacity: 0.29; stroke: rgb(80, 80, 80); fill: none;"></path><path class="link" marker-end="" d="M818,508, 998,1168" style="stroke-width: 0.31; stroke-opacity: 0.29; stroke: rgb(80, 80, 80); fill: none;"></path><path class="link" marker-end="" d="M818,508, 998,1208" style="stroke-width: 0.31; stroke-opacity: 0.29; stroke: rgb(80, 80, 80); fill: none;"></path><path class="link" marker-end="" d="M818,508, 998,1248" style="stroke-width: 0.31; stroke-opacity: 0.29; stroke: rgb(80, 80, 80); fill: none;"></path><path class="link" marker-end="" d="M818,508, 998,1288" style="stroke-width: 0.31; stroke-opacity: 0.29; stroke: rgb(80, 80, 80); fill: none;"></path><path class="link" marker-end="" d="M818,508, 998,1328" style="stroke-width: 0.31; stroke-opacity: 0.29; stroke: rgb(80, 80, 80); fill: none;"></path><path class="link" marker-end="" d="M818,508, 998,1368" style="stroke-width: 0.31; stroke-opacity: 0.29; stroke: rgb(80, 80, 80); fill: none;"></path><path class="link" marker-end="" d="M818,508, 998,1408" style="stroke-width: 0.31; stroke-opacity: 0.29; stroke: rgb(80, 80, 80); fill: none;"></path><path class="link" marker-end="" d="M818,508, 998,1448" style="stroke-width: 0.31; stroke-opacity: 0.29; stroke: rgb(80, 80, 80); fill: none;"></path><path class="link" marker-end="" d="M818,508, 998,1488" style="stroke-width: 0.31; stroke-opacity: 0.29; stroke: rgb(80, 80, 80); fill: none;"></path><path class="link" marker-end="" d="M818,508, 998,1528" style="stroke-width: 0.31; stroke-opacity: 0.29; stroke: rgb(80, 80, 80); fill: none;"></path><path class="link" marker-end="" d="M818,508, 998,1568" style="stroke-width: 0.31; stroke-opacity: 0.29; stroke: rgb(80, 80, 80); fill: none;"></path><path class="link" marker-end="" d="M818,548, 998,-112" style="stroke-width: 0.31; stroke-opacity: 0.29; stroke: rgb(80, 80, 80); fill: none;"></path><path class="link" marker-end="" d="M818,548, 998,-72" style="stroke-width: 0.31; stroke-opacity: 0.29; stroke: rgb(80, 80, 80); fill: none;"></path><path class="link" marker-end="" d="M818,548, 998,-32" style="stroke-width: 0.31; stroke-opacity: 0.29; stroke: rgb(80, 80, 80); fill: none;"></path><path class="link" marker-end="" d="M818,548, 998,8" style="stroke-width: 0.31; stroke-opacity: 0.29; stroke: rgb(80, 80, 80); fill: none;"></path><path class="link" marker-end="" d="M818,548, 998,48" style="stroke-width: 0.31; stroke-opacity: 0.29; stroke: rgb(80, 80, 80); fill: none;"></path><path class="link" marker-end="" d="M818,548, 998,88" style="stroke-width: 0.31; stroke-opacity: 0.29; stroke: rgb(80, 80, 80); fill: none;"></path><path class="link" marker-end="" d="M818,548, 998,128" style="stroke-width: 0.31; stroke-opacity: 0.29; stroke: rgb(80, 80, 80); fill: none;"></path><path class="link" marker-end="" d="M818,548, 998,168" style="stroke-width: 0.31; stroke-opacity: 0.29; stroke: rgb(80, 80, 80); fill: none;"></path><path class="link" marker-end="" d="M818,548, 998,208" style="stroke-width: 0.31; stroke-opacity: 0.29; stroke: rgb(80, 80, 80); fill: none;"></path><path class="link" marker-end="" d="M818,548, 998,248" style="stroke-width: 0.31; stroke-opacity: 0.29; stroke: rgb(80, 80, 80); fill: none;"></path><path class="link" marker-end="" d="M818,548, 998,288" style="stroke-width: 0.31; stroke-opacity: 0.29; stroke: rgb(80, 80, 80); fill: none;"></path><path class="link" marker-end="" d="M818,548, 998,328" style="stroke-width: 0.31; stroke-opacity: 0.29; stroke: rgb(80, 80, 80); fill: none;"></path><path class="link" marker-end="" d="M818,548, 998,368" style="stroke-width: 0.31; stroke-opacity: 0.29; stroke: rgb(80, 80, 80); fill: none;"></path><path class="link" marker-end="" d="M818,548, 998,408" style="stroke-width: 0.31; stroke-opacity: 0.29; stroke: rgb(80, 80, 80); fill: none;"></path><path class="link" marker-end="" d="M818,548, 998,448" style="stroke-width: 0.31; stroke-opacity: 0.29; stroke: rgb(80, 80, 80); fill: none;"></path><path class="link" marker-end="" d="M818,548, 998,488" style="stroke-width: 0.31; stroke-opacity: 0.29; stroke: rgb(80, 80, 80); fill: none;"></path><path class="link" marker-end="" d="M818,548, 998,528" style="stroke-width: 0.31; stroke-opacity: 0.29; stroke: rgb(80, 80, 80); fill: none;"></path><path class="link" marker-end="" d="M818,548, 998,568" style="stroke-width: 0.31; stroke-opacity: 0.29; stroke: rgb(80, 80, 80); fill: none;"></path><path class="link" marker-end="" d="M818,548, 998,608" style="stroke-width: 0.31; stroke-opacity: 0.29; stroke: rgb(80, 80, 80); fill: none;"></path><path class="link" marker-end="" d="M818,548, 998,648" style="stroke-width: 0.31; stroke-opacity: 0.29; stroke: rgb(80, 80, 80); fill: none;"></path><path class="link" marker-end="" d="M818,548, 998,688" style="stroke-width: 0.31; stroke-opacity: 0.29; stroke: rgb(80, 80, 80); fill: none;"></path><path class="link" marker-end="" d="M818,548, 998,728" style="stroke-width: 0.31; stroke-opacity: 0.29; stroke: rgb(80, 80, 80); fill: none;"></path><path class="link" marker-end="" d="M818,548, 998,768" style="stroke-width: 0.31; stroke-opacity: 0.29; stroke: rgb(80, 80, 80); fill: none;"></path><path class="link" marker-end="" d="M818,548, 998,808" style="stroke-width: 0.31; stroke-opacity: 0.29; stroke: rgb(80, 80, 80); fill: none;"></path><path class="link" marker-end="" d="M818,548, 998,848" style="stroke-width: 0.31; stroke-opacity: 0.29; stroke: rgb(80, 80, 80); fill: none;"></path><path class="link" marker-end="" d="M818,548, 998,888" style="stroke-width: 0.31; stroke-opacity: 0.29; stroke: rgb(80, 80, 80); fill: none;"></path><path class="link" marker-end="" d="M818,548, 998,928" style="stroke-width: 0.31; stroke-opacity: 0.29; stroke: rgb(80, 80, 80); fill: none;"></path><path class="link" marker-end="" d="M818,548, 998,968" style="stroke-width: 0.31; stroke-opacity: 0.29; stroke: rgb(80, 80, 80); fill: none;"></path><path class="link" marker-end="" d="M818,548, 998,1008" style="stroke-width: 0.31; stroke-opacity: 0.29; stroke: rgb(80, 80, 80); fill: none;"></path><path class="link" marker-end="" d="M818,548, 998,1048" style="stroke-width: 0.31; stroke-opacity: 0.29; stroke: rgb(80, 80, 80); fill: none;"></path><path class="link" marker-end="" d="M818,548, 998,1088" style="stroke-width: 0.31; stroke-opacity: 0.29; stroke: rgb(80, 80, 80); fill: none;"></path><path class="link" marker-end="" d="M818,548, 998,1128" style="stroke-width: 0.31; stroke-opacity: 0.29; stroke: rgb(80, 80, 80); fill: none;"></path><path class="link" marker-end="" d="M818,548, 998,1168" style="stroke-width: 0.31; stroke-opacity: 0.29; stroke: rgb(80, 80, 80); fill: none;"></path><path class="link" marker-end="" d="M818,548, 998,1208" style="stroke-width: 0.31; stroke-opacity: 0.29; stroke: rgb(80, 80, 80); fill: none;"></path><path class="link" marker-end="" d="M818,548, 998,1248" style="stroke-width: 0.31; stroke-opacity: 0.29; stroke: rgb(80, 80, 80); fill: none;"></path><path class="link" marker-end="" d="M818,548, 998,1288" style="stroke-width: 0.31; stroke-opacity: 0.29; stroke: rgb(80, 80, 80); fill: none;"></path><path class="link" marker-end="" d="M818,548, 998,1328" style="stroke-width: 0.31; stroke-opacity: 0.29; stroke: rgb(80, 80, 80); fill: none;"></path><path class="link" marker-end="" d="M818,548, 998,1368" style="stroke-width: 0.31; stroke-opacity: 0.29; stroke: rgb(80, 80, 80); fill: none;"></path><path class="link" marker-end="" d="M818,548, 998,1408" style="stroke-width: 0.31; stroke-opacity: 0.29; stroke: rgb(80, 80, 80); fill: none;"></path><path class="link" marker-end="" d="M818,548, 998,1448" style="stroke-width: 0.31; stroke-opacity: 0.29; stroke: rgb(80, 80, 80); fill: none;"></path><path class="link" marker-end="" d="M818,548, 998,1488" style="stroke-width: 0.31; stroke-opacity: 0.29; stroke: rgb(80, 80, 80); fill: none;"></path><path class="link" marker-end="" d="M818,548, 998,1528" style="stroke-width: 0.31; stroke-opacity: 0.29; stroke: rgb(80, 80, 80); fill: none;"></path><path class="link" marker-end="" d="M818,548, 998,1568" style="stroke-width: 0.31; stroke-opacity: 0.29; stroke: rgb(80, 80, 80); fill: none;"></path><path class="link" marker-end="" d="M998,-112, 1178,488" style="stroke-width: 0.31; stroke-opacity: 0.29; stroke: rgb(80, 80, 80); fill: none;"></path><path class="link" marker-end="" d="M998,-72, 1178,488" style="stroke-width: 0.31; stroke-opacity: 0.29; stroke: rgb(80, 80, 80); fill: none;"></path><path class="link" marker-end="" d="M998,-32, 1178,488" style="stroke-width: 0.31; stroke-opacity: 0.29; stroke: rgb(80, 80, 80); fill: none;"></path><path class="link" marker-end="" d="M998,8, 1178,488" style="stroke-width: 0.31; stroke-opacity: 0.29; stroke: rgb(80, 80, 80); fill: none;"></path><path class="link" marker-end="" d="M998,48, 1178,488" style="stroke-width: 0.31; stroke-opacity: 0.29; stroke: rgb(80, 80, 80); fill: none;"></path><path class="link" marker-end="" d="M998,88, 1178,488" style="stroke-width: 0.31; stroke-opacity: 0.29; stroke: rgb(80, 80, 80); fill: none;"></path><path class="link" marker-end="" d="M998,128, 1178,488" style="stroke-width: 0.31; stroke-opacity: 0.29; stroke: rgb(80, 80, 80); fill: none;"></path><path class="link" marker-end="" d="M998,168, 1178,488" style="stroke-width: 0.31; stroke-opacity: 0.29; stroke: rgb(80, 80, 80); fill: none;"></path><path class="link" marker-end="" d="M998,208, 1178,488" style="stroke-width: 0.31; stroke-opacity: 0.29; stroke: rgb(80, 80, 80); fill: none;"></path><path class="link" marker-end="" d="M998,248, 1178,488" style="stroke-width: 0.31; stroke-opacity: 0.29; stroke: rgb(80, 80, 80); fill: none;"></path><path class="link" marker-end="" d="M998,288, 1178,488" style="stroke-width: 0.31; stroke-opacity: 0.29; stroke: rgb(80, 80, 80); fill: none;"></path><path class="link" marker-end="" d="M998,328, 1178,488" style="stroke-width: 0.31; stroke-opacity: 0.29; stroke: rgb(80, 80, 80); fill: none;"></path><path class="link" marker-end="" d="M998,368, 1178,488" style="stroke-width: 0.31; stroke-opacity: 0.29; stroke: rgb(80, 80, 80); fill: none;"></path><path class="link" marker-end="" d="M998,408, 1178,488" style="stroke-width: 0.31; stroke-opacity: 0.29; stroke: rgb(80, 80, 80); fill: none;"></path><path class="link" marker-end="" d="M998,448, 1178,488" style="stroke-width: 0.31; stroke-opacity: 0.29; stroke: rgb(80, 80, 80); fill: none;"></path><path class="link" marker-end="" d="M998,488, 1178,488" style="stroke-width: 0.31; stroke-opacity: 0.29; stroke: rgb(80, 80, 80); fill: none;"></path><path class="link" marker-end="" d="M998,528, 1178,488" style="stroke-width: 0.31; stroke-opacity: 0.29; stroke: rgb(80, 80, 80); fill: none;"></path><path class="link" marker-end="" d="M998,568, 1178,488" style="stroke-width: 0.31; stroke-opacity: 0.29; stroke: rgb(80, 80, 80); fill: none;"></path><path class="link" marker-end="" d="M998,608, 1178,488" style="stroke-width: 0.31; stroke-opacity: 0.29; stroke: rgb(80, 80, 80); fill: none;"></path><path class="link" marker-end="" d="M998,648, 1178,488" style="stroke-width: 0.31; stroke-opacity: 0.29; stroke: rgb(80, 80, 80); fill: none;"></path><path class="link" marker-end="" d="M998,688, 1178,488" style="stroke-width: 0.31; stroke-opacity: 0.29; stroke: rgb(80, 80, 80); fill: none;"></path><path class="link" marker-end="" d="M998,728, 1178,488" style="stroke-width: 0.31; stroke-opacity: 0.29; stroke: rgb(80, 80, 80); fill: none;"></path><path class="link" marker-end="" d="M998,768, 1178,488" style="stroke-width: 0.31; stroke-opacity: 0.29; stroke: rgb(80, 80, 80); fill: none;"></path><path class="link" marker-end="" d="M998,808, 1178,488" style="stroke-width: 0.31; stroke-opacity: 0.29; stroke: rgb(80, 80, 80); fill: none;"></path><path class="link" marker-end="" d="M998,848, 1178,488" style="stroke-width: 0.31; stroke-opacity: 0.29; stroke: rgb(80, 80, 80); fill: none;"></path><path class="link" marker-end="" d="M998,888, 1178,488" style="stroke-width: 0.31; stroke-opacity: 0.29; stroke: rgb(80, 80, 80); fill: none;"></path><path class="link" marker-end="" d="M998,928, 1178,488" style="stroke-width: 0.31; stroke-opacity: 0.29; stroke: rgb(80, 80, 80); fill: none;"></path><path class="link" marker-end="" d="M998,968, 1178,488" style="stroke-width: 0.31; stroke-opacity: 0.29; stroke: rgb(80, 80, 80); fill: none;"></path><path class="link" marker-end="" d="M998,1008, 1178,488" style="stroke-width: 0.31; stroke-opacity: 0.29; stroke: rgb(80, 80, 80); fill: none;"></path><path class="link" marker-end="" d="M998,1048, 1178,488" style="stroke-width: 0.31; stroke-opacity: 0.29; stroke: rgb(80, 80, 80); fill: none;"></path><path class="link" marker-end="" d="M998,1088, 1178,488" style="stroke-width: 0.31; stroke-opacity: 0.29; stroke: rgb(80, 80, 80); fill: none;"></path><path class="link" marker-end="" d="M998,1128, 1178,488" style="stroke-width: 0.31; stroke-opacity: 0.29; stroke: rgb(80, 80, 80); fill: none;"></path><path class="link" marker-end="" d="M998,1168, 1178,488" style="stroke-width: 0.31; stroke-opacity: 0.29; stroke: rgb(80, 80, 80); fill: none;"></path><path class="link" marker-end="" d="M998,1208, 1178,488" style="stroke-width: 0.31; stroke-opacity: 0.29; stroke: rgb(80, 80, 80); fill: none;"></path><path class="link" marker-end="" d="M998,1248, 1178,488" style="stroke-width: 0.31; stroke-opacity: 0.29; stroke: rgb(80, 80, 80); fill: none;"></path><path class="link" marker-end="" d="M998,1288, 1178,488" style="stroke-width: 0.31; stroke-opacity: 0.29; stroke: rgb(80, 80, 80); fill: none;"></path><path class="link" marker-end="" d="M998,1328, 1178,488" style="stroke-width: 0.31; stroke-opacity: 0.29; stroke: rgb(80, 80, 80); fill: none;"></path><path class="link" marker-end="" d="M998,1368, 1178,488" style="stroke-width: 0.31; stroke-opacity: 0.29; stroke: rgb(80, 80, 80); fill: none;"></path><path class="link" marker-end="" d="M998,1408, 1178,488" style="stroke-width: 0.31; stroke-opacity: 0.29; stroke: rgb(80, 80, 80); fill: none;"></path><path class="link" marker-end="" d="M998,1448, 1178,488" style="stroke-width: 0.31; stroke-opacity: 0.29; stroke: rgb(80, 80, 80); fill: none;"></path><path class="link" marker-end="" d="M998,1488, 1178,488" style="stroke-width: 0.31; stroke-opacity: 0.29; stroke: rgb(80, 80, 80); fill: none;"></path><path class="link" marker-end="" d="M998,1528, 1178,488" style="stroke-width: 0.31; stroke-opacity: 0.29; stroke: rgb(80, 80, 80); fill: none;"></path><path class="link" marker-end="" d="M998,1568, 1178,488" style="stroke-width: 0.31; stroke-opacity: 0.29; stroke: rgb(80, 80, 80); fill: none;"></path><circle r="12.5" class="node" id="0_0" cx="818" cy="428" style="fill: rgb(255, 255, 255); stroke: rgb(51, 51, 51);"></circle><circle r="12.5" class="node" id="0_1" cx="818" cy="468" style="fill: rgb(255, 255, 255); stroke: rgb(51, 51, 51);"></circle><circle r="12.5" class="node" id="0_2" cx="818" cy="508" style="fill: rgb(255, 255, 255); stroke: rgb(51, 51, 51);"></circle><circle r="12.5" class="node" id="0_3" cx="818" cy="548" style="fill: rgb(255, 255, 255); stroke: rgb(51, 51, 51);"></circle><circle r="12.5" class="node" id="1_0" cx="998" cy="-592" style="fill: rgb(255, 255, 255); stroke: rgb(51, 51, 51);"></circle><circle r="12.5" class="node" id="1_1" cx="998" cy="-552" style="fill: rgb(255, 255, 255); stroke: rgb(51, 51, 51);"></circle><circle r="12.5" class="node" id="1_2" cx="998" cy="-512" style="fill: rgb(255, 255, 255); stroke: rgb(51, 51, 51);"></circle><circle r="12.5" class="node" id="1_3" cx="998" cy="-472" style="fill: rgb(255, 255, 255); stroke: rgb(51, 51, 51);"></circle><circle r="12.5" class="node" id="1_4" cx="998" cy="-432" style="fill: rgb(255, 255, 255); stroke: rgb(51, 51, 51);"></circle><circle r="12.5" class="node" id="1_5" cx="998" cy="-392" style="fill: rgb(255, 255, 255); stroke: rgb(51, 51, 51);"></circle><circle r="12.5" class="node" id="1_6" cx="998" cy="-352" style="fill: rgb(255, 255, 255); stroke: rgb(51, 51, 51);"></circle><circle r="12.5" class="node" id="1_7" cx="998" cy="-312" style="fill: rgb(255, 255, 255); stroke: rgb(51, 51, 51);"></circle><circle r="12.5" class="node" id="1_8" cx="998" cy="-272" style="fill: rgb(255, 255, 255); stroke: rgb(51, 51, 51);"></circle><circle r="12.5" class="node" id="1_9" cx="998" cy="-232" style="fill: rgb(255, 255, 255); stroke: rgb(51, 51, 51);"></circle><circle r="12.5" class="node" id="1_10" cx="998" cy="-192" style="fill: rgb(255, 255, 255); stroke: rgb(51, 51, 51);"></circle><circle r="12.5" class="node" id="1_11" cx="998" cy="-152" style="fill: rgb(255, 255, 255); stroke: rgb(51, 51, 51);"></circle><circle r="12.5" class="node" id="1_12" cx="998" cy="-112" style="fill: rgb(255, 255, 255); stroke: rgb(51, 51, 51);"></circle><circle r="12.5" class="node" id="1_13" cx="998" cy="-72" style="fill: rgb(255, 255, 255); stroke: rgb(51, 51, 51);"></circle><circle r="12.5" class="node" id="1_14" cx="998" cy="-32" style="fill: rgb(255, 255, 255); stroke: rgb(51, 51, 51);"></circle><circle r="12.5" class="node" id="1_15" cx="998" cy="8" style="fill: rgb(255, 255, 255); stroke: rgb(51, 51, 51);"></circle><circle r="12.5" class="node" id="1_16" cx="998" cy="48" style="fill: rgb(255, 255, 255); stroke: rgb(51, 51, 51);"></circle><circle r="12.5" class="node" id="1_17" cx="998" cy="88" style="fill: rgb(255, 255, 255); stroke: rgb(51, 51, 51);"></circle><circle r="12.5" class="node" id="1_18" cx="998" cy="128" style="fill: rgb(255, 255, 255); stroke: rgb(51, 51, 51);"></circle><circle r="12.5" class="node" id="1_19" cx="998" cy="168" style="fill: rgb(255, 255, 255); stroke: rgb(51, 51, 51);"></circle><circle r="12.5" class="node" id="1_20" cx="998" cy="208" style="fill: rgb(255, 255, 255); stroke: rgb(51, 51, 51);"></circle><circle r="12.5" class="node" id="1_21" cx="998" cy="248" style="fill: rgb(255, 255, 255); stroke: rgb(51, 51, 51);"></circle><circle r="12.5" class="node" id="1_22" cx="998" cy="288" style="fill: rgb(255, 255, 255); stroke: rgb(51, 51, 51);"></circle><circle r="12.5" class="node" id="1_23" cx="998" cy="328" style="fill: rgb(255, 255, 255); stroke: rgb(51, 51, 51);"></circle><circle r="12.5" class="node" id="1_24" cx="998" cy="368" style="fill: rgb(255, 255, 255); stroke: rgb(51, 51, 51);"></circle><circle r="12.5" class="node" id="1_25" cx="998" cy="408" style="fill: rgb(255, 255, 255); stroke: rgb(51, 51, 51);"></circle><circle r="12.5" class="node" id="1_26" cx="998" cy="448" style="fill: rgb(255, 255, 255); stroke: rgb(51, 51, 51);"></circle><circle r="12.5" class="node" id="1_27" cx="998" cy="488" style="fill: rgb(255, 255, 255); stroke: rgb(51, 51, 51);"></circle><circle r="12.5" class="node" id="1_28" cx="998" cy="528" style="fill: rgb(255, 255, 255); stroke: rgb(51, 51, 51);"></circle><circle r="12.5" class="node" id="1_29" cx="998" cy="568" style="fill: rgb(255, 255, 255); stroke: rgb(51, 51, 51);"></circle><circle r="12.5" class="node" id="1_30" cx="998" cy="608" style="fill: rgb(255, 255, 255); stroke: rgb(51, 51, 51);"></circle><circle r="12.5" class="node" id="1_31" cx="998" cy="648" style="fill: rgb(255, 255, 255); stroke: rgb(51, 51, 51);"></circle><circle r="12.5" class="node" id="1_32" cx="998" cy="688" style="fill: rgb(255, 255, 255); stroke: rgb(51, 51, 51);"></circle><circle r="12.5" class="node" id="1_33" cx="998" cy="728" style="fill: rgb(255, 255, 255); stroke: rgb(51, 51, 51);"></circle><circle r="12.5" class="node" id="1_34" cx="998" cy="768" style="fill: rgb(255, 255, 255); stroke: rgb(51, 51, 51);"></circle><circle r="12.5" class="node" id="1_35" cx="998" cy="808" style="fill: rgb(255, 255, 255); stroke: rgb(51, 51, 51);"></circle><circle r="12.5" class="node" id="1_36" cx="998" cy="848" style="fill: rgb(255, 255, 255); stroke: rgb(51, 51, 51);"></circle><circle r="12.5" class="node" id="1_37" cx="998" cy="888" style="fill: rgb(255, 255, 255); stroke: rgb(51, 51, 51);"></circle><circle r="12.5" class="node" id="1_38" cx="998" cy="928" style="fill: rgb(255, 255, 255); stroke: rgb(51, 51, 51);"></circle><circle r="12.5" class="node" id="1_39" cx="998" cy="968" style="fill: rgb(255, 255, 255); stroke: rgb(51, 51, 51);"></circle><circle r="12.5" class="node" id="1_40" cx="998" cy="1008" style="fill: rgb(255, 255, 255); stroke: rgb(51, 51, 51);"></circle><circle r="12.5" class="node" id="1_41" cx="998" cy="1048" style="fill: rgb(255, 255, 255); stroke: rgb(51, 51, 51);"></circle><circle r="12.5" class="node" id="1_42" cx="998" cy="1088" style="fill: rgb(255, 255, 255); stroke: rgb(51, 51, 51);"></circle><circle r="12.5" class="node" id="1_43" cx="998" cy="1128" style="fill: rgb(255, 255, 255); stroke: rgb(51, 51, 51);"></circle><circle r="12.5" class="node" id="1_44" cx="998" cy="1168" style="fill: rgb(255, 255, 255); stroke: rgb(51, 51, 51);"></circle><circle r="12.5" class="node" id="1_45" cx="998" cy="1208" style="fill: rgb(255, 255, 255); stroke: rgb(51, 51, 51);"></circle><circle r="12.5" class="node" id="1_46" cx="998" cy="1248" style="fill: rgb(255, 255, 255); stroke: rgb(51, 51, 51);"></circle><circle r="12.5" class="node" id="1_47" cx="998" cy="1288" style="fill: rgb(255, 255, 255); stroke: rgb(51, 51, 51);"></circle><circle r="12.5" class="node" id="1_48" cx="998" cy="1328" style="fill: rgb(255, 255, 255); stroke: rgb(51, 51, 51);"></circle><circle r="12.5" class="node" id="1_49" cx="998" cy="1368" style="fill: rgb(255, 255, 255); stroke: rgb(51, 51, 51);"></circle><circle r="12.5" class="node" id="1_50" cx="998" cy="1408" style="fill: rgb(255, 255, 255); stroke: rgb(51, 51, 51);"></circle><circle r="12.5" class="node" id="1_51" cx="998" cy="1448" style="fill: rgb(255, 255, 255); stroke: rgb(51, 51, 51);"></circle><circle r="12.5" class="node" id="1_52" cx="998" cy="1488" style="fill: rgb(255, 255, 255); stroke: rgb(51, 51, 51);"></circle><circle r="12.5" class="node" id="1_53" cx="998" cy="1528" style="fill: rgb(255, 255, 255); stroke: rgb(51, 51, 51);"></circle><circle r="12.5" class="node" id="1_54" cx="998" cy="1568" style="fill: rgb(255, 255, 255); stroke: rgb(51, 51, 51);"></circle><circle r="12.5" class="node" id="2_0" cx="1178" cy="488" style="fill: rgb(255, 255, 255); stroke: rgb(51, 51, 51);"></circle><text class="text" dy=".35em" x="783" y="1608" style="font-size: 12px;">Input Layer ∈ ℝ⁴</text><text class="text" dy=".35em" x="963" y="1608" style="font-size: 12px;">Hidden Layer ∈ ℝ⁵⁵</text><text class="text" dy=".35em" x="1143" y="1608" style="font-size: 12px;">Output Layer ∈ ℝ¹</text></g><defs><marker id="arrow" viewBox="0 -5 10 10" markerWidth="7" markerHeight="7" orient="auto" refX="47"><path d="M0,-5L10,0L0,5" style="stroke: rgb(80, 80, 80); fill: none;"></path></marker></defs></svg>