<?xml version="1.0" encoding="UTF-8" standalone="no"?>
<!DOCTYPE svg PUBLIC "-//W3C//DTD SVG 1.1//EN"
 "http://www.w3.org/Graphics/SVG/1.1/DTD/svg11.dtd">
<!-- Generated by graphviz version 7.1.0 (20230121.1956)
 -->
<!-- Title: G Pages: 1 -->
<svg width="330pt" height="222pt"
 viewBox="0.00 0.00 330.00 222.00" xmlns="http://www.w3.org/2000/svg" xmlns:xlink="http://www.w3.org/1999/xlink">
<g id="graph0" class="graph" transform="scale(1 1) rotate(0) translate(4 218)">
<title>G</title>
<polygon fill="white" stroke="none" points="-4,4 -4,-218 326,-218 326,4 -4,4"/>
<g id="clust1" class="cluster">
<title>cluster_0</title>
<polygon fill="none" stroke="white" points="0,-8 0,-191 79,-191 79,-8 0,-8"/>
<text text-anchor="start" x="8" y="-175.8" font-family="Helvetica,sans-Serif" font-size="14.00" fill="#ff4a11">input layer</text>
</g>
<g id="clust2" class="cluster">
<title>cluster_1</title>
<polygon fill="none" stroke="white" points="99,-8 99,-206 202,-206 202,-8 99,-8"/>
<text text-anchor="start" x="128" y="-190.8" font-family="Helvetica,sans-Serif" font-size="14.00" fill="#ff4a11">layer 1 </text>
<text text-anchor="start" x="107" y="-175.8" font-family="Helvetica,sans-Serif" font-size="14.00" fill="#ff4a11"> (hidden layer)</text>
</g>
<g id="clust3" class="cluster">
<title>cluster_2</title>
<polygon fill="none" stroke="white" points="222,-62 222,-152 322,-152 322,-62 222,-62"/>
<text text-anchor="start" x="249.5" y="-136.8" font-family="Helvetica,sans-Serif" font-size="14.00" fill="#ff4a11">layer 2 </text>
<text text-anchor="start" x="230" y="-121.8" font-family="Helvetica,sans-Serif" font-size="14.00" fill="#ff4a11"> (output layer)</text>
</g>
<!-- x0 -->
<g id="node1" class="node">
<title>x0</title>
<ellipse fill="none" stroke="black" cx="39" cy="-88" rx="18" ry="18"/>
<text text-anchor="start" x="32" y="-85.3" font-family="Helvetica,sans-Serif" font-size="14.00">x</text>
<text text-anchor="start" x="39" y="-85.3" font-family="Helvetica,sans-Serif" baseline-shift="sub" font-size="14.00">2</text>
</g>
<!-- a12 -->
<g id="node4" class="node">
<title>a12</title>
<ellipse fill="none" stroke="#ff4a11" cx="150" cy="-34" rx="18" ry="18"/>
<text text-anchor="start" x="137.5" y="-32.2" font-family="Helvetica,sans-Serif" font-size="11.00">a</text>
<text text-anchor="start" x="144.5" y="-32.2" font-family="Helvetica,sans-Serif" baseline-shift="sub" font-size="11.00">3</text>
<text text-anchor="start" x="150.5" y="-32.2" font-family="Helvetica,sans-Serif" baseline-shift="super" font-size="11.00">(1)</text>
</g>
<!-- x0&#45;&gt;a12 -->
<g id="edge7" class="edge">
<title>x0&#45;&gt;a12</title>
<path fill="none" stroke="lightgrey" d="M55.62,-80.26C73.99,-71.16 104.67,-55.96 125.82,-45.48"/>
<polygon fill="lightgrey" stroke="lightgrey" points="126.87,-47.7 132.06,-42.39 124.7,-43.31 126.87,-47.7"/>
</g>
<!-- a22 -->
<g id="node5" class="node">
<title>a22</title>
<ellipse fill="none" stroke="#ff4a11" cx="150" cy="-142" rx="18" ry="18"/>
<text text-anchor="start" x="137.5" y="-140.2" font-family="Helvetica,sans-Serif" font-size="11.00">a</text>
<text text-anchor="start" x="144.5" y="-140.2" font-family="Helvetica,sans-Serif" baseline-shift="sub" font-size="11.00">1</text>
<text text-anchor="start" x="150.5" y="-140.2" font-family="Helvetica,sans-Serif" baseline-shift="super" font-size="11.00">(1)</text>
</g>
<!-- x0&#45;&gt;a22 -->
<g id="edge8" class="edge">
<title>x0&#45;&gt;a22</title>
<path fill="none" stroke="lightgrey" d="M55.62,-95.74C73.99,-104.84 104.67,-120.04 125.82,-130.52"/>
<polygon fill="lightgrey" stroke="lightgrey" points="124.7,-132.69 132.06,-133.61 126.87,-128.3 124.7,-132.69"/>
</g>
<!-- a32 -->
<g id="node6" class="node">
<title>a32</title>
<ellipse fill="none" stroke="#ff4a11" cx="150" cy="-88" rx="18" ry="18"/>
<text text-anchor="start" x="137.5" y="-86.2" font-family="Helvetica,sans-Serif" font-size="11.00">a</text>
<text text-anchor="start" x="144.5" y="-86.2" font-family="Helvetica,sans-Serif" baseline-shift="sub" font-size="11.00">2</text>
<text text-anchor="start" x="150.5" y="-86.2" font-family="Helvetica,sans-Serif" baseline-shift="super" font-size="11.00">(1)</text>
</g>
<!-- x0&#45;&gt;a32 -->
<g id="edge9" class="edge">
<title>x0&#45;&gt;a32</title>
<path fill="none" stroke="lightgrey" d="M57.03,-88C74.84,-88 103.01,-88 123.48,-88"/>
<polygon fill="lightgrey" stroke="lightgrey" points="123.22,-90.45 130.22,-88 123.22,-85.55 123.22,-90.45"/>
</g>
<!-- x1 -->
<g id="node2" class="node">
<title>x1</title>
<ellipse fill="none" stroke="black" cx="39" cy="-34" rx="18" ry="18"/>
<text text-anchor="start" x="32" y="-31.3" font-family="Helvetica,sans-Serif" font-size="14.00">x</text>
<text text-anchor="start" x="39" y="-31.3" font-family="Helvetica,sans-Serif" baseline-shift="sub" font-size="14.00">3</text>
</g>
<!-- x1&#45;&gt;a12 -->
<g id="edge1" class="edge">
<title>x1&#45;&gt;a12</title>
<path fill="none" stroke="lightgrey" d="M57.03,-34C74.84,-34 103.01,-34 123.48,-34"/>
<polygon fill="lightgrey" stroke="lightgrey" points="123.22,-36.45 130.22,-34 123.22,-31.55 123.22,-36.45"/>
</g>
<!-- x1&#45;&gt;a22 -->
<g id="edge2" class="edge">
<title>x1&#45;&gt;a22</title>
<path fill="none" stroke="lightgrey" d="M52.5,-46.39C71.72,-65.43 108.62,-101.99 130.8,-123.97"/>
<polygon fill="lightgrey" stroke="lightgrey" points="128.87,-125.5 135.57,-128.69 132.32,-122.02 128.87,-125.5"/>
</g>
<!-- x1&#45;&gt;a32 -->
<g id="edge3" class="edge">
<title>x1&#45;&gt;a32</title>
<path fill="none" stroke="lightgrey" d="M55.62,-41.74C73.99,-50.84 104.67,-66.04 125.82,-76.52"/>
<polygon fill="lightgrey" stroke="lightgrey" points="124.7,-78.69 132.06,-79.61 126.87,-74.3 124.7,-78.69"/>
</g>
<!-- x2 -->
<g id="node3" class="node">
<title>x2</title>
<ellipse fill="none" stroke="black" cx="39" cy="-142" rx="18" ry="18"/>
<text text-anchor="start" x="32" y="-139.3" font-family="Helvetica,sans-Serif" font-size="14.00">x</text>
<text text-anchor="start" x="39" y="-139.3" font-family="Helvetica,sans-Serif" baseline-shift="sub" font-size="14.00">1</text>
</g>
<!-- x2&#45;&gt;a12 -->
<g id="edge4" class="edge">
<title>x2&#45;&gt;a12</title>
<path fill="none" stroke="lightgrey" d="M52.5,-129.61C71.72,-110.57 108.62,-74.01 130.8,-52.03"/>
<polygon fill="lightgrey" stroke="lightgrey" points="132.32,-53.98 135.57,-47.31 128.87,-50.5 132.32,-53.98"/>
</g>
<!-- x2&#45;&gt;a22 -->
<g id="edge5" class="edge">
<title>x2&#45;&gt;a22</title>
<path fill="none" stroke="lightgrey" d="M57.03,-142C74.84,-142 103.01,-142 123.48,-142"/>
<polygon fill="lightgrey" stroke="lightgrey" points="123.22,-144.45 130.22,-142 123.22,-139.55 123.22,-144.45"/>
</g>
<!-- x2&#45;&gt;a32 -->
<g id="edge6" class="edge">
<title>x2&#45;&gt;a32</title>
<path fill="none" stroke="lightgrey" d="M55.62,-134.26C73.99,-125.16 104.67,-109.96 125.82,-99.48"/>
<polygon fill="lightgrey" stroke="lightgrey" points="126.87,-101.7 132.06,-96.39 124.7,-97.31 126.87,-101.7"/>
</g>
<!-- a13 -->
<g id="node7" class="node">
<title>a13</title>
<ellipse fill="none" stroke="#ff4a11" cx="272" cy="-88" rx="18" ry="18"/>
<text text-anchor="start" x="257" y="-86.2" font-family="Helvetica,sans-Serif" font-size="11.00">h</text>
<text text-anchor="start" x="264" y="-86.2" font-family="Helvetica,sans-Serif" baseline-shift="sub" font-size="11.00">W</text>
<text text-anchor="start" x="274" y="-86.2" font-family="Helvetica,sans-Serif" font-size="11.00">(x)</text>
</g>
<!-- a12&#45;&gt;a13 -->
<g id="edge10" class="edge">
<title>a12&#45;&gt;a13</title>
<path fill="none" stroke="lightgrey" d="M166.69,-41.06C187.35,-50.36 223.85,-66.78 247.73,-77.53"/>
<polygon fill="lightgrey" stroke="lightgrey" points="246.54,-79.68 253.93,-80.32 248.55,-75.21 246.54,-79.68"/>
</g>
<!-- a22&#45;&gt;a13 -->
<g id="edge11" class="edge">
<title>a22&#45;&gt;a13</title>
<path fill="none" stroke="lightgrey" d="M166.69,-134.94C187.35,-125.64 223.85,-109.22 247.73,-98.47"/>
<polygon fill="lightgrey" stroke="lightgrey" points="248.55,-100.79 253.93,-95.68 246.54,-96.32 248.55,-100.79"/>
</g>
<!-- a32&#45;&gt;a13 -->
<g id="edge12" class="edge">
<title>a32&#45;&gt;a13</title>
<path fill="none" stroke="lightgrey" d="M168.45,-88C188.62,-88 222.02,-88 245.2,-88"/>
<polygon fill="lightgrey" stroke="lightgrey" points="245.02,-90.45 252.02,-88 245.02,-85.55 245.02,-90.45"/>
</g>
</g>
</svg>