<?xml version="1.0" encoding="UTF-8" standalone="no"?>
<!DOCTYPE svg PUBLIC "-//W3C//DTD SVG 1.1//EN"
 "http://www.w3.org/Graphics/SVG/1.1/DTD/svg11.dtd">
<!-- Generated by graphviz version 7.1.0 (20230121.1956)
 -->
<!-- Title: G Pages: 1 -->
<svg width="563pt" height="261pt"
 viewBox="0.00 0.00 563.00 261.00" xmlns="http://www.w3.org/2000/svg" xmlns:xlink="http://www.w3.org/1999/xlink">
<g id="graph0" class="graph" transform="scale(1 1) rotate(0) translate(4 257)">
<title>G</title>
<polygon fill="white" stroke="none" points="-4,4 -4,-257 559,-257 559,4 -4,4"/>
<g id="clust1" class="cluster">
<title>cluster_0</title>
<polygon fill="none" stroke="white" points="0,-8 0,-245 79,-245 79,-8 0,-8"/>
<text text-anchor="start" x="8" y="-229.8" font-family="Helvetica,sans-Serif" font-size="14.00" fill="#ff4a11">input layer</text>
</g>
<g id="clust2" class="cluster">
<title>cluster_1</title>
<polygon fill="none" stroke="white" points="99,-8 99,-245 151,-245 151,-8 99,-8"/>
<text text-anchor="start" x="117" y="-229.8" font-family="Helvetica,sans-Serif" font-size="14.00" fill="#ff4a11">[1]</text>
</g>
<g id="clust3" class="cluster">
<title>cluster_2</title>
<polygon fill="none" stroke="white" points="171,-8 171,-245 223,-245 223,-8 171,-8"/>
<text text-anchor="start" x="189" y="-229.8" font-family="Helvetica,sans-Serif" font-size="14.00" fill="#ff4a11">[2]</text>
</g>
<g id="clust4" class="cluster">
<title>cluster_3</title>
<polygon fill="none" stroke="white" points="243,-8 243,-245 295,-245 295,-8 243,-8"/>
<text text-anchor="start" x="261" y="-229.8" font-family="Helvetica,sans-Serif" font-size="14.00" fill="#ff4a11">[3]</text>
</g>
<g id="clust5" class="cluster">
<title>cluster_4</title>
<polygon fill="none" stroke="white" points="315,-8 315,-245 367,-245 367,-8 315,-8"/>
<text text-anchor="start" x="333" y="-229.8" font-family="Helvetica,sans-Serif" font-size="14.00" fill="#ff4a11">[4]</text>
</g>
<g id="clust6" class="cluster">
<title>cluster_5</title>
<polygon fill="none" stroke="white" points="387,-89 387,-164 439,-164 439,-89 387,-89"/>
<text text-anchor="start" x="405" y="-148.8" font-family="Helvetica,sans-Serif" font-size="14.00" fill="#ff4a11">[5]</text>
</g>
<g id="clust7" class="cluster">
<title>cluster_6</title>
<polygon fill="none" stroke="white" points="459,-71 459,-159 547,-159 547,-71 459,-71"/>
</g>
<!-- x0 -->
<g id="node1" class="node">
<title>x0</title>
<ellipse fill="none" stroke="black" cx="39" cy="-196" rx="18" ry="18"/>
<text text-anchor="start" x="29.5" y="-194.2" font-family="Helvetica,sans-Serif" font-size="11.00">b</text>
<text text-anchor="start" x="36.5" y="-194.2" font-family="Helvetica,sans-Serif" baseline-shift="super" font-size="11.00">(1)</text>
</g>
<!-- a11 -->
<g id="node6" class="node">
<title>a11</title>
<ellipse fill="none" stroke="#ff4a11" cx="125" cy="-88" rx="18" ry="18"/>
<text text-anchor="start" x="112.5" y="-86.2" font-family="Helvetica,sans-Serif" font-size="11.00">a</text>
<text text-anchor="start" x="119.5" y="-86.2" font-family="Helvetica,sans-Serif" baseline-shift="sub" font-size="11.00">2</text>
<text text-anchor="start" x="125.5" y="-86.2" font-family="Helvetica,sans-Serif" baseline-shift="super" font-size="11.00">(1)</text>
</g>
<!-- x0&#45;&gt;a11 -->
<g id="edge1" class="edge">
<title>x0&#45;&gt;a11</title>
<path fill="none" stroke="lightgrey" d="M55.73,-175.78C72.49,-154.23 98.59,-120.67 113.18,-101.91"/>
<polygon fill="lightgrey" stroke="lightgrey" points="53.93,-174.1 51.57,-181.13 57.8,-177.11 53.93,-174.1"/>
</g>
<!-- a21 -->
<g id="node7" class="node">
<title>a21</title>
<ellipse fill="none" stroke="#ff4a11" cx="125" cy="-34" rx="18" ry="18"/>
<text text-anchor="start" x="112.5" y="-32.2" font-family="Helvetica,sans-Serif" font-size="11.00">a</text>
<text text-anchor="start" x="119.5" y="-32.2" font-family="Helvetica,sans-Serif" baseline-shift="sub" font-size="11.00">3</text>
<text text-anchor="start" x="125.5" y="-32.2" font-family="Helvetica,sans-Serif" baseline-shift="super" font-size="11.00">(1)</text>
</g>
<!-- x0&#45;&gt;a21 -->
<g id="edge2" class="edge">
<title>x0&#45;&gt;a21</title>
<path fill="none" stroke="lightgrey" d="M52.1,-172.67C69.48,-139.15 101.05,-78.27 115.88,-49.65"/>
<polygon fill="lightgrey" stroke="lightgrey" points="49.95,-171.49 48.9,-178.83 54.3,-173.74 49.95,-171.49"/>
</g>
<!-- a31 -->
<g id="node8" class="node">
<title>a31</title>
<ellipse fill="none" stroke="#ff4a11" cx="125" cy="-142" rx="18" ry="18"/>
<text text-anchor="start" x="112.5" y="-140.2" font-family="Helvetica,sans-Serif" font-size="11.00">a</text>
<text text-anchor="start" x="119.5" y="-140.2" font-family="Helvetica,sans-Serif" baseline-shift="sub" font-size="11.00">1</text>
<text text-anchor="start" x="125.5" y="-140.2" font-family="Helvetica,sans-Serif" baseline-shift="super" font-size="11.00">(1)</text>
</g>
<!-- x0&#45;&gt;a31 -->
<g id="edge3" class="edge">
<title>x0&#45;&gt;a31</title>
<path fill="none" stroke="lightgrey" d="M61.56,-182.14C76.52,-172.52 96.05,-159.97 109.25,-151.48"/>
<polygon fill="lightgrey" stroke="lightgrey" points="60.47,-179.93 55.9,-185.78 63.12,-184.05 60.47,-179.93"/>
</g>
<!-- x1 -->
<g id="node2" class="node">
<title>x1</title>
<ellipse fill="none" stroke="black" cx="39" cy="-142" rx="18" ry="18"/>
<text text-anchor="start" x="32" y="-139.3" font-family="Helvetica,sans-Serif" font-size="14.00">x</text>
<text text-anchor="start" x="39" y="-139.3" font-family="Helvetica,sans-Serif" baseline-shift="sub" font-size="14.00">1</text>
</g>
<!-- x1&#45;&gt;a11 -->
<g id="edge4" class="edge">
<title>x1&#45;&gt;a11</title>
<path fill="none" stroke="lightgrey" d="M61.56,-128.14C76.52,-118.52 96.05,-105.97 109.25,-97.48"/>
<polygon fill="lightgrey" stroke="lightgrey" points="60.47,-125.93 55.9,-131.78 63.12,-130.05 60.47,-125.93"/>
</g>
<!-- x1&#45;&gt;a21 -->
<g id="edge5" class="edge">
<title>x1&#45;&gt;a21</title>
<path fill="none" stroke="lightgrey" d="M55.73,-121.78C72.49,-100.23 98.59,-66.67 113.18,-47.91"/>
<polygon fill="lightgrey" stroke="lightgrey" points="53.93,-120.1 51.57,-127.13 57.8,-123.11 53.93,-120.1"/>
</g>
<!-- x1&#45;&gt;a31 -->
<g id="edge6" class="edge">
<title>x1&#45;&gt;a31</title>
<path fill="none" stroke="lightgrey" d="M65.69,-142C78.95,-142 94.8,-142 106.62,-142"/>
<polygon fill="lightgrey" stroke="lightgrey" points="65.92,-139.55 58.92,-142 65.92,-144.45 65.92,-139.55"/>
</g>
<!-- x2 -->
<g id="node3" class="node">
<title>x2</title>
<ellipse fill="none" stroke="black" cx="39" cy="-88" rx="18" ry="18"/>
<text text-anchor="start" x="32" y="-85.3" font-family="Helvetica,sans-Serif" font-size="14.00">x</text>
<text text-anchor="start" x="39" y="-85.3" font-family="Helvetica,sans-Serif" baseline-shift="sub" font-size="14.00">2</text>
</g>
<!-- x2&#45;&gt;a11 -->
<g id="edge7" class="edge">
<title>x2&#45;&gt;a11</title>
<path fill="none" stroke="lightgrey" d="M65.69,-88C78.95,-88 94.8,-88 106.62,-88"/>
<polygon fill="lightgrey" stroke="lightgrey" points="65.92,-85.55 58.92,-88 65.92,-90.45 65.92,-85.55"/>
</g>
<!-- x2&#45;&gt;a21 -->
<g id="edge8" class="edge">
<title>x2&#45;&gt;a21</title>
<path fill="none" stroke="lightgrey" d="M61.56,-74.14C76.52,-64.52 96.05,-51.97 109.25,-43.48"/>
<polygon fill="lightgrey" stroke="lightgrey" points="60.47,-71.93 55.9,-77.78 63.12,-76.05 60.47,-71.93"/>
</g>
<!-- x2&#45;&gt;a31 -->
<g id="edge9" class="edge">
<title>x2&#45;&gt;a31</title>
<path fill="none" stroke="lightgrey" d="M61.56,-101.86C76.52,-111.48 96.05,-124.03 109.25,-132.52"/>
<polygon fill="lightgrey" stroke="lightgrey" points="63.12,-99.95 55.9,-98.22 60.47,-104.07 63.12,-99.95"/>
</g>
<!-- x3 -->
<g id="node4" class="node">
<title>x3</title>
<ellipse fill="none" stroke="black" cx="39" cy="-34" rx="18" ry="18"/>
<text text-anchor="start" x="32" y="-31.3" font-family="Helvetica,sans-Serif" font-size="14.00">x</text>
<text text-anchor="start" x="39" y="-31.3" font-family="Helvetica,sans-Serif" baseline-shift="sub" font-size="14.00">3</text>
</g>
<!-- x3&#45;&gt;a11 -->
<g id="edge10" class="edge">
<title>x3&#45;&gt;a11</title>
<path fill="none" stroke="lightgrey" d="M61.56,-47.86C76.52,-57.48 96.05,-70.03 109.25,-78.52"/>
<polygon fill="lightgrey" stroke="lightgrey" points="63.12,-45.95 55.9,-44.22 60.47,-50.07 63.12,-45.95"/>
</g>
<!-- x3&#45;&gt;a21 -->
<g id="edge11" class="edge">
<title>x3&#45;&gt;a21</title>
<path fill="none" stroke="lightgrey" d="M65.69,-34C78.95,-34 94.8,-34 106.62,-34"/>
<polygon fill="lightgrey" stroke="lightgrey" points="65.92,-31.55 58.92,-34 65.92,-36.45 65.92,-31.55"/>
</g>
<!-- x3&#45;&gt;a31 -->
<g id="edge12" class="edge">
<title>x3&#45;&gt;a31</title>
<path fill="none" stroke="lightgrey" d="M55.73,-54.22C72.49,-75.77 98.59,-109.33 113.18,-128.09"/>
<polygon fill="lightgrey" stroke="lightgrey" points="57.8,-52.89 51.57,-48.87 53.93,-55.9 57.8,-52.89"/>
</g>
<!-- a01 -->
<g id="node5" class="node">
<title>a01</title>
<ellipse fill="none" stroke="#ff4a11" cx="125" cy="-196" rx="18" ry="18"/>
<text text-anchor="start" x="115.5" y="-194.2" font-family="Helvetica,sans-Serif" font-size="11.00">b</text>
<text text-anchor="start" x="122.5" y="-194.2" font-family="Helvetica,sans-Serif" baseline-shift="super" font-size="11.00">(2)</text>
</g>
<!-- a12 -->
<g id="node10" class="node">
<title>a12</title>
<ellipse fill="none" stroke="#ff4a11" cx="197" cy="-88" rx="18" ry="18"/>
<text text-anchor="start" x="184.5" y="-86.2" font-family="Helvetica,sans-Serif" font-size="11.00">a</text>
<text text-anchor="start" x="191.5" y="-86.2" font-family="Helvetica,sans-Serif" baseline-shift="sub" font-size="11.00">2</text>
<text text-anchor="start" x="197.5" y="-86.2" font-family="Helvetica,sans-Serif" baseline-shift="super" font-size="11.00">(2)</text>
</g>
<!-- a01&#45;&gt;a12 -->
<g id="edge13" class="edge">
<title>a01&#45;&gt;a12</title>
<path fill="none" stroke="lightgrey" d="M140.29,-173.95C154.03,-152.75 174.43,-121.29 186.35,-102.89"/>
<polygon fill="lightgrey" stroke="lightgrey" points="138.31,-172.51 136.56,-179.71 142.42,-175.17 138.31,-172.51"/>
</g>
<!-- a22 -->
<g id="node11" class="node">
<title>a22</title>
<ellipse fill="none" stroke="#ff4a11" cx="197" cy="-34" rx="18" ry="18"/>
<text text-anchor="start" x="184.5" y="-32.2" font-family="Helvetica,sans-Serif" font-size="11.00">a</text>
<text text-anchor="start" x="191.5" y="-32.2" font-family="Helvetica,sans-Serif" baseline-shift="sub" font-size="11.00">3</text>
<text text-anchor="start" x="197.5" y="-32.2" font-family="Helvetica,sans-Serif" baseline-shift="super" font-size="11.00">(2)</text>
</g>
<!-- a01&#45;&gt;a22 -->
<g id="edge14" class="edge">
<title>a01&#45;&gt;a22</title>
<path fill="none" stroke="lightgrey" d="M136.33,-172.1C150.72,-138.78 176.45,-79.24 188.88,-50.47"/>
<polygon fill="lightgrey" stroke="lightgrey" points="134.23,-170.79 133.7,-178.19 138.72,-172.73 134.23,-170.79"/>
</g>
<!-- a32 -->
<g id="node12" class="node">
<title>a32</title>
<ellipse fill="none" stroke="#ff4a11" cx="197" cy="-142" rx="18" ry="18"/>
<text text-anchor="start" x="184.5" y="-140.2" font-family="Helvetica,sans-Serif" font-size="11.00">a</text>
<text text-anchor="start" x="191.5" y="-140.2" font-family="Helvetica,sans-Serif" baseline-shift="sub" font-size="11.00">1</text>
<text text-anchor="start" x="197.5" y="-140.2" font-family="Helvetica,sans-Serif" baseline-shift="super" font-size="11.00">(2)</text>
</g>
<!-- a01&#45;&gt;a32 -->
<g id="edge15" class="edge">
<title>a01&#45;&gt;a32</title>
<path fill="none" stroke="lightgrey" d="M146.27,-180.36C157.8,-171.47 171.95,-160.55 182.2,-152.65"/>
<polygon fill="lightgrey" stroke="lightgrey" points="145.07,-178.19 141.03,-184.41 148.07,-182.07 145.07,-178.19"/>
</g>
<!-- a11&#45;&gt;a12 -->
<g id="edge16" class="edge">
<title>a11&#45;&gt;a12</title>
<path fill="none" stroke="lightgrey" d="M151.64,-88C160.72,-88 170.7,-88 178.9,-88"/>
<polygon fill="lightgrey" stroke="lightgrey" points="151.82,-85.55 144.82,-88 151.82,-90.45 151.82,-85.55"/>
</g>
<!-- a11&#45;&gt;a22 -->
<g id="edge17" class="edge">
<title>a11&#45;&gt;a22</title>
<path fill="none" stroke="lightgrey" d="M146.27,-72.36C157.8,-63.47 171.95,-52.55 182.2,-44.65"/>
<polygon fill="lightgrey" stroke="lightgrey" points="145.07,-70.19 141.03,-76.41 148.07,-74.07 145.07,-70.19"/>
</g>
<!-- a11&#45;&gt;a32 -->
<g id="edge18" class="edge">
<title>a11&#45;&gt;a32</title>
<path fill="none" stroke="lightgrey" d="M146.27,-103.64C157.8,-112.53 171.95,-123.45 182.2,-131.35"/>
<polygon fill="lightgrey" stroke="lightgrey" points="148.07,-101.93 141.03,-99.59 145.07,-105.81 148.07,-101.93"/>
</g>
<!-- a21&#45;&gt;a12 -->
<g id="edge19" class="edge">
<title>a21&#45;&gt;a12</title>
<path fill="none" stroke="lightgrey" d="M146.27,-49.64C157.8,-58.53 171.95,-69.45 182.2,-77.35"/>
<polygon fill="lightgrey" stroke="lightgrey" points="148.07,-47.93 141.03,-45.59 145.07,-51.81 148.07,-47.93"/>
</g>
<!-- a21&#45;&gt;a22 -->
<g id="edge20" class="edge">
<title>a21&#45;&gt;a22</title>
<path fill="none" stroke="lightgrey" d="M151.64,-34C160.72,-34 170.7,-34 178.9,-34"/>
<polygon fill="lightgrey" stroke="lightgrey" points="151.82,-31.55 144.82,-34 151.82,-36.45 151.82,-31.55"/>
</g>
<!-- a21&#45;&gt;a32 -->
<g id="edge21" class="edge">
<title>a21&#45;&gt;a32</title>
<path fill="none" stroke="lightgrey" d="M140.29,-56.05C154.03,-77.25 174.43,-108.71 186.35,-127.11"/>
<polygon fill="lightgrey" stroke="lightgrey" points="142.42,-54.83 136.56,-50.29 138.31,-57.49 142.42,-54.83"/>
</g>
<!-- a31&#45;&gt;a12 -->
<g id="edge22" class="edge">
<title>a31&#45;&gt;a12</title>
<path fill="none" stroke="lightgrey" d="M146.27,-126.36C157.8,-117.47 171.95,-106.55 182.2,-98.65"/>
<polygon fill="lightgrey" stroke="lightgrey" points="145.07,-124.19 141.03,-130.41 148.07,-128.07 145.07,-124.19"/>
</g>
<!-- a31&#45;&gt;a22 -->
<g id="edge23" class="edge">
<title>a31&#45;&gt;a22</title>
<path fill="none" stroke="lightgrey" d="M140.29,-119.95C154.03,-98.75 174.43,-67.29 186.35,-48.89"/>
<polygon fill="lightgrey" stroke="lightgrey" points="138.31,-118.51 136.56,-125.71 142.42,-121.17 138.31,-118.51"/>
</g>
<!-- a31&#45;&gt;a32 -->
<g id="edge24" class="edge">
<title>a31&#45;&gt;a32</title>
<path fill="none" stroke="lightgrey" d="M151.64,-142C160.72,-142 170.7,-142 178.9,-142"/>
<polygon fill="lightgrey" stroke="lightgrey" points="151.82,-139.55 144.82,-142 151.82,-144.45 151.82,-139.55"/>
</g>
<!-- a02 -->
<g id="node9" class="node">
<title>a02</title>
<ellipse fill="none" stroke="#ff4a11" cx="197" cy="-196" rx="18" ry="18"/>
<text text-anchor="start" x="187.5" y="-194.2" font-family="Helvetica,sans-Serif" font-size="11.00">b</text>
<text text-anchor="start" x="194.5" y="-194.2" font-family="Helvetica,sans-Serif" baseline-shift="super" font-size="11.00">(3)</text>
</g>
<!-- a13 -->
<g id="node14" class="node">
<title>a13</title>
<ellipse fill="none" stroke="#ff4a11" cx="269" cy="-88" rx="18" ry="18"/>
<text text-anchor="start" x="256.5" y="-86.2" font-family="Helvetica,sans-Serif" font-size="11.00">a</text>
<text text-anchor="start" x="263.5" y="-86.2" font-family="Helvetica,sans-Serif" baseline-shift="sub" font-size="11.00">2</text>
<text text-anchor="start" x="269.5" y="-86.2" font-family="Helvetica,sans-Serif" baseline-shift="super" font-size="11.00">(3)</text>
</g>
<!-- a02&#45;&gt;a13 -->
<g id="edge25" class="edge">
<title>a02&#45;&gt;a13</title>
<path fill="none" stroke="lightgrey" d="M212.29,-173.95C226.03,-152.75 246.43,-121.29 258.35,-102.89"/>
<polygon fill="lightgrey" stroke="lightgrey" points="210.31,-172.51 208.56,-179.71 214.42,-175.17 210.31,-172.51"/>
</g>
<!-- a23 -->
<g id="node15" class="node">
<title>a23</title>
<ellipse fill="none" stroke="#ff4a11" cx="269" cy="-34" rx="18" ry="18"/>
<text text-anchor="start" x="256.5" y="-32.2" font-family="Helvetica,sans-Serif" font-size="11.00">a</text>
<text text-anchor="start" x="263.5" y="-32.2" font-family="Helvetica,sans-Serif" baseline-shift="sub" font-size="11.00">3</text>
<text text-anchor="start" x="269.5" y="-32.2" font-family="Helvetica,sans-Serif" baseline-shift="super" font-size="11.00">(3)</text>
</g>
<!-- a02&#45;&gt;a23 -->
<g id="edge26" class="edge">
<title>a02&#45;&gt;a23</title>
<path fill="none" stroke="lightgrey" d="M208.33,-172.1C222.72,-138.78 248.45,-79.24 260.88,-50.47"/>
<polygon fill="lightgrey" stroke="lightgrey" points="206.23,-170.79 205.7,-178.19 210.72,-172.73 206.23,-170.79"/>
</g>
<!-- a33 -->
<g id="node16" class="node">
<title>a33</title>
<ellipse fill="none" stroke="#ff4a11" cx="269" cy="-142" rx="18" ry="18"/>
<text text-anchor="start" x="256.5" y="-140.2" font-family="Helvetica,sans-Serif" font-size="11.00">a</text>
<text text-anchor="start" x="263.5" y="-140.2" font-family="Helvetica,sans-Serif" baseline-shift="sub" font-size="11.00">1</text>
<text text-anchor="start" x="269.5" y="-140.2" font-family="Helvetica,sans-Serif" baseline-shift="super" font-size="11.00">(3)</text>
</g>
<!-- a02&#45;&gt;a33 -->
<g id="edge27" class="edge">
<title>a02&#45;&gt;a33</title>
<path fill="none" stroke="lightgrey" d="M218.27,-180.36C229.8,-171.47 243.95,-160.55 254.2,-152.65"/>
<polygon fill="lightgrey" stroke="lightgrey" points="217.07,-178.19 213.03,-184.41 220.07,-182.07 217.07,-178.19"/>
</g>
<!-- a12&#45;&gt;a13 -->
<g id="edge28" class="edge">
<title>a12&#45;&gt;a13</title>
<path fill="none" stroke="lightgrey" d="M223.64,-88C232.72,-88 242.7,-88 250.9,-88"/>
<polygon fill="lightgrey" stroke="lightgrey" points="223.82,-85.55 216.82,-88 223.82,-90.45 223.82,-85.55"/>
</g>
<!-- a12&#45;&gt;a23 -->
<g id="edge29" class="edge">
<title>a12&#45;&gt;a23</title>
<path fill="none" stroke="lightgrey" d="M218.27,-72.36C229.8,-63.47 243.95,-52.55 254.2,-44.65"/>
<polygon fill="lightgrey" stroke="lightgrey" points="217.07,-70.19 213.03,-76.41 220.07,-74.07 217.07,-70.19"/>
</g>
<!-- a12&#45;&gt;a33 -->
<g id="edge30" class="edge">
<title>a12&#45;&gt;a33</title>
<path fill="none" stroke="lightgrey" d="M218.27,-103.64C229.8,-112.53 243.95,-123.45 254.2,-131.35"/>
<polygon fill="lightgrey" stroke="lightgrey" points="220.07,-101.93 213.03,-99.59 217.07,-105.81 220.07,-101.93"/>
</g>
<!-- a22&#45;&gt;a13 -->
<g id="edge31" class="edge">
<title>a22&#45;&gt;a13</title>
<path fill="none" stroke="lightgrey" d="M218.27,-49.64C229.8,-58.53 243.95,-69.45 254.2,-77.35"/>
<polygon fill="lightgrey" stroke="lightgrey" points="220.07,-47.93 213.03,-45.59 217.07,-51.81 220.07,-47.93"/>
</g>
<!-- a22&#45;&gt;a23 -->
<g id="edge32" class="edge">
<title>a22&#45;&gt;a23</title>
<path fill="none" stroke="lightgrey" d="M223.64,-34C232.72,-34 242.7,-34 250.9,-34"/>
<polygon fill="lightgrey" stroke="lightgrey" points="223.82,-31.55 216.82,-34 223.82,-36.45 223.82,-31.55"/>
</g>
<!-- a22&#45;&gt;a33 -->
<g id="edge33" class="edge">
<title>a22&#45;&gt;a33</title>
<path fill="none" stroke="lightgrey" d="M212.29,-56.05C226.03,-77.25 246.43,-108.71 258.35,-127.11"/>
<polygon fill="lightgrey" stroke="lightgrey" points="214.42,-54.83 208.56,-50.29 210.31,-57.49 214.42,-54.83"/>
</g>
<!-- a32&#45;&gt;a13 -->
<g id="edge34" class="edge">
<title>a32&#45;&gt;a13</title>
<path fill="none" stroke="lightgrey" d="M218.27,-126.36C229.8,-117.47 243.95,-106.55 254.2,-98.65"/>
<polygon fill="lightgrey" stroke="lightgrey" points="217.07,-124.19 213.03,-130.41 220.07,-128.07 217.07,-124.19"/>
</g>
<!-- a32&#45;&gt;a23 -->
<g id="edge35" class="edge">
<title>a32&#45;&gt;a23</title>
<path fill="none" stroke="lightgrey" d="M212.29,-119.95C226.03,-98.75 246.43,-67.29 258.35,-48.89"/>
<polygon fill="lightgrey" stroke="lightgrey" points="210.31,-118.51 208.56,-125.71 214.42,-121.17 210.31,-118.51"/>
</g>
<!-- a32&#45;&gt;a33 -->
<g id="edge36" class="edge">
<title>a32&#45;&gt;a33</title>
<path fill="none" stroke="lightgrey" d="M223.64,-142C232.72,-142 242.7,-142 250.9,-142"/>
<polygon fill="lightgrey" stroke="lightgrey" points="223.82,-139.55 216.82,-142 223.82,-144.45 223.82,-139.55"/>
</g>
<!-- a03 -->
<g id="node13" class="node">
<title>a03</title>
<ellipse fill="none" stroke="#ff4a11" cx="269" cy="-196" rx="18" ry="18"/>
<text text-anchor="start" x="259.5" y="-194.2" font-family="Helvetica,sans-Serif" font-size="11.00">b</text>
<text text-anchor="start" x="266.5" y="-194.2" font-family="Helvetica,sans-Serif" baseline-shift="super" font-size="11.00">(4)</text>
</g>
<!-- a14 -->
<g id="node18" class="node">
<title>a14</title>
<ellipse fill="none" stroke="#ff4a11" cx="341" cy="-142" rx="18" ry="18"/>
<text text-anchor="start" x="328.5" y="-140.2" font-family="Helvetica,sans-Serif" font-size="11.00">a</text>
<text text-anchor="start" x="335.5" y="-140.2" font-family="Helvetica,sans-Serif" baseline-shift="sub" font-size="11.00">1</text>
<text text-anchor="start" x="341.5" y="-140.2" font-family="Helvetica,sans-Serif" baseline-shift="super" font-size="11.00">(4)</text>
</g>
<!-- a03&#45;&gt;a14 -->
<g id="edge37" class="edge">
<title>a03&#45;&gt;a14</title>
<path fill="none" stroke="lightgrey" d="M290.27,-180.36C301.8,-171.47 315.95,-160.55 326.2,-152.65"/>
<polygon fill="lightgrey" stroke="lightgrey" points="289.07,-178.19 285.03,-184.41 292.07,-182.07 289.07,-178.19"/>
</g>
<!-- a24 -->
<g id="node19" class="node">
<title>a24</title>
<ellipse fill="none" stroke="#ff4a11" cx="341" cy="-88" rx="18" ry="18"/>
<text text-anchor="start" x="328.5" y="-86.2" font-family="Helvetica,sans-Serif" font-size="11.00">a</text>
<text text-anchor="start" x="335.5" y="-86.2" font-family="Helvetica,sans-Serif" baseline-shift="sub" font-size="11.00">2</text>
<text text-anchor="start" x="341.5" y="-86.2" font-family="Helvetica,sans-Serif" baseline-shift="super" font-size="11.00">(4)</text>
</g>
<!-- a03&#45;&gt;a24 -->
<g id="edge38" class="edge">
<title>a03&#45;&gt;a24</title>
<path fill="none" stroke="lightgrey" d="M284.29,-173.95C298.03,-152.75 318.43,-121.29 330.35,-102.89"/>
<polygon fill="lightgrey" stroke="lightgrey" points="282.31,-172.51 280.56,-179.71 286.42,-175.17 282.31,-172.51"/>
</g>
<!-- a34 -->
<g id="node20" class="node">
<title>a34</title>
<ellipse fill="none" stroke="#ff4a11" cx="341" cy="-34" rx="18" ry="18"/>
<text text-anchor="start" x="328.5" y="-32.2" font-family="Helvetica,sans-Serif" font-size="11.00">a</text>
<text text-anchor="start" x="335.5" y="-32.2" font-family="Helvetica,sans-Serif" baseline-shift="sub" font-size="11.00">3</text>
<text text-anchor="start" x="341.5" y="-32.2" font-family="Helvetica,sans-Serif" baseline-shift="super" font-size="11.00">(4)</text>
</g>
<!-- a03&#45;&gt;a34 -->
<g id="edge39" class="edge">
<title>a03&#45;&gt;a34</title>
<path fill="none" stroke="lightgrey" d="M280.33,-172.1C294.72,-138.78 320.45,-79.24 332.88,-50.47"/>
<polygon fill="lightgrey" stroke="lightgrey" points="278.23,-170.79 277.7,-178.19 282.72,-172.73 278.23,-170.79"/>
</g>
<!-- a13&#45;&gt;a14 -->
<g id="edge40" class="edge">
<title>a13&#45;&gt;a14</title>
<path fill="none" stroke="lightgrey" d="M290.27,-103.64C301.8,-112.53 315.95,-123.45 326.2,-131.35"/>
<polygon fill="lightgrey" stroke="lightgrey" points="292.07,-101.93 285.03,-99.59 289.07,-105.81 292.07,-101.93"/>
</g>
<!-- a13&#45;&gt;a24 -->
<g id="edge41" class="edge">
<title>a13&#45;&gt;a24</title>
<path fill="none" stroke="lightgrey" d="M295.64,-88C304.72,-88 314.7,-88 322.9,-88"/>
<polygon fill="lightgrey" stroke="lightgrey" points="295.82,-85.55 288.82,-88 295.82,-90.45 295.82,-85.55"/>
</g>
<!-- a13&#45;&gt;a34 -->
<g id="edge42" class="edge">
<title>a13&#45;&gt;a34</title>
<path fill="none" stroke="lightgrey" d="M290.27,-72.36C301.8,-63.47 315.95,-52.55 326.2,-44.65"/>
<polygon fill="lightgrey" stroke="lightgrey" points="289.07,-70.19 285.03,-76.41 292.07,-74.07 289.07,-70.19"/>
</g>
<!-- a23&#45;&gt;a14 -->
<g id="edge43" class="edge">
<title>a23&#45;&gt;a14</title>
<path fill="none" stroke="lightgrey" d="M284.29,-56.05C298.03,-77.25 318.43,-108.71 330.35,-127.11"/>
<polygon fill="lightgrey" stroke="lightgrey" points="286.42,-54.83 280.56,-50.29 282.31,-57.49 286.42,-54.83"/>
</g>
<!-- a23&#45;&gt;a24 -->
<g id="edge44" class="edge">
<title>a23&#45;&gt;a24</title>
<path fill="none" stroke="lightgrey" d="M290.27,-49.64C301.8,-58.53 315.95,-69.45 326.2,-77.35"/>
<polygon fill="lightgrey" stroke="lightgrey" points="292.07,-47.93 285.03,-45.59 289.07,-51.81 292.07,-47.93"/>
</g>
<!-- a23&#45;&gt;a34 -->
<g id="edge45" class="edge">
<title>a23&#45;&gt;a34</title>
<path fill="none" stroke="lightgrey" d="M295.64,-34C304.72,-34 314.7,-34 322.9,-34"/>
<polygon fill="lightgrey" stroke="lightgrey" points="295.82,-31.55 288.82,-34 295.82,-36.45 295.82,-31.55"/>
</g>
<!-- a33&#45;&gt;a14 -->
<g id="edge46" class="edge">
<title>a33&#45;&gt;a14</title>
<path fill="none" stroke="lightgrey" d="M295.64,-142C304.72,-142 314.7,-142 322.9,-142"/>
<polygon fill="lightgrey" stroke="lightgrey" points="295.82,-139.55 288.82,-142 295.82,-144.45 295.82,-139.55"/>
</g>
<!-- a33&#45;&gt;a24 -->
<g id="edge47" class="edge">
<title>a33&#45;&gt;a24</title>
<path fill="none" stroke="lightgrey" d="M290.27,-126.36C301.8,-117.47 315.95,-106.55 326.2,-98.65"/>
<polygon fill="lightgrey" stroke="lightgrey" points="289.07,-124.19 285.03,-130.41 292.07,-128.07 289.07,-124.19"/>
</g>
<!-- a33&#45;&gt;a34 -->
<g id="edge48" class="edge">
<title>a33&#45;&gt;a34</title>
<path fill="none" stroke="lightgrey" d="M284.29,-119.95C298.03,-98.75 318.43,-67.29 330.35,-48.89"/>
<polygon fill="lightgrey" stroke="lightgrey" points="282.31,-118.51 280.56,-125.71 286.42,-121.17 282.31,-118.51"/>
</g>
<!-- a04 -->
<g id="node17" class="node">
<title>a04</title>
<ellipse fill="none" stroke="#ff4a11" cx="341" cy="-196" rx="18" ry="18"/>
<text text-anchor="start" x="331.5" y="-194.2" font-family="Helvetica,sans-Serif" font-size="11.00">b</text>
<text text-anchor="start" x="338.5" y="-194.2" font-family="Helvetica,sans-Serif" baseline-shift="super" font-size="11.00">(5)</text>
</g>
<!-- a15 -->
<g id="node21" class="node">
<title>a15</title>
<ellipse fill="none" stroke="#ff4a11" cx="413" cy="-115" rx="18" ry="18"/>
<text text-anchor="start" x="400.5" y="-113.2" font-family="Helvetica,sans-Serif" font-size="11.00">a</text>
<text text-anchor="start" x="407.5" y="-113.2" font-family="Helvetica,sans-Serif" baseline-shift="sub" font-size="11.00">1</text>
<text text-anchor="start" x="413.5" y="-113.2" font-family="Helvetica,sans-Serif" baseline-shift="super" font-size="11.00">(5)</text>
</g>
<!-- a04&#45;&gt;a15 -->
<g id="edge49" class="edge">
<title>a04&#45;&gt;a15</title>
<path fill="none" stroke="lightgrey" d="M359.11,-176.2C371.95,-161.35 389.17,-141.42 400.42,-128.4"/>
<polygon fill="lightgrey" stroke="lightgrey" points="357.27,-174.58 354.55,-181.48 360.98,-177.78 357.27,-174.58"/>
</g>
<!-- a14&#45;&gt;a15 -->
<g id="edge50" class="edge">
<title>a14&#45;&gt;a15</title>
<path fill="none" stroke="lightgrey" d="M366.11,-132.7C375.94,-128.91 387.03,-124.63 395.85,-121.23"/>
<polygon fill="lightgrey" stroke="lightgrey" points="365.3,-130.39 359.65,-135.19 367.06,-134.96 365.3,-130.39"/>
</g>
<!-- a24&#45;&gt;a15 -->
<g id="edge51" class="edge">
<title>a24&#45;&gt;a15</title>
<path fill="none" stroke="lightgrey" d="M366.11,-97.3C375.94,-101.09 387.03,-105.37 395.85,-108.77"/>
<polygon fill="lightgrey" stroke="lightgrey" points="367.06,-95.04 359.65,-94.81 365.3,-99.61 367.06,-95.04"/>
</g>
<!-- a34&#45;&gt;a15 -->
<g id="edge52" class="edge">
<title>a34&#45;&gt;a15</title>
<path fill="none" stroke="lightgrey" d="M359.11,-53.8C371.95,-68.65 389.17,-88.58 400.42,-101.6"/>
<polygon fill="lightgrey" stroke="lightgrey" points="360.98,-52.22 354.55,-48.52 357.27,-55.42 360.98,-52.22"/>
</g>
<!-- O -->
<g id="node22" class="node">
<title>O</title>
<ellipse fill="none" stroke="none" cx="503" cy="-115" rx="36" ry="36"/>
<text text-anchor="middle" x="503" y="-118.8" font-family="Helvetica,sans-Serif" font-size="14.00">output </text>
<text text-anchor="middle" x="503" y="-103.8" font-family="Helvetica,sans-Serif" font-size="14.00"> &amp; error</text>
</g>
<!-- a15&#45;&gt;O -->
<g id="edge53" class="edge">
<title>a15&#45;&gt;O</title>
<path fill="none" stroke="lightgrey" d="M439.74,-115C448.21,-115 457.77,-115 466.81,-115"/>
<polygon fill="lightgrey" stroke="lightgrey" points="439.9,-112.55 432.9,-115 439.9,-117.45 439.9,-112.55"/>
</g>
</g>
</svg>