<?xml version="1.0" encoding="UTF-8" standalone="no"?>
<!DOCTYPE svg PUBLIC "-//W3C//DTD SVG 1.1//EN"
 "http://www.w3.org/Graphics/SVG/1.1/DTD/svg11.dtd">
<!-- Generated by graphviz version 7.1.0 (20230121.1956)
 -->
<!-- Title: G Pages: 1 -->
<svg width="563pt" height="261pt"
 viewBox="0.00 0.00 563.00 261.00" xmlns="http://www.w3.org/2000/svg" xmlns:xlink="http://www.w3.org/1999/xlink">
<g id="graph0" class="graph" transform="scale(1 1) rotate(0) translate(4 257)">
<title>G</title>
<polygon fill="white" stroke="none" points="-4,4 -4,-257 559,-257 559,4 -4,4"/>
<g id="clust1" class="cluster">
<title>cluster_0</title>
<polygon fill="none" stroke="white" points="0,-8 0,-245 79,-245 79,-8 0,-8"/>
<text text-anchor="start" x="8" y="-229.8" font-family="Helvetica,sans-Serif" font-size="14.00" fill="#ff4a11">input layer</text>
</g>
<g id="clust2" class="cluster">
<title>cluster_1</title>
<polygon fill="none" stroke="white" points="99,-8 99,-245 151,-245 151,-8 99,-8"/>
<text text-anchor="start" x="117" y="-229.8" font-family="Helvetica,sans-Serif" font-size="14.00" fill="#ff4a11">[1]</text>
</g>
<g id="clust3" class="cluster">
<title>cluster_2</title>
<polygon fill="none" stroke="white" points="171,-8 171,-245 223,-245 223,-8 171,-8"/>
<text text-anchor="start" x="189" y="-229.8" font-family="Helvetica,sans-Serif" font-size="14.00" fill="#ff4a11">[2]</text>
</g>
<g id="clust4" class="cluster">
<title>cluster_3</title>
<polygon fill="none" stroke="white" points="243,-8 243,-245 295,-245 295,-8 243,-8"/>
<text text-anchor="start" x="261" y="-229.8" font-family="Helvetica,sans-Serif" font-size="14.00" fill="#ff4a11">[3]</text>
</g>
<g id="clust5" class="cluster">
<title>cluster_4</title>
<polygon fill="none" stroke="white" points="315,-8 315,-245 367,-245 367,-8 315,-8"/>
<text text-anchor="start" x="333" y="-229.8" font-family="Helvetica,sans-Serif" font-size="14.00" fill="#ff4a11">[4]</text>
</g>
<g id="clust6" class="cluster">
<title>cluster_5</title>
<polygon fill="none" stroke="white" points="387,-89 387,-164 439,-164 439,-89 387,-89"/>
<text text-anchor="start" x="405" y="-148.8" font-family="Helvetica,sans-Serif" font-size="14.00" fill="#ff4a11">[5]</text>
</g>
<g id="clust7" class="cluster">
<title>cluster_6</title>
<polygon fill="none" stroke="white" points="459,-71 459,-159 547,-159 547,-71 459,-71"/>
</g>
<!-- x0 -->
<g id="node1" class="node">
<title>x0</title>
<ellipse fill="none" stroke="black" cx="39" cy="-196" rx="18" ry="18"/>
<text text-anchor="start" x="29.5" y="-194.2" font-family="Helvetica,sans-Serif" font-size="11.00">b</text>
<text text-anchor="start" x="36.5" y="-194.2" font-family="Helvetica,sans-Serif" baseline-shift="super" font-size="11.00">(1)</text>
</g>
<!-- a11 -->
<g id="node6" class="node">
<title>a11</title>
<ellipse fill="none" stroke="#ff4a11" cx="125" cy="-88" rx="18" ry="18"/>
<text text-anchor="start" x="112.5" y="-86.2" font-family="Helvetica,sans-Serif" font-size="11.00">a</text>
<text text-anchor="start" x="119.5" y="-86.2" font-family="Helvetica,sans-Serif" baseline-shift="sub" font-size="11.00">2</text>
<text text-anchor="start" x="125.5" y="-86.2" font-family="Helvetica,sans-Serif" baseline-shift="super" font-size="11.00">(1)</text>
</g>
<!-- x0&#45;&gt;a11 -->
<g id="edge1" class="edge">
<title>x0&#45;&gt;a11</title>
<path fill="none" stroke="lightgrey" d="M50.64,-182.32C65.14,-163.68 91.23,-130.14 108.07,-108.49"/>
<polygon fill="lightgrey" stroke="lightgrey" points="109.89,-110.13 112.25,-103.1 106.02,-107.12 109.89,-110.13"/>
</g>
<!-- a21 -->
<g id="node7" class="node">
<title>a21</title>
<ellipse fill="none" stroke="#ff4a11" cx="125" cy="-34" rx="18" ry="18"/>
<text text-anchor="start" x="112.5" y="-32.2" font-family="Helvetica,sans-Serif" font-size="11.00">a</text>
<text text-anchor="start" x="119.5" y="-32.2" font-family="Helvetica,sans-Serif" baseline-shift="sub" font-size="11.00">3</text>
<text text-anchor="start" x="125.5" y="-32.2" font-family="Helvetica,sans-Serif" baseline-shift="super" font-size="11.00">(1)</text>
</g>
<!-- x0&#45;&gt;a21 -->
<g id="edge2" class="edge">
<title>x0&#45;&gt;a21</title>
<path fill="none" stroke="lightgrey" d="M48.21,-180.17C63.11,-151.43 94.69,-90.53 112.01,-57.13"/>
<polygon fill="lightgrey" stroke="lightgrey" points="114.14,-58.34 115.19,-51 109.79,-56.08 114.14,-58.34"/>
</g>
<!-- a31 -->
<g id="node8" class="node">
<title>a31</title>
<ellipse fill="none" stroke="#ff4a11" cx="125" cy="-142" rx="18" ry="18"/>
<text text-anchor="start" x="112.5" y="-140.2" font-family="Helvetica,sans-Serif" font-size="11.00">a</text>
<text text-anchor="start" x="119.5" y="-140.2" font-family="Helvetica,sans-Serif" baseline-shift="sub" font-size="11.00">1</text>
<text text-anchor="start" x="125.5" y="-140.2" font-family="Helvetica,sans-Serif" baseline-shift="super" font-size="11.00">(1)</text>
</g>
<!-- x0&#45;&gt;a31 -->
<g id="edge3" class="edge">
<title>x0&#45;&gt;a31</title>
<path fill="none" stroke="lightgrey" d="M54.63,-186.59C67.8,-178.13 87.33,-165.58 102.31,-155.94"/>
<polygon fill="lightgrey" stroke="lightgrey" points="103.42,-158.14 107.98,-152.3 100.77,-154.02 103.42,-158.14"/>
</g>
<!-- x1 -->
<g id="node2" class="node">
<title>x1</title>
<ellipse fill="none" stroke="black" cx="39" cy="-142" rx="18" ry="18"/>
<text text-anchor="start" x="32" y="-139.3" font-family="Helvetica,sans-Serif" font-size="14.00">x</text>
<text text-anchor="start" x="39" y="-139.3" font-family="Helvetica,sans-Serif" baseline-shift="sub" font-size="14.00">1</text>
</g>
<!-- x1&#45;&gt;a11 -->
<g id="edge4" class="edge">
<title>x1&#45;&gt;a11</title>
<path fill="none" stroke="lightgrey" d="M54.63,-132.59C67.8,-124.13 87.33,-111.58 102.31,-101.94"/>
<polygon fill="lightgrey" stroke="lightgrey" points="103.42,-104.14 107.98,-98.3 100.77,-100.02 103.42,-104.14"/>
</g>
<!-- x1&#45;&gt;a21 -->
<g id="edge5" class="edge">
<title>x1&#45;&gt;a21</title>
<path fill="none" stroke="lightgrey" d="M50.64,-128.32C65.14,-109.68 91.23,-76.14 108.07,-54.49"/>
<polygon fill="lightgrey" stroke="lightgrey" points="109.89,-56.13 112.25,-49.1 106.02,-53.12 109.89,-56.13"/>
</g>
<!-- x1&#45;&gt;a31 -->
<g id="edge6" class="edge">
<title>x1&#45;&gt;a31</title>
<path fill="none" stroke="lightgrey" d="M57.4,-142C69.23,-142 85.07,-142 98.34,-142"/>
<polygon fill="lightgrey" stroke="lightgrey" points="98.1,-144.45 105.1,-142 98.1,-139.55 98.1,-144.45"/>
</g>
<!-- x2 -->
<g id="node3" class="node">
<title>x2</title>
<ellipse fill="none" stroke="black" cx="39" cy="-88" rx="18" ry="18"/>
<text text-anchor="start" x="32" y="-85.3" font-family="Helvetica,sans-Serif" font-size="14.00">x</text>
<text text-anchor="start" x="39" y="-85.3" font-family="Helvetica,sans-Serif" baseline-shift="sub" font-size="14.00">2</text>
</g>
<!-- x2&#45;&gt;a11 -->
<g id="edge7" class="edge">
<title>x2&#45;&gt;a11</title>
<path fill="none" stroke="lightgrey" d="M57.4,-88C69.23,-88 85.07,-88 98.34,-88"/>
<polygon fill="lightgrey" stroke="lightgrey" points="98.1,-90.45 105.1,-88 98.1,-85.55 98.1,-90.45"/>
</g>
<!-- x2&#45;&gt;a21 -->
<g id="edge8" class="edge">
<title>x2&#45;&gt;a21</title>
<path fill="none" stroke="lightgrey" d="M54.63,-78.59C67.8,-70.13 87.33,-57.58 102.31,-47.94"/>
<polygon fill="lightgrey" stroke="lightgrey" points="103.42,-50.14 107.98,-44.3 100.77,-46.02 103.42,-50.14"/>
</g>
<!-- x2&#45;&gt;a31 -->
<g id="edge9" class="edge">
<title>x2&#45;&gt;a31</title>
<path fill="none" stroke="lightgrey" d="M54.63,-97.41C67.8,-105.87 87.33,-118.42 102.31,-128.06"/>
<polygon fill="lightgrey" stroke="lightgrey" points="100.77,-129.98 107.98,-131.7 103.42,-125.86 100.77,-129.98"/>
</g>
<!-- x3 -->
<g id="node4" class="node">
<title>x3</title>
<ellipse fill="none" stroke="black" cx="39" cy="-34" rx="18" ry="18"/>
<text text-anchor="start" x="32" y="-31.3" font-family="Helvetica,sans-Serif" font-size="14.00">x</text>
<text text-anchor="start" x="39" y="-31.3" font-family="Helvetica,sans-Serif" baseline-shift="sub" font-size="14.00">3</text>
</g>
<!-- x3&#45;&gt;a11 -->
<g id="edge10" class="edge">
<title>x3&#45;&gt;a11</title>
<path fill="none" stroke="lightgrey" d="M54.63,-43.41C67.8,-51.87 87.33,-64.42 102.31,-74.06"/>
<polygon fill="lightgrey" stroke="lightgrey" points="100.77,-75.98 107.98,-77.7 103.42,-71.86 100.77,-75.98"/>
</g>
<!-- x3&#45;&gt;a21 -->
<g id="edge11" class="edge">
<title>x3&#45;&gt;a21</title>
<path fill="none" stroke="lightgrey" d="M57.4,-34C69.23,-34 85.07,-34 98.34,-34"/>
<polygon fill="lightgrey" stroke="lightgrey" points="98.1,-36.45 105.1,-34 98.1,-31.55 98.1,-36.45"/>
</g>
<!-- x3&#45;&gt;a31 -->
<g id="edge12" class="edge">
<title>x3&#45;&gt;a31</title>
<path fill="none" stroke="lightgrey" d="M50.64,-47.68C65.14,-66.32 91.23,-99.86 108.07,-121.51"/>
<polygon fill="lightgrey" stroke="lightgrey" points="106.02,-122.88 112.25,-126.9 109.89,-119.87 106.02,-122.88"/>
</g>
<!-- a01 -->
<g id="node5" class="node">
<title>a01</title>
<ellipse fill="none" stroke="#ff4a11" cx="125" cy="-196" rx="18" ry="18"/>
<text text-anchor="start" x="115.5" y="-194.2" font-family="Helvetica,sans-Serif" font-size="11.00">b</text>
<text text-anchor="start" x="122.5" y="-194.2" font-family="Helvetica,sans-Serif" baseline-shift="super" font-size="11.00">(2)</text>
</g>
<!-- a12 -->
<g id="node10" class="node">
<title>a12</title>
<ellipse fill="none" stroke="#ff4a11" cx="197" cy="-88" rx="18" ry="18"/>
<text text-anchor="start" x="184.5" y="-86.2" font-family="Helvetica,sans-Serif" font-size="11.00">a</text>
<text text-anchor="start" x="191.5" y="-86.2" font-family="Helvetica,sans-Serif" baseline-shift="sub" font-size="11.00">2</text>
<text text-anchor="start" x="197.5" y="-86.2" font-family="Helvetica,sans-Serif" baseline-shift="super" font-size="11.00">(2)</text>
</g>
<!-- a01&#45;&gt;a12 -->
<g id="edge13" class="edge">
<title>a01&#45;&gt;a12</title>
<path fill="none" stroke="lightgrey" d="M135.73,-180.98C147.7,-162.53 168.09,-131.06 181.8,-109.9"/>
<polygon fill="lightgrey" stroke="lightgrey" points="183.77,-111.37 185.53,-104.16 179.66,-108.7 183.77,-111.37"/>
</g>
<!-- a22 -->
<g id="node11" class="node">
<title>a22</title>
<ellipse fill="none" stroke="#ff4a11" cx="197" cy="-34" rx="18" ry="18"/>
<text text-anchor="start" x="184.5" y="-32.2" font-family="Helvetica,sans-Serif" font-size="11.00">a</text>
<text text-anchor="start" x="191.5" y="-32.2" font-family="Helvetica,sans-Serif" baseline-shift="sub" font-size="11.00">3</text>
<text text-anchor="start" x="197.5" y="-32.2" font-family="Helvetica,sans-Serif" baseline-shift="super" font-size="11.00">(2)</text>
</g>
<!-- a01&#45;&gt;a22 -->
<g id="edge14" class="edge">
<title>a01&#45;&gt;a22</title>
<path fill="none" stroke="lightgrey" d="M133.1,-179.58C145.52,-150.83 171.24,-91.3 185.65,-57.95"/>
<polygon fill="lightgrey" stroke="lightgrey" points="187.76,-59.26 188.28,-51.86 183.26,-57.31 187.76,-59.26"/>
</g>
<!-- a32 -->
<g id="node12" class="node">
<title>a32</title>
<ellipse fill="none" stroke="#ff4a11" cx="197" cy="-142" rx="18" ry="18"/>
<text text-anchor="start" x="184.5" y="-140.2" font-family="Helvetica,sans-Serif" font-size="11.00">a</text>
<text text-anchor="start" x="191.5" y="-140.2" font-family="Helvetica,sans-Serif" baseline-shift="sub" font-size="11.00">1</text>
<text text-anchor="start" x="197.5" y="-140.2" font-family="Helvetica,sans-Serif" baseline-shift="super" font-size="11.00">(2)</text>
</g>
<!-- a01&#45;&gt;a32 -->
<g id="edge15" class="edge">
<title>a01&#45;&gt;a32</title>
<path fill="none" stroke="lightgrey" d="M139.83,-185.33C150.09,-177.42 164.23,-166.51 175.76,-157.61"/>
<polygon fill="lightgrey" stroke="lightgrey" points="176.95,-159.79 181,-153.57 173.96,-155.91 176.95,-159.79"/>
</g>
<!-- a11&#45;&gt;a12 -->
<g id="edge16" class="edge">
<title>a11&#45;&gt;a12</title>
<path fill="none" stroke="lightgrey" d="M143.3,-88C151.53,-88 161.52,-88 170.58,-88"/>
<polygon fill="lightgrey" stroke="lightgrey" points="170.38,-90.45 177.38,-88 170.38,-85.55 170.38,-90.45"/>
</g>
<!-- a11&#45;&gt;a22 -->
<g id="edge17" class="edge">
<title>a11&#45;&gt;a22</title>
<path fill="none" stroke="lightgrey" d="M139.83,-77.33C150.09,-69.42 164.23,-58.51 175.76,-49.61"/>
<polygon fill="lightgrey" stroke="lightgrey" points="176.95,-51.79 181,-45.57 173.96,-47.91 176.95,-51.79"/>
</g>
<!-- a11&#45;&gt;a32 -->
<g id="edge18" class="edge">
<title>a11&#45;&gt;a32</title>
<path fill="none" stroke="lightgrey" d="M139.83,-98.67C150.09,-106.58 164.23,-117.49 175.76,-126.39"/>
<polygon fill="lightgrey" stroke="lightgrey" points="173.96,-128.09 181,-130.43 176.95,-124.21 173.96,-128.09"/>
</g>
<!-- a21&#45;&gt;a12 -->
<g id="edge19" class="edge">
<title>a21&#45;&gt;a12</title>
<path fill="none" stroke="lightgrey" d="M139.83,-44.67C150.09,-52.58 164.23,-63.49 175.76,-72.39"/>
<polygon fill="lightgrey" stroke="lightgrey" points="173.96,-74.09 181,-76.43 176.95,-70.21 173.96,-74.09"/>
</g>
<!-- a21&#45;&gt;a22 -->
<g id="edge20" class="edge">
<title>a21&#45;&gt;a22</title>
<path fill="none" stroke="lightgrey" d="M143.3,-34C151.53,-34 161.52,-34 170.58,-34"/>
<polygon fill="lightgrey" stroke="lightgrey" points="170.38,-36.45 177.38,-34 170.38,-31.55 170.38,-36.45"/>
</g>
<!-- a21&#45;&gt;a32 -->
<g id="edge21" class="edge">
<title>a21&#45;&gt;a32</title>
<path fill="none" stroke="lightgrey" d="M135.73,-49.02C147.7,-67.47 168.09,-98.94 181.8,-120.1"/>
<polygon fill="lightgrey" stroke="lightgrey" points="179.66,-121.3 185.53,-125.84 183.77,-118.63 179.66,-121.3"/>
</g>
<!-- a31&#45;&gt;a12 -->
<g id="edge22" class="edge">
<title>a31&#45;&gt;a12</title>
<path fill="none" stroke="lightgrey" d="M139.83,-131.33C150.09,-123.42 164.23,-112.51 175.76,-103.61"/>
<polygon fill="lightgrey" stroke="lightgrey" points="176.95,-105.79 181,-99.57 173.96,-101.91 176.95,-105.79"/>
</g>
<!-- a31&#45;&gt;a22 -->
<g id="edge23" class="edge">
<title>a31&#45;&gt;a22</title>
<path fill="none" stroke="lightgrey" d="M135.73,-126.98C147.7,-108.53 168.09,-77.06 181.8,-55.9"/>
<polygon fill="lightgrey" stroke="lightgrey" points="183.77,-57.37 185.53,-50.16 179.66,-54.7 183.77,-57.37"/>
</g>
<!-- a31&#45;&gt;a32 -->
<g id="edge24" class="edge">
<title>a31&#45;&gt;a32</title>
<path fill="none" stroke="lightgrey" d="M143.3,-142C151.53,-142 161.52,-142 170.58,-142"/>
<polygon fill="lightgrey" stroke="lightgrey" points="170.38,-144.45 177.38,-142 170.38,-139.55 170.38,-144.45"/>
</g>
<!-- a02 -->
<g id="node9" class="node">
<title>a02</title>
<ellipse fill="none" stroke="#ff4a11" cx="197" cy="-196" rx="18" ry="18"/>
<text text-anchor="start" x="187.5" y="-194.2" font-family="Helvetica,sans-Serif" font-size="11.00">b</text>
<text text-anchor="start" x="194.5" y="-194.2" font-family="Helvetica,sans-Serif" baseline-shift="super" font-size="11.00">(3)</text>
</g>
<!-- a13 -->
<g id="node14" class="node">
<title>a13</title>
<ellipse fill="none" stroke="#ff4a11" cx="269" cy="-88" rx="18" ry="18"/>
<text text-anchor="start" x="256.5" y="-86.2" font-family="Helvetica,sans-Serif" font-size="11.00">a</text>
<text text-anchor="start" x="263.5" y="-86.2" font-family="Helvetica,sans-Serif" baseline-shift="sub" font-size="11.00">2</text>
<text text-anchor="start" x="269.5" y="-86.2" font-family="Helvetica,sans-Serif" baseline-shift="super" font-size="11.00">(3)</text>
</g>
<!-- a02&#45;&gt;a13 -->
<g id="edge25" class="edge">
<title>a02&#45;&gt;a13</title>
<path fill="none" stroke="lightgrey" d="M207.73,-180.98C219.7,-162.53 240.09,-131.06 253.8,-109.9"/>
<polygon fill="lightgrey" stroke="lightgrey" points="255.77,-111.37 257.53,-104.16 251.66,-108.7 255.77,-111.37"/>
</g>
<!-- a23 -->
<g id="node15" class="node">
<title>a23</title>
<ellipse fill="none" stroke="#ff4a11" cx="269" cy="-34" rx="18" ry="18"/>
<text text-anchor="start" x="256.5" y="-32.2" font-family="Helvetica,sans-Serif" font-size="11.00">a</text>
<text text-anchor="start" x="263.5" y="-32.2" font-family="Helvetica,sans-Serif" baseline-shift="sub" font-size="11.00">3</text>
<text text-anchor="start" x="269.5" y="-32.2" font-family="Helvetica,sans-Serif" baseline-shift="super" font-size="11.00">(3)</text>
</g>
<!-- a02&#45;&gt;a23 -->
<g id="edge26" class="edge">
<title>a02&#45;&gt;a23</title>
<path fill="none" stroke="lightgrey" d="M205.1,-179.58C217.52,-150.83 243.24,-91.3 257.65,-57.95"/>
<polygon fill="lightgrey" stroke="lightgrey" points="259.76,-59.26 260.28,-51.86 255.26,-57.31 259.76,-59.26"/>
</g>
<!-- a33 -->
<g id="node16" class="node">
<title>a33</title>
<ellipse fill="none" stroke="#ff4a11" cx="269" cy="-142" rx="18" ry="18"/>
<text text-anchor="start" x="256.5" y="-140.2" font-family="Helvetica,sans-Serif" font-size="11.00">a</text>
<text text-anchor="start" x="263.5" y="-140.2" font-family="Helvetica,sans-Serif" baseline-shift="sub" font-size="11.00">1</text>
<text text-anchor="start" x="269.5" y="-140.2" font-family="Helvetica,sans-Serif" baseline-shift="super" font-size="11.00">(3)</text>
</g>
<!-- a02&#45;&gt;a33 -->
<g id="edge27" class="edge">
<title>a02&#45;&gt;a33</title>
<path fill="none" stroke="lightgrey" d="M211.83,-185.33C222.09,-177.42 236.23,-166.51 247.76,-157.61"/>
<polygon fill="lightgrey" stroke="lightgrey" points="248.95,-159.79 253,-153.57 245.96,-155.91 248.95,-159.79"/>
</g>
<!-- a12&#45;&gt;a13 -->
<g id="edge28" class="edge">
<title>a12&#45;&gt;a13</title>
<path fill="none" stroke="lightgrey" d="M215.3,-88C223.53,-88 233.52,-88 242.58,-88"/>
<polygon fill="lightgrey" stroke="lightgrey" points="242.38,-90.45 249.38,-88 242.38,-85.55 242.38,-90.45"/>
</g>
<!-- a12&#45;&gt;a23 -->
<g id="edge29" class="edge">
<title>a12&#45;&gt;a23</title>
<path fill="none" stroke="lightgrey" d="M211.83,-77.33C222.09,-69.42 236.23,-58.51 247.76,-49.61"/>
<polygon fill="lightgrey" stroke="lightgrey" points="248.95,-51.79 253,-45.57 245.96,-47.91 248.95,-51.79"/>
</g>
<!-- a12&#45;&gt;a33 -->
<g id="edge30" class="edge">
<title>a12&#45;&gt;a33</title>
<path fill="none" stroke="lightgrey" d="M211.83,-98.67C222.09,-106.58 236.23,-117.49 247.76,-126.39"/>
<polygon fill="lightgrey" stroke="lightgrey" points="245.96,-128.09 253,-130.43 248.95,-124.21 245.96,-128.09"/>
</g>
<!-- a22&#45;&gt;a13 -->
<g id="edge31" class="edge">
<title>a22&#45;&gt;a13</title>
<path fill="none" stroke="lightgrey" d="M211.83,-44.67C222.09,-52.58 236.23,-63.49 247.76,-72.39"/>
<polygon fill="lightgrey" stroke="lightgrey" points="245.96,-74.09 253,-76.43 248.95,-70.21 245.96,-74.09"/>
</g>
<!-- a22&#45;&gt;a23 -->
<g id="edge32" class="edge">
<title>a22&#45;&gt;a23</title>
<path fill="none" stroke="lightgrey" d="M215.3,-34C223.53,-34 233.52,-34 242.58,-34"/>
<polygon fill="lightgrey" stroke="lightgrey" points="242.38,-36.45 249.38,-34 242.38,-31.55 242.38,-36.45"/>
</g>
<!-- a22&#45;&gt;a33 -->
<g id="edge33" class="edge">
<title>a22&#45;&gt;a33</title>
<path fill="none" stroke="lightgrey" d="M207.73,-49.02C219.7,-67.47 240.09,-98.94 253.8,-120.1"/>
<polygon fill="lightgrey" stroke="lightgrey" points="251.66,-121.3 257.53,-125.84 255.77,-118.63 251.66,-121.3"/>
</g>
<!-- a32&#45;&gt;a13 -->
<g id="edge34" class="edge">
<title>a32&#45;&gt;a13</title>
<path fill="none" stroke="lightgrey" d="M211.83,-131.33C222.09,-123.42 236.23,-112.51 247.76,-103.61"/>
<polygon fill="lightgrey" stroke="lightgrey" points="248.95,-105.79 253,-99.57 245.96,-101.91 248.95,-105.79"/>
</g>
<!-- a32&#45;&gt;a23 -->
<g id="edge35" class="edge">
<title>a32&#45;&gt;a23</title>
<path fill="none" stroke="lightgrey" d="M207.73,-126.98C219.7,-108.53 240.09,-77.06 253.8,-55.9"/>
<polygon fill="lightgrey" stroke="lightgrey" points="255.77,-57.37 257.53,-50.16 251.66,-54.7 255.77,-57.37"/>
</g>
<!-- a32&#45;&gt;a33 -->
<g id="edge36" class="edge">
<title>a32&#45;&gt;a33</title>
<path fill="none" stroke="lightgrey" d="M215.3,-142C223.53,-142 233.52,-142 242.58,-142"/>
<polygon fill="lightgrey" stroke="lightgrey" points="242.38,-144.45 249.38,-142 242.38,-139.55 242.38,-144.45"/>
</g>
<!-- a03 -->
<g id="node13" class="node">
<title>a03</title>
<ellipse fill="none" stroke="#ff4a11" cx="269" cy="-196" rx="18" ry="18"/>
<text text-anchor="start" x="259.5" y="-194.2" font-family="Helvetica,sans-Serif" font-size="11.00">b</text>
<text text-anchor="start" x="266.5" y="-194.2" font-family="Helvetica,sans-Serif" baseline-shift="super" font-size="11.00">(4)</text>
</g>
<!-- a14 -->
<g id="node18" class="node">
<title>a14</title>
<ellipse fill="none" stroke="#ff4a11" cx="341" cy="-142" rx="18" ry="18"/>
<text text-anchor="start" x="328.5" y="-140.2" font-family="Helvetica,sans-Serif" font-size="11.00">a</text>
<text text-anchor="start" x="335.5" y="-140.2" font-family="Helvetica,sans-Serif" baseline-shift="sub" font-size="11.00">1</text>
<text text-anchor="start" x="341.5" y="-140.2" font-family="Helvetica,sans-Serif" baseline-shift="super" font-size="11.00">(4)</text>
</g>
<!-- a03&#45;&gt;a14 -->
<g id="edge37" class="edge">
<title>a03&#45;&gt;a14</title>
<path fill="none" stroke="lightgrey" d="M283.83,-185.33C294.09,-177.42 308.23,-166.51 319.76,-157.61"/>
<polygon fill="lightgrey" stroke="lightgrey" points="320.95,-159.79 325,-153.57 317.96,-155.91 320.95,-159.79"/>
</g>
<!-- a24 -->
<g id="node19" class="node">
<title>a24</title>
<ellipse fill="none" stroke="#ff4a11" cx="341" cy="-88" rx="18" ry="18"/>
<text text-anchor="start" x="328.5" y="-86.2" font-family="Helvetica,sans-Serif" font-size="11.00">a</text>
<text text-anchor="start" x="335.5" y="-86.2" font-family="Helvetica,sans-Serif" baseline-shift="sub" font-size="11.00">2</text>
<text text-anchor="start" x="341.5" y="-86.2" font-family="Helvetica,sans-Serif" baseline-shift="super" font-size="11.00">(4)</text>
</g>
<!-- a03&#45;&gt;a24 -->
<g id="edge38" class="edge">
<title>a03&#45;&gt;a24</title>
<path fill="none" stroke="lightgrey" d="M279.73,-180.98C291.7,-162.53 312.09,-131.06 325.8,-109.9"/>
<polygon fill="lightgrey" stroke="lightgrey" points="327.77,-111.37 329.53,-104.16 323.66,-108.7 327.77,-111.37"/>
</g>
<!-- a34 -->
<g id="node20" class="node">
<title>a34</title>
<ellipse fill="none" stroke="#ff4a11" cx="341" cy="-34" rx="18" ry="18"/>
<text text-anchor="start" x="328.5" y="-32.2" font-family="Helvetica,sans-Serif" font-size="11.00">a</text>
<text text-anchor="start" x="335.5" y="-32.2" font-family="Helvetica,sans-Serif" baseline-shift="sub" font-size="11.00">3</text>
<text text-anchor="start" x="341.5" y="-32.2" font-family="Helvetica,sans-Serif" baseline-shift="super" font-size="11.00">(4)</text>
</g>
<!-- a03&#45;&gt;a34 -->
<g id="edge39" class="edge">
<title>a03&#45;&gt;a34</title>
<path fill="none" stroke="lightgrey" d="M277.1,-179.58C289.52,-150.83 315.24,-91.3 329.65,-57.95"/>
<polygon fill="lightgrey" stroke="lightgrey" points="331.76,-59.26 332.28,-51.86 327.26,-57.31 331.76,-59.26"/>
</g>
<!-- a13&#45;&gt;a14 -->
<g id="edge40" class="edge">
<title>a13&#45;&gt;a14</title>
<path fill="none" stroke="lightgrey" d="M283.83,-98.67C294.09,-106.58 308.23,-117.49 319.76,-126.39"/>
<polygon fill="lightgrey" stroke="lightgrey" points="317.96,-128.09 325,-130.43 320.95,-124.21 317.96,-128.09"/>
</g>
<!-- a13&#45;&gt;a24 -->
<g id="edge41" class="edge">
<title>a13&#45;&gt;a24</title>
<path fill="none" stroke="lightgrey" d="M287.3,-88C295.53,-88 305.52,-88 314.58,-88"/>
<polygon fill="lightgrey" stroke="lightgrey" points="314.38,-90.45 321.38,-88 314.38,-85.55 314.38,-90.45"/>
</g>
<!-- a13&#45;&gt;a34 -->
<g id="edge42" class="edge">
<title>a13&#45;&gt;a34</title>
<path fill="none" stroke="lightgrey" d="M283.83,-77.33C294.09,-69.42 308.23,-58.51 319.76,-49.61"/>
<polygon fill="lightgrey" stroke="lightgrey" points="320.95,-51.79 325,-45.57 317.96,-47.91 320.95,-51.79"/>
</g>
<!-- a23&#45;&gt;a14 -->
<g id="edge43" class="edge">
<title>a23&#45;&gt;a14</title>
<path fill="none" stroke="lightgrey" d="M279.73,-49.02C291.7,-67.47 312.09,-98.94 325.8,-120.1"/>
<polygon fill="lightgrey" stroke="lightgrey" points="323.66,-121.3 329.53,-125.84 327.77,-118.63 323.66,-121.3"/>
</g>
<!-- a23&#45;&gt;a24 -->
<g id="edge44" class="edge">
<title>a23&#45;&gt;a24</title>
<path fill="none" stroke="lightgrey" d="M283.83,-44.67C294.09,-52.58 308.23,-63.49 319.76,-72.39"/>
<polygon fill="lightgrey" stroke="lightgrey" points="317.96,-74.09 325,-76.43 320.95,-70.21 317.96,-74.09"/>
</g>
<!-- a23&#45;&gt;a34 -->
<g id="edge45" class="edge">
<title>a23&#45;&gt;a34</title>
<path fill="none" stroke="lightgrey" d="M287.3,-34C295.53,-34 305.52,-34 314.58,-34"/>
<polygon fill="lightgrey" stroke="lightgrey" points="314.38,-36.45 321.38,-34 314.38,-31.55 314.38,-36.45"/>
</g>
<!-- a33&#45;&gt;a14 -->
<g id="edge46" class="edge">
<title>a33&#45;&gt;a14</title>
<path fill="none" stroke="lightgrey" d="M287.3,-142C295.53,-142 305.52,-142 314.58,-142"/>
<polygon fill="lightgrey" stroke="lightgrey" points="314.38,-144.45 321.38,-142 314.38,-139.55 314.38,-144.45"/>
</g>
<!-- a33&#45;&gt;a24 -->
<g id="edge47" class="edge">
<title>a33&#45;&gt;a24</title>
<path fill="none" stroke="lightgrey" d="M283.83,-131.33C294.09,-123.42 308.23,-112.51 319.76,-103.61"/>
<polygon fill="lightgrey" stroke="lightgrey" points="320.95,-105.79 325,-99.57 317.96,-101.91 320.95,-105.79"/>
</g>
<!-- a33&#45;&gt;a34 -->
<g id="edge48" class="edge">
<title>a33&#45;&gt;a34</title>
<path fill="none" stroke="lightgrey" d="M279.73,-126.98C291.7,-108.53 312.09,-77.06 325.8,-55.9"/>
<polygon fill="lightgrey" stroke="lightgrey" points="327.77,-57.37 329.53,-50.16 323.66,-54.7 327.77,-57.37"/>
</g>
<!-- a04 -->
<g id="node17" class="node">
<title>a04</title>
<ellipse fill="none" stroke="#ff4a11" cx="341" cy="-196" rx="18" ry="18"/>
<text text-anchor="start" x="331.5" y="-194.2" font-family="Helvetica,sans-Serif" font-size="11.00">b</text>
<text text-anchor="start" x="338.5" y="-194.2" font-family="Helvetica,sans-Serif" baseline-shift="super" font-size="11.00">(5)</text>
</g>
<!-- a15 -->
<g id="node21" class="node">
<title>a15</title>
<ellipse fill="none" stroke="#ff4a11" cx="413" cy="-115" rx="18" ry="18"/>
<text text-anchor="start" x="400.5" y="-113.2" font-family="Helvetica,sans-Serif" font-size="11.00">a</text>
<text text-anchor="start" x="407.5" y="-113.2" font-family="Helvetica,sans-Serif" baseline-shift="sub" font-size="11.00">1</text>
<text text-anchor="start" x="413.5" y="-113.2" font-family="Helvetica,sans-Serif" baseline-shift="super" font-size="11.00">(5)</text>
</g>
<!-- a04&#45;&gt;a15 -->
<g id="edge49" class="edge">
<title>a04&#45;&gt;a15</title>
<path fill="none" stroke="lightgrey" d="M353.56,-182.62C364.81,-169.61 382.03,-149.68 394.87,-134.82"/>
<polygon fill="lightgrey" stroke="lightgrey" points="396.71,-136.44 399.43,-129.54 393,-133.23 396.71,-136.44"/>
</g>
<!-- a14&#45;&gt;a15 -->
<g id="edge50" class="edge">
<title>a14&#45;&gt;a15</title>
<path fill="none" stroke="lightgrey" d="M358.24,-135.74C367.07,-132.33 378.17,-128.05 387.99,-124.26"/>
<polygon fill="lightgrey" stroke="lightgrey" points="388.79,-126.58 394.44,-121.77 387.03,-122.01 388.79,-126.58"/>
</g>
<!-- a24&#45;&gt;a15 -->
<g id="edge51" class="edge">
<title>a24&#45;&gt;a15</title>
<path fill="none" stroke="lightgrey" d="M358.24,-94.26C367.07,-97.67 378.17,-101.95 387.99,-105.74"/>
<polygon fill="lightgrey" stroke="lightgrey" points="387.03,-107.99 394.44,-108.23 388.79,-103.42 387.03,-107.99"/>
</g>
<!-- a34&#45;&gt;a15 -->
<g id="edge52" class="edge">
<title>a34&#45;&gt;a15</title>
<path fill="none" stroke="lightgrey" d="M353.56,-47.38C364.81,-60.39 382.03,-80.32 394.87,-95.18"/>
<polygon fill="lightgrey" stroke="lightgrey" points="393,-96.77 399.43,-100.46 396.71,-93.56 393,-96.77"/>
</g>
<!-- O -->
<g id="node22" class="node">
<title>O</title>
<ellipse fill="none" stroke="none" cx="503" cy="-115" rx="36" ry="36"/>
<text text-anchor="middle" x="503" y="-118.8" font-family="Helvetica,sans-Serif" font-size="14.00">output </text>
<text text-anchor="middle" x="503" y="-103.8" font-family="Helvetica,sans-Serif" font-size="14.00"> &amp; error</text>
</g>
<!-- a15&#45;&gt;O -->
<g id="edge53" class="edge">
<title>a15&#45;&gt;O</title>
<path fill="none" stroke="#ff4a11" stroke-width="3.5" d="M443.55,-115C451.02,-115 459.1,-115 466.81,-115"/>
<polygon fill="#ff4a11" stroke="#ff4a11" stroke-width="3.5" points="443.68,-112.55 436.68,-115 443.68,-117.45 443.68,-112.55"/>
</g>
</g>
</svg>