<?xml version="1.0" encoding="UTF-8" standalone="no"?>
<!DOCTYPE svg PUBLIC "-//W3C//DTD SVG 1.1//EN"
 "http://www.w3.org/Graphics/SVG/1.1/DTD/svg11.dtd">
<!-- Generated by graphviz version 7.1.0 (20230121.1956)
 -->
<!-- Title: G Pages: 1 -->
<svg width="563pt" height="261pt"
 viewBox="0.00 0.00 563.00 261.00" xmlns="http://www.w3.org/2000/svg" xmlns:xlink="http://www.w3.org/1999/xlink">
<g id="graph0" class="graph" transform="scale(1 1) rotate(0) translate(4 257)">
<title>G</title>
<polygon fill="white" stroke="none" points="-4,4 -4,-257 559,-257 559,4 -4,4"/>
<g id="clust1" class="cluster">
<title>cluster_0</title>
<polygon fill="none" stroke="white" points="0,-8 0,-245 79,-245 79,-8 0,-8"/>
<text text-anchor="start" x="8" y="-229.8" font-family="Helvetica,sans-Serif" font-size="14.00" fill="#ff4a11">input layer</text>
</g>
<g id="clust2" class="cluster">
<title>cluster_1</title>
<polygon fill="none" stroke="white" points="99,-8 99,-245 151,-245 151,-8 99,-8"/>
<text text-anchor="start" x="117" y="-229.8" font-family="Helvetica,sans-Serif" font-size="14.00" fill="#ff4a11">[1]</text>
</g>
<g id="clust3" class="cluster">
<title>cluster_2</title>
<polygon fill="none" stroke="white" points="171,-8 171,-245 223,-245 223,-8 171,-8"/>
<text text-anchor="start" x="189" y="-229.8" font-family="Helvetica,sans-Serif" font-size="14.00" fill="#ff4a11">[2]</text>
</g>
<g id="clust4" class="cluster">
<title>cluster_3</title>
<polygon fill="none" stroke="white" points="243,-8 243,-245 295,-245 295,-8 243,-8"/>
<text text-anchor="start" x="261" y="-229.8" font-family="Helvetica,sans-Serif" font-size="14.00" fill="#ff4a11">[3]</text>
</g>
<g id="clust5" class="cluster">
<title>cluster_4</title>
<polygon fill="none" stroke="white" points="315,-8 315,-245 367,-245 367,-8 315,-8"/>
<text text-anchor="start" x="333" y="-229.8" font-family="Helvetica,sans-Serif" font-size="14.00" fill="#ff4a11">[4]</text>
</g>
<g id="clust6" class="cluster">
<title>cluster_5</title>
<polygon fill="none" stroke="white" points="387,-89 387,-164 439,-164 439,-89 387,-89"/>
<text text-anchor="start" x="405" y="-148.8" font-family="Helvetica,sans-Serif" font-size="14.00" fill="#ff4a11">[5]</text>
</g>
<g id="clust7" class="cluster">
<title>cluster_6</title>
<polygon fill="none" stroke="white" points="459,-71 459,-159 547,-159 547,-71 459,-71"/>
</g>
<!-- x0 -->
<g id="node1" class="node">
<title>x0</title>
<ellipse fill="none" stroke="black" cx="39" cy="-196" rx="18" ry="18"/>
<text text-anchor="start" x="29.5" y="-194.2" font-family="Helvetica,sans-Serif" font-size="11.00">b</text>
<text text-anchor="start" x="36.5" y="-194.2" font-family="Helvetica,sans-Serif" baseline-shift="super" font-size="11.00">(1)</text>
</g>
<!-- a11 -->
<g id="node6" class="node">
<title>a11</title>
<ellipse fill="none" stroke="#ff4a11" cx="125" cy="-88" rx="18" ry="18"/>
<text text-anchor="start" x="112.5" y="-86.2" font-family="Helvetica,sans-Serif" font-size="11.00">a</text>
<text text-anchor="start" x="119.5" y="-86.2" font-family="Helvetica,sans-Serif" baseline-shift="sub" font-size="11.00">2</text>
<text text-anchor="start" x="125.5" y="-86.2" font-family="Helvetica,sans-Serif" baseline-shift="super" font-size="11.00">(1)</text>
</g>
<!-- x0&#45;&gt;a11 -->
<g id="edge1" class="edge">
<title>x0&#45;&gt;a11</title>
<path fill="none" stroke="#ff4a11" stroke-width="3.5" d="M58.18,-172.62C74.95,-151.06 99.28,-119.78 113.18,-101.91"/>
<polygon fill="#ff4a11" stroke="#ff4a11" stroke-width="3.5" points="56.25,-171.11 53.89,-178.14 60.12,-174.12 56.25,-171.11"/>
</g>
<!-- a21 -->
<g id="node7" class="node">
<title>a21</title>
<ellipse fill="none" stroke="#ff4a11" cx="125" cy="-34" rx="18" ry="18"/>
<text text-anchor="start" x="112.5" y="-32.2" font-family="Helvetica,sans-Serif" font-size="11.00">a</text>
<text text-anchor="start" x="119.5" y="-32.2" font-family="Helvetica,sans-Serif" baseline-shift="sub" font-size="11.00">3</text>
<text text-anchor="start" x="125.5" y="-32.2" font-family="Helvetica,sans-Serif" baseline-shift="super" font-size="11.00">(1)</text>
</g>
<!-- x0&#45;&gt;a21 -->
<g id="edge2" class="edge">
<title>x0&#45;&gt;a21</title>
<path fill="none" stroke="#ff4a11" stroke-width="3.5" d="M53.67,-169.63C71.33,-135.58 101.48,-77.42 115.88,-49.65"/>
<polygon fill="#ff4a11" stroke="#ff4a11" stroke-width="3.5" points="51.69,-168.13 50.65,-175.47 56.04,-170.38 51.69,-168.13"/>
</g>
<!-- a31 -->
<g id="node8" class="node">
<title>a31</title>
<ellipse fill="none" stroke="#ff4a11" cx="125" cy="-142" rx="18" ry="18"/>
<text text-anchor="start" x="112.5" y="-140.2" font-family="Helvetica,sans-Serif" font-size="11.00">a</text>
<text text-anchor="start" x="119.5" y="-140.2" font-family="Helvetica,sans-Serif" baseline-shift="sub" font-size="11.00">1</text>
<text text-anchor="start" x="125.5" y="-140.2" font-family="Helvetica,sans-Serif" baseline-shift="super" font-size="11.00">(1)</text>
</g>
<!-- x0&#45;&gt;a31 -->
<g id="edge3" class="edge">
<title>x0&#45;&gt;a31</title>
<path fill="none" stroke="#ff4a11" stroke-width="3.5" d="M64.89,-180C79.32,-170.72 97.01,-159.35 109.25,-151.48"/>
<polygon fill="#ff4a11" stroke="#ff4a11" stroke-width="3.5" points="63.65,-177.88 59.09,-183.73 66.3,-182 63.65,-177.88"/>
</g>
<!-- x1 -->
<g id="node2" class="node">
<title>x1</title>
<ellipse fill="none" stroke="black" cx="39" cy="-142" rx="18" ry="18"/>
<text text-anchor="start" x="32" y="-139.3" font-family="Helvetica,sans-Serif" font-size="14.00">x</text>
<text text-anchor="start" x="39" y="-139.3" font-family="Helvetica,sans-Serif" baseline-shift="sub" font-size="14.00">1</text>
</g>
<!-- x1&#45;&gt;a11 -->
<g id="edge4" class="edge">
<title>x1&#45;&gt;a11</title>
<path fill="none" stroke="#ff4a11" stroke-width="3.5" d="M64.89,-126C79.32,-116.72 97.01,-105.35 109.25,-97.48"/>
<polygon fill="#ff4a11" stroke="#ff4a11" stroke-width="3.5" points="63.65,-123.88 59.09,-129.73 66.3,-128 63.65,-123.88"/>
</g>
<!-- x1&#45;&gt;a21 -->
<g id="edge5" class="edge">
<title>x1&#45;&gt;a21</title>
<path fill="none" stroke="#ff4a11" stroke-width="3.5" d="M58.18,-118.62C74.95,-97.06 99.28,-65.78 113.18,-47.91"/>
<polygon fill="#ff4a11" stroke="#ff4a11" stroke-width="3.5" points="56.25,-117.11 53.89,-124.14 60.12,-120.12 56.25,-117.11"/>
</g>
<!-- x1&#45;&gt;a31 -->
<g id="edge6" class="edge">
<title>x1&#45;&gt;a31</title>
<path fill="none" stroke="#ff4a11" stroke-width="3.5" d="M69.54,-142C81.94,-142 95.92,-142 106.62,-142"/>
<polygon fill="#ff4a11" stroke="#ff4a11" stroke-width="3.5" points="69.7,-139.55 62.7,-142 69.7,-144.45 69.7,-139.55"/>
</g>
<!-- x2 -->
<g id="node3" class="node">
<title>x2</title>
<ellipse fill="none" stroke="black" cx="39" cy="-88" rx="18" ry="18"/>
<text text-anchor="start" x="32" y="-85.3" font-family="Helvetica,sans-Serif" font-size="14.00">x</text>
<text text-anchor="start" x="39" y="-85.3" font-family="Helvetica,sans-Serif" baseline-shift="sub" font-size="14.00">2</text>
</g>
<!-- x2&#45;&gt;a11 -->
<g id="edge7" class="edge">
<title>x2&#45;&gt;a11</title>
<path fill="none" stroke="#ff4a11" stroke-width="3.5" d="M69.54,-88C81.94,-88 95.92,-88 106.62,-88"/>
<polygon fill="#ff4a11" stroke="#ff4a11" stroke-width="3.5" points="69.7,-85.55 62.7,-88 69.7,-90.45 69.7,-85.55"/>
</g>
<!-- x2&#45;&gt;a21 -->
<g id="edge8" class="edge">
<title>x2&#45;&gt;a21</title>
<path fill="none" stroke="#ff4a11" stroke-width="3.5" d="M64.89,-72C79.32,-62.72 97.01,-51.35 109.25,-43.48"/>
<polygon fill="#ff4a11" stroke="#ff4a11" stroke-width="3.5" points="63.65,-69.88 59.09,-75.73 66.3,-74 63.65,-69.88"/>
</g>
<!-- x2&#45;&gt;a31 -->
<g id="edge9" class="edge">
<title>x2&#45;&gt;a31</title>
<path fill="none" stroke="#ff4a11" stroke-width="3.5" d="M64.89,-104C79.32,-113.28 97.01,-124.65 109.25,-132.52"/>
<polygon fill="#ff4a11" stroke="#ff4a11" stroke-width="3.5" points="66.3,-102 59.09,-100.27 63.65,-106.12 66.3,-102"/>
</g>
<!-- x3 -->
<g id="node4" class="node">
<title>x3</title>
<ellipse fill="none" stroke="black" cx="39" cy="-34" rx="18" ry="18"/>
<text text-anchor="start" x="32" y="-31.3" font-family="Helvetica,sans-Serif" font-size="14.00">x</text>
<text text-anchor="start" x="39" y="-31.3" font-family="Helvetica,sans-Serif" baseline-shift="sub" font-size="14.00">3</text>
</g>
<!-- x3&#45;&gt;a11 -->
<g id="edge10" class="edge">
<title>x3&#45;&gt;a11</title>
<path fill="none" stroke="#ff4a11" stroke-width="3.5" d="M64.89,-50C79.32,-59.28 97.01,-70.65 109.25,-78.52"/>
<polygon fill="#ff4a11" stroke="#ff4a11" stroke-width="3.5" points="66.3,-48 59.09,-46.27 63.65,-52.12 66.3,-48"/>
</g>
<!-- x3&#45;&gt;a21 -->
<g id="edge11" class="edge">
<title>x3&#45;&gt;a21</title>
<path fill="none" stroke="#ff4a11" stroke-width="3.5" d="M69.54,-34C81.94,-34 95.92,-34 106.62,-34"/>
<polygon fill="#ff4a11" stroke="#ff4a11" stroke-width="3.5" points="69.7,-31.55 62.7,-34 69.7,-36.45 69.7,-31.55"/>
</g>
<!-- x3&#45;&gt;a31 -->
<g id="edge12" class="edge">
<title>x3&#45;&gt;a31</title>
<path fill="none" stroke="#ff4a11" stroke-width="3.5" d="M58.18,-57.38C74.95,-78.94 99.28,-110.22 113.18,-128.09"/>
<polygon fill="#ff4a11" stroke="#ff4a11" stroke-width="3.5" points="60.12,-55.88 53.89,-51.86 56.25,-58.89 60.12,-55.88"/>
</g>
<!-- a01 -->
<g id="node5" class="node">
<title>a01</title>
<ellipse fill="none" stroke="#ff4a11" cx="125" cy="-196" rx="18" ry="18"/>
<text text-anchor="start" x="115.5" y="-194.2" font-family="Helvetica,sans-Serif" font-size="11.00">b</text>
<text text-anchor="start" x="122.5" y="-194.2" font-family="Helvetica,sans-Serif" baseline-shift="super" font-size="11.00">(2)</text>
</g>
<!-- a12 -->
<g id="node10" class="node">
<title>a12</title>
<ellipse fill="none" stroke="#ff4a11" cx="197" cy="-88" rx="18" ry="18"/>
<text text-anchor="start" x="184.5" y="-86.2" font-family="Helvetica,sans-Serif" font-size="11.00">a</text>
<text text-anchor="start" x="191.5" y="-86.2" font-family="Helvetica,sans-Serif" baseline-shift="sub" font-size="11.00">2</text>
<text text-anchor="start" x="197.5" y="-86.2" font-family="Helvetica,sans-Serif" baseline-shift="super" font-size="11.00">(2)</text>
</g>
<!-- a01&#45;&gt;a12 -->
<g id="edge13" class="edge">
<title>a01&#45;&gt;a12</title>
<path fill="none" stroke="#ff4a11" stroke-width="3.5" d="M142.32,-170.83C155.97,-149.76 175,-120.4 186.35,-102.89"/>
<polygon fill="#ff4a11" stroke="#ff4a11" stroke-width="3.5" points="140.37,-169.33 138.61,-176.54 144.48,-172 140.37,-169.33"/>
</g>
<!-- a22 -->
<g id="node11" class="node">
<title>a22</title>
<ellipse fill="none" stroke="#ff4a11" cx="197" cy="-34" rx="18" ry="18"/>
<text text-anchor="start" x="184.5" y="-32.2" font-family="Helvetica,sans-Serif" font-size="11.00">a</text>
<text text-anchor="start" x="191.5" y="-32.2" font-family="Helvetica,sans-Serif" baseline-shift="sub" font-size="11.00">3</text>
<text text-anchor="start" x="197.5" y="-32.2" font-family="Helvetica,sans-Serif" baseline-shift="super" font-size="11.00">(2)</text>
</g>
<!-- a01&#45;&gt;a22 -->
<g id="edge14" class="edge">
<title>a01&#45;&gt;a22</title>
<path fill="none" stroke="#ff4a11" stroke-width="3.5" d="M137.82,-168.64C152.45,-134.8 176.87,-78.27 188.88,-50.47"/>
<polygon fill="#ff4a11" stroke="#ff4a11" stroke-width="3.5" points="135.73,-167.31 135.2,-174.71 140.22,-169.26 135.73,-167.31"/>
</g>
<!-- a32 -->
<g id="node12" class="node">
<title>a32</title>
<ellipse fill="none" stroke="#ff4a11" cx="197" cy="-142" rx="18" ry="18"/>
<text text-anchor="start" x="184.5" y="-140.2" font-family="Helvetica,sans-Serif" font-size="11.00">a</text>
<text text-anchor="start" x="191.5" y="-140.2" font-family="Helvetica,sans-Serif" baseline-shift="sub" font-size="11.00">1</text>
<text text-anchor="start" x="197.5" y="-140.2" font-family="Helvetica,sans-Serif" baseline-shift="super" font-size="11.00">(2)</text>
</g>
<!-- a01&#45;&gt;a32 -->
<g id="edge15" class="edge">
<title>a01&#45;&gt;a32</title>
<path fill="none" stroke="#ff4a11" stroke-width="3.5" d="M149.23,-178.08C160.16,-169.65 172.81,-159.89 182.2,-152.65"/>
<polygon fill="#ff4a11" stroke="#ff4a11" stroke-width="3.5" points="148.07,-175.88 144.02,-182.1 151.06,-179.76 148.07,-175.88"/>
</g>
<!-- a11&#45;&gt;a12 -->
<g id="edge16" class="edge">
<title>a11&#45;&gt;a12</title>
<path fill="none" stroke="#ff4a11" stroke-width="3.5" d="M155.33,-88C163.36,-88 171.8,-88 178.9,-88"/>
<polygon fill="#ff4a11" stroke="#ff4a11" stroke-width="3.5" points="155.6,-85.55 148.6,-88 155.6,-90.45 155.6,-85.55"/>
</g>
<!-- a11&#45;&gt;a22 -->
<g id="edge17" class="edge">
<title>a11&#45;&gt;a22</title>
<path fill="none" stroke="#ff4a11" stroke-width="3.5" d="M149.23,-70.08C160.16,-61.65 172.81,-51.89 182.2,-44.65"/>
<polygon fill="#ff4a11" stroke="#ff4a11" stroke-width="3.5" points="148.07,-67.88 144.02,-74.1 151.06,-71.76 148.07,-67.88"/>
</g>
<!-- a11&#45;&gt;a32 -->
<g id="edge18" class="edge">
<title>a11&#45;&gt;a32</title>
<path fill="none" stroke="#ff4a11" stroke-width="3.5" d="M149.23,-105.92C160.16,-114.35 172.81,-124.11 182.2,-131.35"/>
<polygon fill="#ff4a11" stroke="#ff4a11" stroke-width="3.5" points="151.06,-104.24 144.02,-101.9 148.07,-108.12 151.06,-104.24"/>
</g>
<!-- a21&#45;&gt;a12 -->
<g id="edge19" class="edge">
<title>a21&#45;&gt;a12</title>
<path fill="none" stroke="#ff4a11" stroke-width="3.5" d="M149.23,-51.92C160.16,-60.35 172.81,-70.11 182.2,-77.35"/>
<polygon fill="#ff4a11" stroke="#ff4a11" stroke-width="3.5" points="151.06,-50.24 144.02,-47.9 148.07,-54.12 151.06,-50.24"/>
</g>
<!-- a21&#45;&gt;a22 -->
<g id="edge20" class="edge">
<title>a21&#45;&gt;a22</title>
<path fill="none" stroke="#ff4a11" stroke-width="3.5" d="M155.33,-34C163.36,-34 171.8,-34 178.9,-34"/>
<polygon fill="#ff4a11" stroke="#ff4a11" stroke-width="3.5" points="155.6,-31.55 148.6,-34 155.6,-36.45 155.6,-31.55"/>
</g>
<!-- a21&#45;&gt;a32 -->
<g id="edge21" class="edge">
<title>a21&#45;&gt;a32</title>
<path fill="none" stroke="#ff4a11" stroke-width="3.5" d="M142.32,-59.17C155.97,-80.24 175,-109.6 186.35,-127.11"/>
<polygon fill="#ff4a11" stroke="#ff4a11" stroke-width="3.5" points="144.48,-58 138.61,-53.46 140.37,-60.67 144.48,-58"/>
</g>
<!-- a31&#45;&gt;a12 -->
<g id="edge22" class="edge">
<title>a31&#45;&gt;a12</title>
<path fill="none" stroke="#ff4a11" stroke-width="3.5" d="M149.23,-124.08C160.16,-115.65 172.81,-105.89 182.2,-98.65"/>
<polygon fill="#ff4a11" stroke="#ff4a11" stroke-width="3.5" points="148.07,-121.88 144.02,-128.1 151.06,-125.76 148.07,-121.88"/>
</g>
<!-- a31&#45;&gt;a22 -->
<g id="edge23" class="edge">
<title>a31&#45;&gt;a22</title>
<path fill="none" stroke="#ff4a11" stroke-width="3.5" d="M142.32,-116.83C155.97,-95.76 175,-66.4 186.35,-48.89"/>
<polygon fill="#ff4a11" stroke="#ff4a11" stroke-width="3.5" points="140.37,-115.33 138.61,-122.54 144.48,-118 140.37,-115.33"/>
</g>
<!-- a31&#45;&gt;a32 -->
<g id="edge24" class="edge">
<title>a31&#45;&gt;a32</title>
<path fill="none" stroke="#ff4a11" stroke-width="3.5" d="M155.33,-142C163.36,-142 171.8,-142 178.9,-142"/>
<polygon fill="#ff4a11" stroke="#ff4a11" stroke-width="3.5" points="155.6,-139.55 148.6,-142 155.6,-144.45 155.6,-139.55"/>
</g>
<!-- a02 -->
<g id="node9" class="node">
<title>a02</title>
<ellipse fill="none" stroke="#ff4a11" cx="197" cy="-196" rx="18" ry="18"/>
<text text-anchor="start" x="187.5" y="-194.2" font-family="Helvetica,sans-Serif" font-size="11.00">b</text>
<text text-anchor="start" x="194.5" y="-194.2" font-family="Helvetica,sans-Serif" baseline-shift="super" font-size="11.00">(3)</text>
</g>
<!-- a13 -->
<g id="node14" class="node">
<title>a13</title>
<ellipse fill="none" stroke="#ff4a11" cx="269" cy="-88" rx="18" ry="18"/>
<text text-anchor="start" x="256.5" y="-86.2" font-family="Helvetica,sans-Serif" font-size="11.00">a</text>
<text text-anchor="start" x="263.5" y="-86.2" font-family="Helvetica,sans-Serif" baseline-shift="sub" font-size="11.00">2</text>
<text text-anchor="start" x="269.5" y="-86.2" font-family="Helvetica,sans-Serif" baseline-shift="super" font-size="11.00">(3)</text>
</g>
<!-- a02&#45;&gt;a13 -->
<g id="edge25" class="edge">
<title>a02&#45;&gt;a13</title>
<path fill="none" stroke="#ff4a11" stroke-width="3.5" d="M214.32,-170.83C227.97,-149.76 247,-120.4 258.35,-102.89"/>
<polygon fill="#ff4a11" stroke="#ff4a11" stroke-width="3.5" points="212.37,-169.33 210.61,-176.54 216.48,-172 212.37,-169.33"/>
</g>
<!-- a23 -->
<g id="node15" class="node">
<title>a23</title>
<ellipse fill="none" stroke="#ff4a11" cx="269" cy="-34" rx="18" ry="18"/>
<text text-anchor="start" x="256.5" y="-32.2" font-family="Helvetica,sans-Serif" font-size="11.00">a</text>
<text text-anchor="start" x="263.5" y="-32.2" font-family="Helvetica,sans-Serif" baseline-shift="sub" font-size="11.00">3</text>
<text text-anchor="start" x="269.5" y="-32.2" font-family="Helvetica,sans-Serif" baseline-shift="super" font-size="11.00">(3)</text>
</g>
<!-- a02&#45;&gt;a23 -->
<g id="edge26" class="edge">
<title>a02&#45;&gt;a23</title>
<path fill="none" stroke="#ff4a11" stroke-width="3.5" d="M209.82,-168.64C224.45,-134.8 248.87,-78.27 260.88,-50.47"/>
<polygon fill="#ff4a11" stroke="#ff4a11" stroke-width="3.5" points="207.73,-167.31 207.2,-174.71 212.22,-169.26 207.73,-167.31"/>
</g>
<!-- a33 -->
<g id="node16" class="node">
<title>a33</title>
<ellipse fill="none" stroke="#ff4a11" cx="269" cy="-142" rx="18" ry="18"/>
<text text-anchor="start" x="256.5" y="-140.2" font-family="Helvetica,sans-Serif" font-size="11.00">a</text>
<text text-anchor="start" x="263.5" y="-140.2" font-family="Helvetica,sans-Serif" baseline-shift="sub" font-size="11.00">1</text>
<text text-anchor="start" x="269.5" y="-140.2" font-family="Helvetica,sans-Serif" baseline-shift="super" font-size="11.00">(3)</text>
</g>
<!-- a02&#45;&gt;a33 -->
<g id="edge27" class="edge">
<title>a02&#45;&gt;a33</title>
<path fill="none" stroke="#ff4a11" stroke-width="3.5" d="M221.23,-178.08C232.16,-169.65 244.81,-159.89 254.2,-152.65"/>
<polygon fill="#ff4a11" stroke="#ff4a11" stroke-width="3.5" points="220.07,-175.88 216.02,-182.1 223.06,-179.76 220.07,-175.88"/>
</g>
<!-- a12&#45;&gt;a13 -->
<g id="edge28" class="edge">
<title>a12&#45;&gt;a13</title>
<path fill="none" stroke="#ff4a11" stroke-width="3.5" d="M227.33,-88C235.36,-88 243.8,-88 250.9,-88"/>
<polygon fill="#ff4a11" stroke="#ff4a11" stroke-width="3.5" points="227.6,-85.55 220.6,-88 227.6,-90.45 227.6,-85.55"/>
</g>
<!-- a12&#45;&gt;a23 -->
<g id="edge29" class="edge">
<title>a12&#45;&gt;a23</title>
<path fill="none" stroke="#ff4a11" stroke-width="3.5" d="M221.23,-70.08C232.16,-61.65 244.81,-51.89 254.2,-44.65"/>
<polygon fill="#ff4a11" stroke="#ff4a11" stroke-width="3.5" points="220.07,-67.88 216.02,-74.1 223.06,-71.76 220.07,-67.88"/>
</g>
<!-- a12&#45;&gt;a33 -->
<g id="edge30" class="edge">
<title>a12&#45;&gt;a33</title>
<path fill="none" stroke="#ff4a11" stroke-width="3.5" d="M221.23,-105.92C232.16,-114.35 244.81,-124.11 254.2,-131.35"/>
<polygon fill="#ff4a11" stroke="#ff4a11" stroke-width="3.5" points="223.06,-104.24 216.02,-101.9 220.07,-108.12 223.06,-104.24"/>
</g>
<!-- a22&#45;&gt;a13 -->
<g id="edge31" class="edge">
<title>a22&#45;&gt;a13</title>
<path fill="none" stroke="#ff4a11" stroke-width="3.5" d="M221.23,-51.92C232.16,-60.35 244.81,-70.11 254.2,-77.35"/>
<polygon fill="#ff4a11" stroke="#ff4a11" stroke-width="3.5" points="223.06,-50.24 216.02,-47.9 220.07,-54.12 223.06,-50.24"/>
</g>
<!-- a22&#45;&gt;a23 -->
<g id="edge32" class="edge">
<title>a22&#45;&gt;a23</title>
<path fill="none" stroke="#ff4a11" stroke-width="3.5" d="M227.33,-34C235.36,-34 243.8,-34 250.9,-34"/>
<polygon fill="#ff4a11" stroke="#ff4a11" stroke-width="3.5" points="227.6,-31.55 220.6,-34 227.6,-36.45 227.6,-31.55"/>
</g>
<!-- a22&#45;&gt;a33 -->
<g id="edge33" class="edge">
<title>a22&#45;&gt;a33</title>
<path fill="none" stroke="#ff4a11" stroke-width="3.5" d="M214.32,-59.17C227.97,-80.24 247,-109.6 258.35,-127.11"/>
<polygon fill="#ff4a11" stroke="#ff4a11" stroke-width="3.5" points="216.48,-58 210.61,-53.46 212.37,-60.67 216.48,-58"/>
</g>
<!-- a32&#45;&gt;a13 -->
<g id="edge34" class="edge">
<title>a32&#45;&gt;a13</title>
<path fill="none" stroke="#ff4a11" stroke-width="3.5" d="M221.23,-124.08C232.16,-115.65 244.81,-105.89 254.2,-98.65"/>
<polygon fill="#ff4a11" stroke="#ff4a11" stroke-width="3.5" points="220.07,-121.88 216.02,-128.1 223.06,-125.76 220.07,-121.88"/>
</g>
<!-- a32&#45;&gt;a23 -->
<g id="edge35" class="edge">
<title>a32&#45;&gt;a23</title>
<path fill="none" stroke="#ff4a11" stroke-width="3.5" d="M214.32,-116.83C227.97,-95.76 247,-66.4 258.35,-48.89"/>
<polygon fill="#ff4a11" stroke="#ff4a11" stroke-width="3.5" points="212.37,-115.33 210.61,-122.54 216.48,-118 212.37,-115.33"/>
</g>
<!-- a32&#45;&gt;a33 -->
<g id="edge36" class="edge">
<title>a32&#45;&gt;a33</title>
<path fill="none" stroke="#ff4a11" stroke-width="3.5" d="M227.33,-142C235.36,-142 243.8,-142 250.9,-142"/>
<polygon fill="#ff4a11" stroke="#ff4a11" stroke-width="3.5" points="227.6,-139.55 220.6,-142 227.6,-144.45 227.6,-139.55"/>
</g>
<!-- a03 -->
<g id="node13" class="node">
<title>a03</title>
<ellipse fill="none" stroke="#ff4a11" cx="269" cy="-196" rx="18" ry="18"/>
<text text-anchor="start" x="259.5" y="-194.2" font-family="Helvetica,sans-Serif" font-size="11.00">b</text>
<text text-anchor="start" x="266.5" y="-194.2" font-family="Helvetica,sans-Serif" baseline-shift="super" font-size="11.00">(4)</text>
</g>
<!-- a14 -->
<g id="node18" class="node">
<title>a14</title>
<ellipse fill="none" stroke="#ff4a11" cx="341" cy="-142" rx="18" ry="18"/>
<text text-anchor="start" x="328.5" y="-140.2" font-family="Helvetica,sans-Serif" font-size="11.00">a</text>
<text text-anchor="start" x="335.5" y="-140.2" font-family="Helvetica,sans-Serif" baseline-shift="sub" font-size="11.00">1</text>
<text text-anchor="start" x="341.5" y="-140.2" font-family="Helvetica,sans-Serif" baseline-shift="super" font-size="11.00">(4)</text>
</g>
<!-- a03&#45;&gt;a14 -->
<g id="edge37" class="edge">
<title>a03&#45;&gt;a14</title>
<path fill="none" stroke="#ff4a11" stroke-width="3.5" d="M293.23,-178.08C304.16,-169.65 316.81,-159.89 326.2,-152.65"/>
<polygon fill="#ff4a11" stroke="#ff4a11" stroke-width="3.5" points="292.07,-175.88 288.02,-182.1 295.06,-179.76 292.07,-175.88"/>
</g>
<!-- a24 -->
<g id="node19" class="node">
<title>a24</title>
<ellipse fill="none" stroke="#ff4a11" cx="341" cy="-88" rx="18" ry="18"/>
<text text-anchor="start" x="328.5" y="-86.2" font-family="Helvetica,sans-Serif" font-size="11.00">a</text>
<text text-anchor="start" x="335.5" y="-86.2" font-family="Helvetica,sans-Serif" baseline-shift="sub" font-size="11.00">2</text>
<text text-anchor="start" x="341.5" y="-86.2" font-family="Helvetica,sans-Serif" baseline-shift="super" font-size="11.00">(4)</text>
</g>
<!-- a03&#45;&gt;a24 -->
<g id="edge38" class="edge">
<title>a03&#45;&gt;a24</title>
<path fill="none" stroke="#ff4a11" stroke-width="3.5" d="M286.32,-170.83C299.97,-149.76 319,-120.4 330.35,-102.89"/>
<polygon fill="#ff4a11" stroke="#ff4a11" stroke-width="3.5" points="284.37,-169.33 282.61,-176.54 288.48,-172 284.37,-169.33"/>
</g>
<!-- a34 -->
<g id="node20" class="node">
<title>a34</title>
<ellipse fill="none" stroke="#ff4a11" cx="341" cy="-34" rx="18" ry="18"/>
<text text-anchor="start" x="328.5" y="-32.2" font-family="Helvetica,sans-Serif" font-size="11.00">a</text>
<text text-anchor="start" x="335.5" y="-32.2" font-family="Helvetica,sans-Serif" baseline-shift="sub" font-size="11.00">3</text>
<text text-anchor="start" x="341.5" y="-32.2" font-family="Helvetica,sans-Serif" baseline-shift="super" font-size="11.00">(4)</text>
</g>
<!-- a03&#45;&gt;a34 -->
<g id="edge39" class="edge">
<title>a03&#45;&gt;a34</title>
<path fill="none" stroke="#ff4a11" stroke-width="3.5" d="M281.82,-168.64C296.45,-134.8 320.87,-78.27 332.88,-50.47"/>
<polygon fill="#ff4a11" stroke="#ff4a11" stroke-width="3.5" points="279.73,-167.31 279.2,-174.71 284.22,-169.26 279.73,-167.31"/>
</g>
<!-- a13&#45;&gt;a14 -->
<g id="edge40" class="edge">
<title>a13&#45;&gt;a14</title>
<path fill="none" stroke="#ff4a11" stroke-width="3.5" d="M293.23,-105.92C304.16,-114.35 316.81,-124.11 326.2,-131.35"/>
<polygon fill="#ff4a11" stroke="#ff4a11" stroke-width="3.5" points="295.06,-104.24 288.02,-101.9 292.07,-108.12 295.06,-104.24"/>
</g>
<!-- a13&#45;&gt;a24 -->
<g id="edge41" class="edge">
<title>a13&#45;&gt;a24</title>
<path fill="none" stroke="#ff4a11" stroke-width="3.5" d="M299.33,-88C307.36,-88 315.8,-88 322.9,-88"/>
<polygon fill="#ff4a11" stroke="#ff4a11" stroke-width="3.5" points="299.6,-85.55 292.6,-88 299.6,-90.45 299.6,-85.55"/>
</g>
<!-- a13&#45;&gt;a34 -->
<g id="edge42" class="edge">
<title>a13&#45;&gt;a34</title>
<path fill="none" stroke="#ff4a11" stroke-width="3.5" d="M293.23,-70.08C304.16,-61.65 316.81,-51.89 326.2,-44.65"/>
<polygon fill="#ff4a11" stroke="#ff4a11" stroke-width="3.5" points="292.07,-67.88 288.02,-74.1 295.06,-71.76 292.07,-67.88"/>
</g>
<!-- a23&#45;&gt;a14 -->
<g id="edge43" class="edge">
<title>a23&#45;&gt;a14</title>
<path fill="none" stroke="#ff4a11" stroke-width="3.5" d="M286.32,-59.17C299.97,-80.24 319,-109.6 330.35,-127.11"/>
<polygon fill="#ff4a11" stroke="#ff4a11" stroke-width="3.5" points="288.48,-58 282.61,-53.46 284.37,-60.67 288.48,-58"/>
</g>
<!-- a23&#45;&gt;a24 -->
<g id="edge44" class="edge">
<title>a23&#45;&gt;a24</title>
<path fill="none" stroke="#ff4a11" stroke-width="3.5" d="M293.23,-51.92C304.16,-60.35 316.81,-70.11 326.2,-77.35"/>
<polygon fill="#ff4a11" stroke="#ff4a11" stroke-width="3.5" points="295.06,-50.24 288.02,-47.9 292.07,-54.12 295.06,-50.24"/>
</g>
<!-- a23&#45;&gt;a34 -->
<g id="edge45" class="edge">
<title>a23&#45;&gt;a34</title>
<path fill="none" stroke="#ff4a11" stroke-width="3.5" d="M299.33,-34C307.36,-34 315.8,-34 322.9,-34"/>
<polygon fill="#ff4a11" stroke="#ff4a11" stroke-width="3.5" points="299.6,-31.55 292.6,-34 299.6,-36.45 299.6,-31.55"/>
</g>
<!-- a33&#45;&gt;a14 -->
<g id="edge46" class="edge">
<title>a33&#45;&gt;a14</title>
<path fill="none" stroke="#ff4a11" stroke-width="3.5" d="M299.33,-142C307.36,-142 315.8,-142 322.9,-142"/>
<polygon fill="#ff4a11" stroke="#ff4a11" stroke-width="3.5" points="299.6,-139.55 292.6,-142 299.6,-144.45 299.6,-139.55"/>
</g>
<!-- a33&#45;&gt;a24 -->
<g id="edge47" class="edge">
<title>a33&#45;&gt;a24</title>
<path fill="none" stroke="#ff4a11" stroke-width="3.5" d="M293.23,-124.08C304.16,-115.65 316.81,-105.89 326.2,-98.65"/>
<polygon fill="#ff4a11" stroke="#ff4a11" stroke-width="3.5" points="292.07,-121.88 288.02,-128.1 295.06,-125.76 292.07,-121.88"/>
</g>
<!-- a33&#45;&gt;a34 -->
<g id="edge48" class="edge">
<title>a33&#45;&gt;a34</title>
<path fill="none" stroke="#ff4a11" stroke-width="3.5" d="M286.32,-116.83C299.97,-95.76 319,-66.4 330.35,-48.89"/>
<polygon fill="#ff4a11" stroke="#ff4a11" stroke-width="3.5" points="284.37,-115.33 282.61,-122.54 288.48,-118 284.37,-115.33"/>
</g>
<!-- a04 -->
<g id="node17" class="node">
<title>a04</title>
<ellipse fill="none" stroke="#ff4a11" cx="341" cy="-196" rx="18" ry="18"/>
<text text-anchor="start" x="331.5" y="-194.2" font-family="Helvetica,sans-Serif" font-size="11.00">b</text>
<text text-anchor="start" x="338.5" y="-194.2" font-family="Helvetica,sans-Serif" baseline-shift="super" font-size="11.00">(5)</text>
</g>
<!-- a15 -->
<g id="node21" class="node">
<title>a15</title>
<ellipse fill="none" stroke="#ff4a11" cx="413" cy="-115" rx="18" ry="18"/>
<text text-anchor="start" x="400.5" y="-113.2" font-family="Helvetica,sans-Serif" font-size="11.00">a</text>
<text text-anchor="start" x="407.5" y="-113.2" font-family="Helvetica,sans-Serif" baseline-shift="sub" font-size="11.00">1</text>
<text text-anchor="start" x="413.5" y="-113.2" font-family="Helvetica,sans-Serif" baseline-shift="super" font-size="11.00">(5)</text>
</g>
<!-- a04&#45;&gt;a15 -->
<g id="edge49" class="edge">
<title>a04&#45;&gt;a15</title>
<path fill="none" stroke="#ff4a11" stroke-width="3.5" d="M361.59,-173.33C374.09,-158.86 389.88,-140.6 400.42,-128.4"/>
<polygon fill="#ff4a11" stroke="#ff4a11" stroke-width="3.5" points="359.75,-171.72 357.02,-178.62 363.45,-174.92 359.75,-171.72"/>
</g>
<!-- a14&#45;&gt;a15 -->
<g id="edge50" class="edge">
<title>a14&#45;&gt;a15</title>
<path fill="none" stroke="#ff4a11" stroke-width="3.5" d="M369.7,-131.32C378.57,-127.9 388.09,-124.22 395.85,-121.23"/>
<polygon fill="#ff4a11" stroke="#ff4a11" stroke-width="3.5" points="368.83,-129.03 363.18,-133.83 370.59,-133.6 368.83,-129.03"/>
</g>
<!-- a24&#45;&gt;a15 -->
<g id="edge51" class="edge">
<title>a24&#45;&gt;a15</title>
<path fill="none" stroke="#ff4a11" stroke-width="3.5" d="M369.7,-98.68C378.57,-102.1 388.09,-105.78 395.85,-108.77"/>
<polygon fill="#ff4a11" stroke="#ff4a11" stroke-width="3.5" points="370.59,-96.4 363.18,-96.17 368.83,-100.97 370.59,-96.4"/>
</g>
<!-- a34&#45;&gt;a15 -->
<g id="edge52" class="edge">
<title>a34&#45;&gt;a15</title>
<path fill="none" stroke="#ff4a11" stroke-width="3.5" d="M361.59,-56.67C374.09,-71.14 389.88,-89.4 400.42,-101.6"/>
<polygon fill="#ff4a11" stroke="#ff4a11" stroke-width="3.5" points="363.45,-55.08 357.02,-51.38 359.75,-58.28 363.45,-55.08"/>
</g>
<!-- O -->
<g id="node22" class="node">
<title>O</title>
<ellipse fill="none" stroke="none" cx="503" cy="-115" rx="36" ry="36"/>
<text text-anchor="middle" x="503" y="-118.8" font-family="Helvetica,sans-Serif" font-size="14.00">output </text>
<text text-anchor="middle" x="503" y="-103.8" font-family="Helvetica,sans-Serif" font-size="14.00"> &amp; error</text>
</g>
<!-- a15&#45;&gt;O -->
<g id="edge53" class="edge">
<title>a15&#45;&gt;O</title>
<path fill="none" stroke="#ff4a11" stroke-width="3.5" d="M443.55,-115C451.02,-115 459.1,-115 466.81,-115"/>
<polygon fill="#ff4a11" stroke="#ff4a11" stroke-width="3.5" points="443.68,-112.55 436.68,-115 443.68,-117.45 443.68,-112.55"/>
</g>
</g>
</svg>