<?xml version="1.0" encoding="UTF-8" standalone="no"?>
<!DOCTYPE svg PUBLIC "-//W3C//DTD SVG 1.1//EN"
 "http://www.w3.org/Graphics/SVG/1.1/DTD/svg11.dtd">
<!-- Generated by graphviz version 7.1.0 (20230121.1956)
 -->
<!-- Title: G Pages: 1 -->
<svg width="563pt" height="261pt"
 viewBox="0.00 0.00 563.00 261.00" xmlns="http://www.w3.org/2000/svg" xmlns:xlink="http://www.w3.org/1999/xlink">
<g id="graph0" class="graph" transform="scale(1 1) rotate(0) translate(4 257)">
<title>G</title>
<polygon fill="white" stroke="none" points="-4,4 -4,-257 559,-257 559,4 -4,4"/>
<g id="clust1" class="cluster">
<title>cluster_0</title>
<polygon fill="none" stroke="white" points="0,-8 0,-245 79,-245 79,-8 0,-8"/>
<text text-anchor="start" x="8" y="-229.8" font-family="Helvetica,sans-Serif" font-size="14.00" fill="#ff4a11">input layer</text>
</g>
<g id="clust2" class="cluster">
<title>cluster_1</title>
<polygon fill="none" stroke="white" points="99,-8 99,-245 151,-245 151,-8 99,-8"/>
<text text-anchor="start" x="117" y="-229.8" font-family="Helvetica,sans-Serif" font-size="14.00" fill="#ff4a11">[1]</text>
</g>
<g id="clust3" class="cluster">
<title>cluster_2</title>
<polygon fill="none" stroke="white" points="171,-8 171,-245 223,-245 223,-8 171,-8"/>
<text text-anchor="start" x="189" y="-229.8" font-family="Helvetica,sans-Serif" font-size="14.00" fill="#ff4a11">[2]</text>
</g>
<g id="clust4" class="cluster">
<title>cluster_3</title>
<polygon fill="none" stroke="white" points="243,-8 243,-245 295,-245 295,-8 243,-8"/>
<text text-anchor="start" x="261" y="-229.8" font-family="Helvetica,sans-Serif" font-size="14.00" fill="#ff4a11">[3]</text>
</g>
<g id="clust5" class="cluster">
<title>cluster_4</title>
<polygon fill="none" stroke="white" points="315,-8 315,-245 367,-245 367,-8 315,-8"/>
<text text-anchor="start" x="333" y="-229.8" font-family="Helvetica,sans-Serif" font-size="14.00" fill="#ff4a11">[4]</text>
</g>
<g id="clust6" class="cluster">
<title>cluster_5</title>
<polygon fill="none" stroke="white" points="387,-89 387,-164 439,-164 439,-89 387,-89"/>
<text text-anchor="start" x="405" y="-148.8" font-family="Helvetica,sans-Serif" font-size="14.00" fill="#ff4a11">[5]</text>
</g>
<g id="clust7" class="cluster">
<title>cluster_6</title>
<polygon fill="none" stroke="white" points="459,-71 459,-159 547,-159 547,-71 459,-71"/>
</g>
<!-- x0 -->
<g id="node1" class="node">
<title>x0</title>
<ellipse fill="none" stroke="black" cx="39" cy="-196" rx="18" ry="18"/>
<text text-anchor="start" x="29.5" y="-194.2" font-family="Helvetica,sans-Serif" font-size="11.00">b</text>
<text text-anchor="start" x="36.5" y="-194.2" font-family="Helvetica,sans-Serif" baseline-shift="super" font-size="11.00">(1)</text>
</g>
<!-- a11 -->
<g id="node6" class="node">
<title>a11</title>
<ellipse fill="none" stroke="#ff4a11" cx="125" cy="-88" rx="18" ry="18"/>
<text text-anchor="start" x="112.5" y="-86.2" font-family="Helvetica,sans-Serif" font-size="11.00">a</text>
<text text-anchor="start" x="119.5" y="-86.2" font-family="Helvetica,sans-Serif" baseline-shift="sub" font-size="11.00">2</text>
<text text-anchor="start" x="125.5" y="-86.2" font-family="Helvetica,sans-Serif" baseline-shift="super" font-size="11.00">(1)</text>
</g>
<!-- x0&#45;&gt;a11 -->
<g id="edge1" class="edge">
<title>x0&#45;&gt;a11</title>
<path fill="none" stroke="lightgrey" d="M50.64,-182.32C65.14,-163.68 91.23,-130.14 108.07,-108.49"/>
<polygon fill="lightgrey" stroke="lightgrey" points="109.89,-110.13 112.25,-103.1 106.02,-107.12 109.89,-110.13"/>
</g>
<!-- a21 -->
<g id="node7" class="node">
<title>a21</title>
<ellipse fill="none" stroke="#ff4a11" cx="125" cy="-34" rx="18" ry="18"/>
<text text-anchor="start" x="112.5" y="-32.2" font-family="Helvetica,sans-Serif" font-size="11.00">a</text>
<text text-anchor="start" x="119.5" y="-32.2" font-family="Helvetica,sans-Serif" baseline-shift="sub" font-size="11.00">3</text>
<text text-anchor="start" x="125.5" y="-32.2" font-family="Helvetica,sans-Serif" baseline-shift="super" font-size="11.00">(1)</text>
</g>
<!-- x0&#45;&gt;a21 -->
<g id="edge2" class="edge">
<title>x0&#45;&gt;a21</title>
<path fill="none" stroke="lightgrey" d="M48.21,-180.17C63.11,-151.43 94.69,-90.53 112.01,-57.13"/>
<polygon fill="lightgrey" stroke="lightgrey" points="114.14,-58.34 115.19,-51 109.79,-56.08 114.14,-58.34"/>
</g>
<!-- a31 -->
<g id="node8" class="node">
<title>a31</title>
<ellipse fill="none" stroke="#ff4a11" cx="125" cy="-142" rx="18" ry="18"/>
<text text-anchor="start" x="112.5" y="-140.2" font-family="Helvetica,sans-Serif" font-size="11.00">a</text>
<text text-anchor="start" x="119.5" y="-140.2" font-family="Helvetica,sans-Serif" baseline-shift="sub" font-size="11.00">1</text>
<text text-anchor="start" x="125.5" y="-140.2" font-family="Helvetica,sans-Serif" baseline-shift="super" font-size="11.00">(1)</text>
</g>
<!-- x0&#45;&gt;a31 -->
<g id="edge3" class="edge">
<title>x0&#45;&gt;a31</title>
<path fill="none" stroke="lightgrey" d="M54.63,-186.59C67.8,-178.13 87.33,-165.58 102.31,-155.94"/>
<polygon fill="lightgrey" stroke="lightgrey" points="103.42,-158.14 107.98,-152.3 100.77,-154.02 103.42,-158.14"/>
</g>
<!-- x1 -->
<g id="node2" class="node">
<title>x1</title>
<ellipse fill="none" stroke="black" cx="39" cy="-142" rx="18" ry="18"/>
<text text-anchor="start" x="32" y="-139.3" font-family="Helvetica,sans-Serif" font-size="14.00">x</text>
<text text-anchor="start" x="39" y="-139.3" font-family="Helvetica,sans-Serif" baseline-shift="sub" font-size="14.00">1</text>
</g>
<!-- x1&#45;&gt;a11 -->
<g id="edge4" class="edge">
<title>x1&#45;&gt;a11</title>
<path fill="none" stroke="lightgrey" stroke-width="0.2" d="M54.63,-132.59C68.64,-123.59 89.84,-109.96 105.11,-100.14"/>
<polygon fill="lightgrey" stroke="lightgrey" stroke-width="0.2" points="105.74,-101.82 109,-97.64 103.85,-98.87 105.74,-101.82"/>
</g>
<!-- x1&#45;&gt;a21 -->
<g id="edge5" class="edge">
<title>x1&#45;&gt;a21</title>
<path fill="none" stroke="lightgrey" d="M50.64,-128.32C65.14,-109.68 91.23,-76.14 108.07,-54.49"/>
<polygon fill="lightgrey" stroke="lightgrey" points="109.89,-56.13 112.25,-49.1 106.02,-53.12 109.89,-56.13"/>
</g>
<!-- x1&#45;&gt;a31 -->
<g id="edge6" class="edge">
<title>x1&#45;&gt;a31</title>
<path fill="none" stroke="lightgrey" stroke-width="0.2" d="M57.4,-142C70.13,-142 87.51,-142 101.32,-142"/>
<polygon fill="lightgrey" stroke="lightgrey" stroke-width="0.2" points="101.31,-143.75 106.31,-142 101.31,-140.25 101.31,-143.75"/>
</g>
<!-- x2 -->
<g id="node3" class="node">
<title>x2</title>
<ellipse fill="none" stroke="black" cx="39" cy="-88" rx="18" ry="18"/>
<text text-anchor="start" x="32" y="-85.3" font-family="Helvetica,sans-Serif" font-size="14.00">x</text>
<text text-anchor="start" x="39" y="-85.3" font-family="Helvetica,sans-Serif" baseline-shift="sub" font-size="14.00">2</text>
</g>
<!-- x2&#45;&gt;a11 -->
<g id="edge7" class="edge">
<title>x2&#45;&gt;a11</title>
<path fill="none" stroke="lightgrey" d="M57.4,-88C69.23,-88 85.07,-88 98.34,-88"/>
<polygon fill="lightgrey" stroke="lightgrey" points="98.1,-90.45 105.1,-88 98.1,-85.55 98.1,-90.45"/>
</g>
<!-- x2&#45;&gt;a21 -->
<g id="edge8" class="edge">
<title>x2&#45;&gt;a21</title>
<path fill="none" stroke="lightgrey" stroke-width="0.2" d="M54.63,-78.59C68.64,-69.59 89.84,-55.96 105.11,-46.14"/>
<polygon fill="lightgrey" stroke="lightgrey" stroke-width="0.2" points="105.74,-47.82 109,-43.64 103.85,-44.87 105.74,-47.82"/>
</g>
<!-- x2&#45;&gt;a31 -->
<g id="edge9" class="edge">
<title>x2&#45;&gt;a31</title>
<path fill="none" stroke="lightgrey" d="M54.63,-97.41C67.8,-105.87 87.33,-118.42 102.31,-128.06"/>
<polygon fill="lightgrey" stroke="lightgrey" points="100.77,-129.98 107.98,-131.7 103.42,-125.86 100.77,-129.98"/>
</g>
<!-- x3 -->
<g id="node4" class="node">
<title>x3</title>
<ellipse fill="none" stroke="black" cx="39" cy="-34" rx="18" ry="18"/>
<text text-anchor="start" x="32" y="-31.3" font-family="Helvetica,sans-Serif" font-size="14.00">x</text>
<text text-anchor="start" x="39" y="-31.3" font-family="Helvetica,sans-Serif" baseline-shift="sub" font-size="14.00">3</text>
</g>
<!-- x3&#45;&gt;a11 -->
<g id="edge10" class="edge">
<title>x3&#45;&gt;a11</title>
<path fill="none" stroke="lightgrey" stroke-width="0.2" d="M54.63,-43.41C68.64,-52.41 89.84,-66.04 105.11,-75.86"/>
<polygon fill="lightgrey" stroke="lightgrey" stroke-width="0.2" points="103.85,-77.13 109,-78.36 105.74,-74.18 103.85,-77.13"/>
</g>
<!-- x3&#45;&gt;a21 -->
<g id="edge11" class="edge">
<title>x3&#45;&gt;a21</title>
<path fill="none" stroke="lightgrey" d="M57.4,-34C69.23,-34 85.07,-34 98.34,-34"/>
<polygon fill="lightgrey" stroke="lightgrey" points="98.1,-36.45 105.1,-34 98.1,-31.55 98.1,-36.45"/>
</g>
<!-- x3&#45;&gt;a31 -->
<g id="edge12" class="edge">
<title>x3&#45;&gt;a31</title>
<path fill="none" stroke="lightgrey" d="M50.64,-47.68C65.14,-66.32 91.23,-99.86 108.07,-121.51"/>
<polygon fill="lightgrey" stroke="lightgrey" points="106.02,-122.88 112.25,-126.9 109.89,-119.87 106.02,-122.88"/>
</g>
<!-- a01 -->
<g id="node5" class="node">
<title>a01</title>
<ellipse fill="none" stroke="#ff4a11" cx="125" cy="-196" rx="18" ry="18"/>
<text text-anchor="start" x="115.5" y="-194.2" font-family="Helvetica,sans-Serif" font-size="11.00">b</text>
<text text-anchor="start" x="122.5" y="-194.2" font-family="Helvetica,sans-Serif" baseline-shift="super" font-size="11.00">(2)</text>
</g>
<!-- a12 -->
<g id="node10" class="node">
<title>a12</title>
<ellipse fill="none" stroke="#ff4a11" cx="197" cy="-88" rx="18" ry="18"/>
<text text-anchor="start" x="184.5" y="-86.2" font-family="Helvetica,sans-Serif" font-size="11.00">a</text>
<text text-anchor="start" x="191.5" y="-86.2" font-family="Helvetica,sans-Serif" baseline-shift="sub" font-size="11.00">2</text>
<text text-anchor="start" x="197.5" y="-86.2" font-family="Helvetica,sans-Serif" baseline-shift="super" font-size="11.00">(2)</text>
</g>
<!-- a01&#45;&gt;a12 -->
<g id="edge13" class="edge">
<title>a01&#45;&gt;a12</title>
<path fill="none" stroke="lightgrey" d="M135.73,-180.98C147.7,-162.53 168.09,-131.06 181.8,-109.9"/>
<polygon fill="lightgrey" stroke="lightgrey" points="183.77,-111.37 185.53,-104.16 179.66,-108.7 183.77,-111.37"/>
</g>
<!-- a22 -->
<g id="node11" class="node">
<title>a22</title>
<ellipse fill="none" stroke="#ff4a11" cx="197" cy="-34" rx="18" ry="18"/>
<text text-anchor="start" x="184.5" y="-32.2" font-family="Helvetica,sans-Serif" font-size="11.00">a</text>
<text text-anchor="start" x="191.5" y="-32.2" font-family="Helvetica,sans-Serif" baseline-shift="sub" font-size="11.00">3</text>
<text text-anchor="start" x="197.5" y="-32.2" font-family="Helvetica,sans-Serif" baseline-shift="super" font-size="11.00">(2)</text>
</g>
<!-- a01&#45;&gt;a22 -->
<g id="edge14" class="edge">
<title>a01&#45;&gt;a22</title>
<path fill="none" stroke="lightgrey" d="M133.1,-179.58C145.52,-150.83 171.24,-91.3 185.65,-57.95"/>
<polygon fill="lightgrey" stroke="lightgrey" points="187.76,-59.26 188.28,-51.86 183.26,-57.31 187.76,-59.26"/>
</g>
<!-- a32 -->
<g id="node12" class="node">
<title>a32</title>
<ellipse fill="none" stroke="#ff4a11" cx="197" cy="-142" rx="18" ry="18"/>
<text text-anchor="start" x="184.5" y="-140.2" font-family="Helvetica,sans-Serif" font-size="11.00">a</text>
<text text-anchor="start" x="191.5" y="-140.2" font-family="Helvetica,sans-Serif" baseline-shift="sub" font-size="11.00">1</text>
<text text-anchor="start" x="197.5" y="-140.2" font-family="Helvetica,sans-Serif" baseline-shift="super" font-size="11.00">(2)</text>
</g>
<!-- a01&#45;&gt;a32 -->
<g id="edge15" class="edge">
<title>a01&#45;&gt;a32</title>
<path fill="none" stroke="lightgrey" d="M139.83,-185.33C150.09,-177.42 164.23,-166.51 175.76,-157.61"/>
<polygon fill="lightgrey" stroke="lightgrey" points="176.95,-159.79 181,-153.57 173.96,-155.91 176.95,-159.79"/>
</g>
<!-- a11&#45;&gt;a12 -->
<g id="edge16" class="edge">
<title>a11&#45;&gt;a12</title>
<path fill="none" stroke="lightgrey" stroke-width="0.2" d="M143.3,-88C152.46,-88 163.81,-88 173.62,-88"/>
<polygon fill="lightgrey" stroke="lightgrey" stroke-width="0.2" points="173.59,-89.75 178.59,-88 173.59,-86.25 173.59,-89.75"/>
</g>
<!-- a11&#45;&gt;a22 -->
<g id="edge17" class="edge">
<title>a11&#45;&gt;a22</title>
<path fill="none" stroke="lightgrey" d="M139.83,-77.33C150.09,-69.42 164.23,-58.51 175.76,-49.61"/>
<polygon fill="lightgrey" stroke="lightgrey" points="176.95,-51.79 181,-45.57 173.96,-47.91 176.95,-51.79"/>
</g>
<!-- a11&#45;&gt;a32 -->
<g id="edge18" class="edge">
<title>a11&#45;&gt;a32</title>
<path fill="none" stroke="lightgrey" d="M139.83,-98.67C150.09,-106.58 164.23,-117.49 175.76,-126.39"/>
<polygon fill="lightgrey" stroke="lightgrey" points="173.96,-128.09 181,-130.43 176.95,-124.21 173.96,-128.09"/>
</g>
<!-- a21&#45;&gt;a12 -->
<g id="edge19" class="edge">
<title>a21&#45;&gt;a12</title>
<path fill="none" stroke="lightgrey" d="M139.83,-44.67C150.09,-52.58 164.23,-63.49 175.76,-72.39"/>
<polygon fill="lightgrey" stroke="lightgrey" points="173.96,-74.09 181,-76.43 176.95,-70.21 173.96,-74.09"/>
</g>
<!-- a21&#45;&gt;a22 -->
<g id="edge20" class="edge">
<title>a21&#45;&gt;a22</title>
<path fill="none" stroke="lightgrey" stroke-width="0.2" d="M143.3,-34C152.46,-34 163.81,-34 173.62,-34"/>
<polygon fill="lightgrey" stroke="lightgrey" stroke-width="0.2" points="173.59,-35.75 178.59,-34 173.59,-32.25 173.59,-35.75"/>
</g>
<!-- a21&#45;&gt;a32 -->
<g id="edge21" class="edge">
<title>a21&#45;&gt;a32</title>
<path fill="none" stroke="lightgrey" stroke-width="0.2" d="M135.73,-49.02C148.22,-68.28 169.89,-101.72 183.56,-122.81"/>
<polygon fill="lightgrey" stroke="lightgrey" stroke-width="0.2" points="182,-123.61 186.18,-126.86 184.93,-121.71 182,-123.61"/>
</g>
<!-- a31&#45;&gt;a12 -->
<g id="edge22" class="edge">
<title>a31&#45;&gt;a12</title>
<path fill="none" stroke="lightgrey" stroke-width="0.2" d="M139.83,-131.33C150.86,-122.83 166.37,-110.86 178.3,-101.65"/>
<polygon fill="lightgrey" stroke="lightgrey" stroke-width="0.2" points="179.07,-103.27 181.96,-98.83 176.93,-100.5 179.07,-103.27"/>
</g>
<!-- a31&#45;&gt;a22 -->
<g id="edge23" class="edge">
<title>a31&#45;&gt;a22</title>
<path fill="none" stroke="lightgrey" d="M135.73,-126.98C147.7,-108.53 168.09,-77.06 181.8,-55.9"/>
<polygon fill="lightgrey" stroke="lightgrey" points="183.77,-57.37 185.53,-50.16 179.66,-54.7 183.77,-57.37"/>
</g>
<!-- a31&#45;&gt;a32 -->
<g id="edge24" class="edge">
<title>a31&#45;&gt;a32</title>
<path fill="none" stroke="lightgrey" stroke-width="0.2" d="M143.3,-142C152.46,-142 163.81,-142 173.62,-142"/>
<polygon fill="lightgrey" stroke="lightgrey" stroke-width="0.2" points="173.59,-143.75 178.59,-142 173.59,-140.25 173.59,-143.75"/>
</g>
<!-- a02 -->
<g id="node9" class="node">
<title>a02</title>
<ellipse fill="none" stroke="#ff4a11" cx="197" cy="-196" rx="18" ry="18"/>
<text text-anchor="start" x="187.5" y="-194.2" font-family="Helvetica,sans-Serif" font-size="11.00">b</text>
<text text-anchor="start" x="194.5" y="-194.2" font-family="Helvetica,sans-Serif" baseline-shift="super" font-size="11.00">(3)</text>
</g>
<!-- a13 -->
<g id="node14" class="node">
<title>a13</title>
<ellipse fill="none" stroke="#ff4a11" cx="269" cy="-88" rx="18" ry="18"/>
<text text-anchor="start" x="256.5" y="-86.2" font-family="Helvetica,sans-Serif" font-size="11.00">a</text>
<text text-anchor="start" x="263.5" y="-86.2" font-family="Helvetica,sans-Serif" baseline-shift="sub" font-size="11.00">2</text>
<text text-anchor="start" x="269.5" y="-86.2" font-family="Helvetica,sans-Serif" baseline-shift="super" font-size="11.00">(3)</text>
</g>
<!-- a02&#45;&gt;a13 -->
<g id="edge25" class="edge">
<title>a02&#45;&gt;a13</title>
<path fill="none" stroke="lightgrey" d="M207.73,-180.98C219.7,-162.53 240.09,-131.06 253.8,-109.9"/>
<polygon fill="lightgrey" stroke="lightgrey" points="255.77,-111.37 257.53,-104.16 251.66,-108.7 255.77,-111.37"/>
</g>
<!-- a23 -->
<g id="node15" class="node">
<title>a23</title>
<ellipse fill="none" stroke="#ff4a11" cx="269" cy="-34" rx="18" ry="18"/>
<text text-anchor="start" x="256.5" y="-32.2" font-family="Helvetica,sans-Serif" font-size="11.00">a</text>
<text text-anchor="start" x="263.5" y="-32.2" font-family="Helvetica,sans-Serif" baseline-shift="sub" font-size="11.00">3</text>
<text text-anchor="start" x="269.5" y="-32.2" font-family="Helvetica,sans-Serif" baseline-shift="super" font-size="11.00">(3)</text>
</g>
<!-- a02&#45;&gt;a23 -->
<g id="edge26" class="edge">
<title>a02&#45;&gt;a23</title>
<path fill="none" stroke="lightgrey" d="M205.1,-179.58C217.52,-150.83 243.24,-91.3 257.65,-57.95"/>
<polygon fill="lightgrey" stroke="lightgrey" points="259.76,-59.26 260.28,-51.86 255.26,-57.31 259.76,-59.26"/>
</g>
<!-- a33 -->
<g id="node16" class="node">
<title>a33</title>
<ellipse fill="none" stroke="#ff4a11" cx="269" cy="-142" rx="18" ry="18"/>
<text text-anchor="start" x="256.5" y="-140.2" font-family="Helvetica,sans-Serif" font-size="11.00">a</text>
<text text-anchor="start" x="263.5" y="-140.2" font-family="Helvetica,sans-Serif" baseline-shift="sub" font-size="11.00">1</text>
<text text-anchor="start" x="269.5" y="-140.2" font-family="Helvetica,sans-Serif" baseline-shift="super" font-size="11.00">(3)</text>
</g>
<!-- a02&#45;&gt;a33 -->
<g id="edge27" class="edge">
<title>a02&#45;&gt;a33</title>
<path fill="none" stroke="lightgrey" d="M211.83,-185.33C222.09,-177.42 236.23,-166.51 247.76,-157.61"/>
<polygon fill="lightgrey" stroke="lightgrey" points="248.95,-159.79 253,-153.57 245.96,-155.91 248.95,-159.79"/>
</g>
<!-- a12&#45;&gt;a13 -->
<g id="edge28" class="edge">
<title>a12&#45;&gt;a13</title>
<path fill="none" stroke="lightgrey" stroke-width="0.2" d="M215.3,-88C224.46,-88 235.81,-88 245.62,-88"/>
<polygon fill="lightgrey" stroke="lightgrey" stroke-width="0.2" points="245.59,-89.75 250.59,-88 245.59,-86.25 245.59,-89.75"/>
</g>
<!-- a12&#45;&gt;a23 -->
<g id="edge29" class="edge">
<title>a12&#45;&gt;a23</title>
<path fill="none" stroke="lightgrey" d="M211.83,-77.33C222.09,-69.42 236.23,-58.51 247.76,-49.61"/>
<polygon fill="lightgrey" stroke="lightgrey" points="248.95,-51.79 253,-45.57 245.96,-47.91 248.95,-51.79"/>
</g>
<!-- a12&#45;&gt;a33 -->
<g id="edge30" class="edge">
<title>a12&#45;&gt;a33</title>
<path fill="none" stroke="lightgrey" stroke-width="0.2" d="M211.83,-98.67C222.86,-107.17 238.37,-119.14 250.3,-128.35"/>
<polygon fill="lightgrey" stroke="lightgrey" stroke-width="0.2" points="248.93,-129.5 253.96,-131.17 251.07,-126.73 248.93,-129.5"/>
</g>
<!-- a22&#45;&gt;a13 -->
<g id="edge31" class="edge">
<title>a22&#45;&gt;a13</title>
<path fill="none" stroke="lightgrey" d="M211.83,-44.67C222.09,-52.58 236.23,-63.49 247.76,-72.39"/>
<polygon fill="lightgrey" stroke="lightgrey" points="245.96,-74.09 253,-76.43 248.95,-70.21 245.96,-74.09"/>
</g>
<!-- a22&#45;&gt;a23 -->
<g id="edge32" class="edge">
<title>a22&#45;&gt;a23</title>
<path fill="none" stroke="lightgrey" stroke-width="0.2" d="M215.3,-34C224.46,-34 235.81,-34 245.62,-34"/>
<polygon fill="lightgrey" stroke="lightgrey" stroke-width="0.2" points="245.59,-35.75 250.59,-34 245.59,-32.25 245.59,-35.75"/>
</g>
<!-- a22&#45;&gt;a33 -->
<g id="edge33" class="edge">
<title>a22&#45;&gt;a33</title>
<path fill="none" stroke="lightgrey" stroke-width="0.2" d="M207.73,-49.02C220.22,-68.28 241.89,-101.72 255.56,-122.81"/>
<polygon fill="lightgrey" stroke="lightgrey" stroke-width="0.2" points="254,-123.61 258.18,-126.86 256.93,-121.71 254,-123.61"/>
</g>
<!-- a32&#45;&gt;a13 -->
<g id="edge34" class="edge">
<title>a32&#45;&gt;a13</title>
<path fill="none" stroke="lightgrey" stroke-width="0.2" d="M211.83,-131.33C222.86,-122.83 238.37,-110.86 250.3,-101.65"/>
<polygon fill="lightgrey" stroke="lightgrey" stroke-width="0.2" points="251.07,-103.27 253.96,-98.83 248.93,-100.5 251.07,-103.27"/>
</g>
<!-- a32&#45;&gt;a23 -->
<g id="edge35" class="edge">
<title>a32&#45;&gt;a23</title>
<path fill="none" stroke="lightgrey" d="M207.73,-126.98C219.7,-108.53 240.09,-77.06 253.8,-55.9"/>
<polygon fill="lightgrey" stroke="lightgrey" points="255.77,-57.37 257.53,-50.16 251.66,-54.7 255.77,-57.37"/>
</g>
<!-- a32&#45;&gt;a33 -->
<g id="edge36" class="edge">
<title>a32&#45;&gt;a33</title>
<path fill="none" stroke="lightgrey" stroke-width="0.2" d="M215.3,-142C224.46,-142 235.81,-142 245.62,-142"/>
<polygon fill="lightgrey" stroke="lightgrey" stroke-width="0.2" points="245.59,-143.75 250.59,-142 245.59,-140.25 245.59,-143.75"/>
</g>
<!-- a03 -->
<g id="node13" class="node">
<title>a03</title>
<ellipse fill="none" stroke="#ff4a11" cx="269" cy="-196" rx="18" ry="18"/>
<text text-anchor="start" x="259.5" y="-194.2" font-family="Helvetica,sans-Serif" font-size="11.00">b</text>
<text text-anchor="start" x="266.5" y="-194.2" font-family="Helvetica,sans-Serif" baseline-shift="super" font-size="11.00">(4)</text>
</g>
<!-- a14 -->
<g id="node18" class="node">
<title>a14</title>
<ellipse fill="none" stroke="#ff4a11" cx="341" cy="-142" rx="18" ry="18"/>
<text text-anchor="start" x="328.5" y="-140.2" font-family="Helvetica,sans-Serif" font-size="11.00">a</text>
<text text-anchor="start" x="335.5" y="-140.2" font-family="Helvetica,sans-Serif" baseline-shift="sub" font-size="11.00">1</text>
<text text-anchor="start" x="341.5" y="-140.2" font-family="Helvetica,sans-Serif" baseline-shift="super" font-size="11.00">(4)</text>
</g>
<!-- a03&#45;&gt;a14 -->
<g id="edge37" class="edge">
<title>a03&#45;&gt;a14</title>
<path fill="none" stroke="lightgrey" d="M283.83,-185.33C294.09,-177.42 308.23,-166.51 319.76,-157.61"/>
<polygon fill="lightgrey" stroke="lightgrey" points="320.95,-159.79 325,-153.57 317.96,-155.91 320.95,-159.79"/>
</g>
<!-- a24 -->
<g id="node19" class="node">
<title>a24</title>
<ellipse fill="none" stroke="#ff4a11" cx="341" cy="-88" rx="18" ry="18"/>
<text text-anchor="start" x="328.5" y="-86.2" font-family="Helvetica,sans-Serif" font-size="11.00">a</text>
<text text-anchor="start" x="335.5" y="-86.2" font-family="Helvetica,sans-Serif" baseline-shift="sub" font-size="11.00">2</text>
<text text-anchor="start" x="341.5" y="-86.2" font-family="Helvetica,sans-Serif" baseline-shift="super" font-size="11.00">(4)</text>
</g>
<!-- a03&#45;&gt;a24 -->
<g id="edge38" class="edge">
<title>a03&#45;&gt;a24</title>
<path fill="none" stroke="lightgrey" d="M279.73,-180.98C291.7,-162.53 312.09,-131.06 325.8,-109.9"/>
<polygon fill="lightgrey" stroke="lightgrey" points="327.77,-111.37 329.53,-104.16 323.66,-108.7 327.77,-111.37"/>
</g>
<!-- a34 -->
<g id="node20" class="node">
<title>a34</title>
<ellipse fill="none" stroke="#ff4a11" cx="341" cy="-34" rx="18" ry="18"/>
<text text-anchor="start" x="328.5" y="-32.2" font-family="Helvetica,sans-Serif" font-size="11.00">a</text>
<text text-anchor="start" x="335.5" y="-32.2" font-family="Helvetica,sans-Serif" baseline-shift="sub" font-size="11.00">3</text>
<text text-anchor="start" x="341.5" y="-32.2" font-family="Helvetica,sans-Serif" baseline-shift="super" font-size="11.00">(4)</text>
</g>
<!-- a03&#45;&gt;a34 -->
<g id="edge39" class="edge">
<title>a03&#45;&gt;a34</title>
<path fill="none" stroke="lightgrey" d="M277.1,-179.58C289.52,-150.83 315.24,-91.3 329.65,-57.95"/>
<polygon fill="lightgrey" stroke="lightgrey" points="331.76,-59.26 332.28,-51.86 327.26,-57.31 331.76,-59.26"/>
</g>
<!-- a13&#45;&gt;a14 -->
<g id="edge40" class="edge">
<title>a13&#45;&gt;a14</title>
<path fill="none" stroke="lightgrey" d="M283.83,-98.67C294.09,-106.58 308.23,-117.49 319.76,-126.39"/>
<polygon fill="lightgrey" stroke="lightgrey" points="317.96,-128.09 325,-130.43 320.95,-124.21 317.96,-128.09"/>
</g>
<!-- a13&#45;&gt;a24 -->
<g id="edge41" class="edge">
<title>a13&#45;&gt;a24</title>
<path fill="none" stroke="lightgrey" stroke-width="0.2" d="M287.3,-88C296.46,-88 307.81,-88 317.62,-88"/>
<polygon fill="lightgrey" stroke="lightgrey" stroke-width="0.2" points="317.59,-89.75 322.59,-88 317.59,-86.25 317.59,-89.75"/>
</g>
<!-- a13&#45;&gt;a34 -->
<g id="edge42" class="edge">
<title>a13&#45;&gt;a34</title>
<path fill="none" stroke="lightgrey" stroke-width="0.2" d="M283.83,-77.33C294.86,-68.83 310.37,-56.86 322.3,-47.65"/>
<polygon fill="lightgrey" stroke="lightgrey" stroke-width="0.2" points="323.07,-49.27 325.96,-44.83 320.93,-46.5 323.07,-49.27"/>
</g>
<!-- a23&#45;&gt;a14 -->
<g id="edge43" class="edge">
<title>a23&#45;&gt;a14</title>
<path fill="none" stroke="lightgrey" stroke-width="0.2" d="M279.73,-49.02C292.22,-68.28 313.89,-101.72 327.56,-122.81"/>
<polygon fill="lightgrey" stroke="lightgrey" stroke-width="0.2" points="326,-123.61 330.18,-126.86 328.93,-121.71 326,-123.61"/>
</g>
<!-- a23&#45;&gt;a24 -->
<g id="edge44" class="edge">
<title>a23&#45;&gt;a24</title>
<path fill="none" stroke="lightgrey" stroke-width="0.2" d="M283.83,-44.67C294.86,-53.17 310.37,-65.14 322.3,-74.35"/>
<polygon fill="lightgrey" stroke="lightgrey" stroke-width="0.2" points="320.93,-75.5 325.96,-77.17 323.07,-72.73 320.93,-75.5"/>
</g>
<!-- a23&#45;&gt;a34 -->
<g id="edge45" class="edge">
<title>a23&#45;&gt;a34</title>
<path fill="none" stroke="lightgrey" d="M287.3,-34C295.53,-34 305.52,-34 314.58,-34"/>
<polygon fill="lightgrey" stroke="lightgrey" points="314.38,-36.45 321.38,-34 314.38,-31.55 314.38,-36.45"/>
</g>
<!-- a33&#45;&gt;a14 -->
<g id="edge46" class="edge">
<title>a33&#45;&gt;a14</title>
<path fill="none" stroke="lightgrey" d="M287.3,-142C295.53,-142 305.52,-142 314.58,-142"/>
<polygon fill="lightgrey" stroke="lightgrey" points="314.38,-144.45 321.38,-142 314.38,-139.55 314.38,-144.45"/>
</g>
<!-- a33&#45;&gt;a24 -->
<g id="edge47" class="edge">
<title>a33&#45;&gt;a24</title>
<path fill="none" stroke="lightgrey" d="M283.83,-131.33C294.09,-123.42 308.23,-112.51 319.76,-103.61"/>
<polygon fill="lightgrey" stroke="lightgrey" points="320.95,-105.79 325,-99.57 317.96,-101.91 320.95,-105.79"/>
</g>
<!-- a33&#45;&gt;a34 -->
<g id="edge48" class="edge">
<title>a33&#45;&gt;a34</title>
<path fill="none" stroke="lightgrey" stroke-width="0.2" d="M279.73,-126.98C292.22,-107.72 313.89,-74.28 327.56,-53.19"/>
<polygon fill="lightgrey" stroke="lightgrey" stroke-width="0.2" points="328.93,-54.29 330.18,-49.14 326,-52.39 328.93,-54.29"/>
</g>
<!-- a04 -->
<g id="node17" class="node">
<title>a04</title>
<ellipse fill="none" stroke="#ff4a11" cx="341" cy="-196" rx="18" ry="18"/>
<text text-anchor="start" x="331.5" y="-194.2" font-family="Helvetica,sans-Serif" font-size="11.00">b</text>
<text text-anchor="start" x="338.5" y="-194.2" font-family="Helvetica,sans-Serif" baseline-shift="super" font-size="11.00">(5)</text>
</g>
<!-- a15 -->
<g id="node21" class="node">
<title>a15</title>
<ellipse fill="none" stroke="#ff4a11" cx="413" cy="-115" rx="18" ry="18"/>
<text text-anchor="start" x="400.5" y="-113.2" font-family="Helvetica,sans-Serif" font-size="11.00">a</text>
<text text-anchor="start" x="407.5" y="-113.2" font-family="Helvetica,sans-Serif" baseline-shift="sub" font-size="11.00">1</text>
<text text-anchor="start" x="413.5" y="-113.2" font-family="Helvetica,sans-Serif" baseline-shift="super" font-size="11.00">(5)</text>
</g>
<!-- a04&#45;&gt;a15 -->
<g id="edge49" class="edge">
<title>a04&#45;&gt;a15</title>
<path fill="none" stroke="lightgrey" d="M353.56,-182.62C364.81,-169.61 382.03,-149.68 394.87,-134.82"/>
<polygon fill="lightgrey" stroke="lightgrey" points="396.71,-136.44 399.43,-129.54 393,-133.23 396.71,-136.44"/>
</g>
<!-- a14&#45;&gt;a15 -->
<g id="edge50" class="edge">
<title>a14&#45;&gt;a15</title>
<path fill="none" stroke="lightgrey" stroke-width="0.2" d="M358.24,-135.74C368.04,-131.96 380.64,-127.1 391.17,-123.03"/>
<polygon fill="lightgrey" stroke="lightgrey" stroke-width="0.2" points="391.54,-124.77 395.57,-121.34 390.28,-121.5 391.54,-124.77"/>
</g>
<!-- a24&#45;&gt;a15 -->
<g id="edge51" class="edge">
<title>a24&#45;&gt;a15</title>
<path fill="none" stroke="lightgrey" d="M358.24,-94.26C367.07,-97.67 378.17,-101.95 387.99,-105.74"/>
<polygon fill="lightgrey" stroke="lightgrey" points="387.03,-107.99 394.44,-108.23 388.79,-103.42 387.03,-107.99"/>
</g>
<!-- a34&#45;&gt;a15 -->
<g id="edge52" class="edge">
<title>a34&#45;&gt;a15</title>
<path fill="none" stroke="lightgrey" stroke-width="0.2" d="M353.56,-47.38C365.52,-61.21 384.23,-82.86 397.24,-97.93"/>
<polygon fill="lightgrey" stroke="lightgrey" stroke-width="0.2" points="395.63,-98.74 400.23,-101.38 398.28,-96.45 395.63,-98.74"/>
</g>
<!-- O -->
<g id="node22" class="node">
<title>O</title>
<ellipse fill="none" stroke="none" cx="503" cy="-115" rx="36" ry="36"/>
<text text-anchor="middle" x="503" y="-118.8" font-family="Helvetica,sans-Serif" font-size="14.00">output </text>
<text text-anchor="middle" x="503" y="-103.8" font-family="Helvetica,sans-Serif" font-size="14.00"> &amp; error</text>
</g>
<!-- a15&#45;&gt;O -->
<g id="edge53" class="edge">
<title>a15&#45;&gt;O</title>
<path fill="none" stroke="lightgrey" d="M431.39,-115C439.21,-115 448.84,-115 458.43,-115"/>
<polygon fill="lightgrey" stroke="lightgrey" points="458.3,-117.45 465.3,-115 458.3,-112.55 458.3,-117.45"/>
</g>
</g>
</svg>