<?xml version="1.0" encoding="UTF-8" standalone="no"?>
<!DOCTYPE svg PUBLIC "-//W3C//DTD SVG 1.1//EN"
 "http://www.w3.org/Graphics/SVG/1.1/DTD/svg11.dtd">
<!-- Generated by graphviz version 7.1.0 (20230121.1956)
 -->
<!-- Title: G Pages: 1 -->
<svg width="419pt" height="277pt"
 viewBox="0.00 0.00 419.00 277.00" xmlns="http://www.w3.org/2000/svg" xmlns:xlink="http://www.w3.org/1999/xlink">
<g id="graph0" class="graph" transform="scale(1 1) rotate(0) translate(4 273)">
<title>G</title>
<polygon fill="white" stroke="none" points="-4,4 -4,-273 415,-273 415,4 -4,4"/>
<g id="clust1" class="cluster">
<title>cluster_0</title>
<polygon fill="none" stroke="white" points="0,-8 0,-245 79,-245 79,-8 0,-8"/>
<text text-anchor="start" x="8" y="-229.8" font-family="Helvetica,sans-Serif" font-size="14.00" fill="#ff4a11">input layer</text>
</g>
<g id="clust2" class="cluster">
<title>cluster_1</title>
<polygon fill="none" stroke="white" points="142,-9 142,-261 245,-261 245,-9 142,-9"/>
<text text-anchor="start" x="171" y="-245.8" font-family="Helvetica,sans-Serif" font-size="14.00" fill="#ff4a11">layer 1 </text>
<text text-anchor="start" x="150" y="-230.8" font-family="Helvetica,sans-Serif" font-size="14.00" fill="#ff4a11"> (hidden layer)</text>
</g>
<g id="clust3" class="cluster">
<title>cluster_2</title>
<polygon fill="none" stroke="white" points="311,-89 311,-179 411,-179 411,-89 311,-89"/>
<text text-anchor="start" x="338.5" y="-163.8" font-family="Helvetica,sans-Serif" font-size="14.00" fill="#ff4a11">layer 2 </text>
<text text-anchor="start" x="319" y="-148.8" font-family="Helvetica,sans-Serif" font-size="14.00" fill="#ff4a11"> (output layer)</text>
</g>
<!-- x0 -->
<g id="node1" class="node">
<title>x0</title>
<ellipse fill="none" stroke="black" cx="39" cy="-88" rx="18" ry="18"/>
<text text-anchor="start" x="32" y="-85.3" font-family="Helvetica,sans-Serif" font-size="14.00">x</text>
<text text-anchor="start" x="39" y="-85.3" font-family="Helvetica,sans-Serif" baseline-shift="sub" font-size="14.00">2</text>
</g>
<!-- a12 -->
<g id="node6" class="node">
<title>a12</title>
<ellipse fill="none" stroke="#ff4a11" cx="193" cy="-89" rx="18" ry="18"/>
<text text-anchor="start" x="180.5" y="-87.2" font-family="Helvetica,sans-Serif" font-size="11.00">a</text>
<text text-anchor="start" x="187.5" y="-87.2" font-family="Helvetica,sans-Serif" baseline-shift="sub" font-size="11.00">2</text>
<text text-anchor="start" x="193.5" y="-87.2" font-family="Helvetica,sans-Serif" baseline-shift="super" font-size="11.00">(1)</text>
</g>
<!-- x0&#45;&gt;a12 -->
<g id="edge10" class="edge">
<title>x0&#45;&gt;a12</title>
<path fill="none" stroke="lightgrey" d="M57.44,-88.11C84.24,-88.29 135.69,-88.63 166.62,-88.83"/>
<polygon fill="lightgrey" stroke="lightgrey" points="166.24,-91.28 173.25,-88.88 166.27,-86.38 166.24,-91.28"/>
</g>
<!-- a22 -->
<g id="node7" class="node">
<title>a22</title>
<ellipse fill="none" stroke="#ff4a11" cx="193" cy="-35" rx="18" ry="18"/>
<text text-anchor="start" x="180.5" y="-33.2" font-family="Helvetica,sans-Serif" font-size="11.00">a</text>
<text text-anchor="start" x="187.5" y="-33.2" font-family="Helvetica,sans-Serif" baseline-shift="sub" font-size="11.00">3</text>
<text text-anchor="start" x="193.5" y="-33.2" font-family="Helvetica,sans-Serif" baseline-shift="super" font-size="11.00">(1)</text>
</g>
<!-- x0&#45;&gt;a22 -->
<g id="edge11" class="edge">
<title>x0&#45;&gt;a22</title>
<path fill="none" stroke="lightgrey" d="M56.56,-82.23C83.4,-72.87 136.53,-54.34 167.68,-43.48"/>
<polygon fill="lightgrey" stroke="lightgrey" points="168.23,-45.88 174.04,-41.26 166.62,-41.26 168.23,-45.88"/>
</g>
<!-- a32 -->
<g id="node8" class="node">
<title>a32</title>
<ellipse fill="none" stroke="#ff4a11" cx="193" cy="-143" rx="18" ry="18"/>
<text text-anchor="start" x="180.5" y="-141.2" font-family="Helvetica,sans-Serif" font-size="11.00">a</text>
<text text-anchor="start" x="187.5" y="-141.2" font-family="Helvetica,sans-Serif" baseline-shift="sub" font-size="11.00">1</text>
<text text-anchor="start" x="193.5" y="-141.2" font-family="Helvetica,sans-Serif" baseline-shift="super" font-size="11.00">(1)</text>
</g>
<!-- x0&#45;&gt;a32 -->
<g id="edge12" class="edge">
<title>x0&#45;&gt;a32</title>
<path fill="none" stroke="lightgrey" d="M56.27,-93.89C83.12,-103.6 136.86,-123.05 168.06,-134.34"/>
<polygon fill="lightgrey" stroke="lightgrey" points="167.01,-136.56 174.43,-136.64 168.68,-131.96 167.01,-136.56"/>
</g>
<!-- x2 -->
<g id="node2" class="node">
<title>x2</title>
<ellipse fill="none" stroke="black" cx="39" cy="-34" rx="18" ry="18"/>
<text text-anchor="start" x="32" y="-31.3" font-family="Helvetica,sans-Serif" font-size="14.00">x</text>
<text text-anchor="start" x="39" y="-31.3" font-family="Helvetica,sans-Serif" baseline-shift="sub" font-size="14.00">3</text>
</g>
<!-- x2&#45;&gt;a12 -->
<g id="edge4" class="edge">
<title>x2&#45;&gt;a12</title>
<path fill="none" stroke="lightgrey" d="M56.27,-39.89C83.12,-49.6 136.86,-69.05 168.06,-80.34"/>
<polygon fill="lightgrey" stroke="lightgrey" points="167.01,-82.56 174.43,-82.64 168.68,-77.96 167.01,-82.56"/>
</g>
<!-- x2&#45;&gt;a22 -->
<g id="edge5" class="edge">
<title>x2&#45;&gt;a22</title>
<path fill="none" stroke="lightgrey" d="M57.44,-34.11C84.24,-34.29 135.69,-34.63 166.62,-34.83"/>
<polygon fill="lightgrey" stroke="lightgrey" points="166.24,-37.28 173.25,-34.88 166.27,-32.38 166.24,-37.28"/>
</g>
<!-- x2&#45;&gt;a32 -->
<g id="edge6" class="edge">
<title>x2&#45;&gt;a32</title>
<path fill="none" stroke="lightgrey" d="M54.3,-44.25C81.37,-63.67 140.19,-105.84 171.47,-128.28"/>
<polygon fill="lightgrey" stroke="lightgrey" points="169.72,-130.04 176.84,-132.13 172.58,-126.06 169.72,-130.04"/>
</g>
<!-- x3 -->
<g id="node3" class="node">
<title>x3</title>
<ellipse fill="none" stroke="black" cx="39" cy="-196" rx="18" ry="18"/>
<text text-anchor="start" x="29.5" y="-194.2" font-family="Helvetica,sans-Serif" font-size="11.00">b</text>
<text text-anchor="start" x="36.5" y="-194.2" font-family="Helvetica,sans-Serif" baseline-shift="super" font-size="11.00">(1)</text>
</g>
<!-- x3&#45;&gt;a12 -->
<g id="edge7" class="edge">
<title>x3&#45;&gt;a12</title>
<path fill="none" stroke="lightgrey" d="M54.3,-185.93C81.23,-166.97 139.59,-125.89 170.99,-103.79"/>
<polygon fill="lightgrey" stroke="lightgrey" points="172.08,-106.02 176.39,-99.99 169.26,-102.01 172.08,-106.02"/>
<text text-anchor="start" x="89" y="-200.2" font-family="Helvetica,sans-Serif" font-size="11.00">bias unit,</text>
<text text-anchor="start" x="98" y="-188.2" font-family="Helvetica,sans-Serif" font-size="11.00"> b=1 </text>
<text text-anchor="start" x="108.5" y="-176.2" font-family="Helvetica,sans-Serif" font-size="11.00"> </text>
</g>
<!-- x3&#45;&gt;a22 -->
<g id="edge8" class="edge">
<title>x3&#45;&gt;a22</title>
<path fill="none" stroke="lightgrey" d="M52.18,-183.1C79,-154.7 143.21,-86.67 174.4,-53.64"/>
<polygon fill="lightgrey" stroke="lightgrey" points="176.12,-55.39 179.14,-48.62 172.55,-52.03 176.12,-55.39"/>
</g>
<!-- x3&#45;&gt;a32 -->
<g id="edge9" class="edge">
<title>x3&#45;&gt;a32</title>
<path fill="none" stroke="lightgrey" d="M56.56,-190.23C83.4,-180.87 136.53,-162.34 167.68,-151.48"/>
<polygon fill="lightgrey" stroke="lightgrey" points="168.23,-153.88 174.04,-149.26 166.62,-149.26 168.23,-153.88"/>
</g>
<!-- x1 -->
<g id="node4" class="node">
<title>x1</title>
<ellipse fill="none" stroke="black" cx="39" cy="-142" rx="18" ry="18"/>
<text text-anchor="start" x="32" y="-139.3" font-family="Helvetica,sans-Serif" font-size="14.00">x</text>
<text text-anchor="start" x="39" y="-139.3" font-family="Helvetica,sans-Serif" baseline-shift="sub" font-size="14.00">1</text>
</g>
<!-- x1&#45;&gt;a12 -->
<g id="edge1" class="edge">
<title>x1&#45;&gt;a12</title>
<path fill="none" stroke="lightgrey" d="M56.56,-136.23C83.4,-126.87 136.53,-108.34 167.68,-97.48"/>
<polygon fill="lightgrey" stroke="lightgrey" points="168.23,-99.88 174.04,-95.26 166.62,-95.26 168.23,-99.88"/>
</g>
<!-- x1&#45;&gt;a22 -->
<g id="edge2" class="edge">
<title>x1&#45;&gt;a22</title>
<path fill="none" stroke="lightgrey" d="M54.3,-131.93C81.23,-112.97 139.59,-71.89 170.99,-49.79"/>
<polygon fill="lightgrey" stroke="lightgrey" points="172.08,-52.02 176.39,-45.99 169.26,-48.01 172.08,-52.02"/>
</g>
<!-- x1&#45;&gt;a32 -->
<g id="edge3" class="edge">
<title>x1&#45;&gt;a32</title>
<path fill="none" stroke="lightgrey" d="M57.44,-142.11C84.24,-142.29 135.69,-142.63 166.62,-142.83"/>
<polygon fill="lightgrey" stroke="lightgrey" points="166.24,-145.28 173.25,-142.88 166.27,-140.38 166.24,-145.28"/>
</g>
<!-- a02 -->
<g id="node5" class="node">
<title>a02</title>
<ellipse fill="none" stroke="#ff4a11" cx="193" cy="-197" rx="18" ry="18"/>
<text text-anchor="start" x="183.5" y="-195.2" font-family="Helvetica,sans-Serif" font-size="11.00">b</text>
<text text-anchor="start" x="190.5" y="-195.2" font-family="Helvetica,sans-Serif" baseline-shift="super" font-size="11.00">(2)</text>
</g>
<!-- a13 -->
<g id="node9" class="node">
<title>a13</title>
<ellipse fill="none" stroke="#ff4a11" cx="361" cy="-115" rx="18" ry="18"/>
<text text-anchor="start" x="346" y="-113.2" font-family="Helvetica,sans-Serif" font-size="11.00">h</text>
<text text-anchor="start" x="353" y="-113.2" font-family="Helvetica,sans-Serif" baseline-shift="sub" font-size="11.00">W</text>
<text text-anchor="start" x="363" y="-113.2" font-family="Helvetica,sans-Serif" font-size="11.00">(x)</text>
</g>
<!-- a02&#45;&gt;a13 -->
<g id="edge13" class="edge">
<title>a02&#45;&gt;a13</title>
<path fill="none" stroke="lightgrey" d="M209.62,-189.29C239.03,-174.76 302.76,-143.27 337.06,-126.33"/>
<polygon fill="lightgrey" stroke="lightgrey" points="337.76,-128.72 342.95,-123.42 335.59,-124.33 337.76,-128.72"/>
<text text-anchor="start" x="255" y="-180.2" font-family="Helvetica,sans-Serif" font-size="11.00">bias unit, </text>
<text text-anchor="start" x="267" y="-168.2" font-family="Helvetica,sans-Serif" font-size="11.00"> b=1</text>
</g>
<!-- a12&#45;&gt;a13 -->
<g id="edge14" class="edge">
<title>a12&#45;&gt;a13</title>
<path fill="none" stroke="lightgrey" d="M211.14,-91.68C240.46,-96.28 300.4,-105.67 334.6,-111.02"/>
<polygon fill="lightgrey" stroke="lightgrey" points="333.91,-113.39 341.21,-112.06 334.67,-108.55 333.91,-113.39"/>
</g>
<!-- a22&#45;&gt;a13 -->
<g id="edge15" class="edge">
<title>a22&#45;&gt;a13</title>
<path fill="none" stroke="lightgrey" d="M209.62,-42.53C239.03,-56.7 302.76,-87.42 337.06,-103.94"/>
<polygon fill="lightgrey" stroke="lightgrey" points="335.57,-105.95 342.94,-106.78 337.7,-101.53 335.57,-105.95"/>
</g>
<!-- a32&#45;&gt;a13 -->
<g id="edge16" class="edge">
<title>a32&#45;&gt;a13</title>
<path fill="none" stroke="lightgrey" d="M211.14,-140.11C240.62,-135.14 301.03,-124.95 335.13,-119.19"/>
<polygon fill="lightgrey" stroke="lightgrey" points="335.21,-121.67 341.71,-118.09 334.4,-116.83 335.21,-121.67"/>
</g>
</g>
</svg>