<?xml version="1.0" encoding="UTF-8" standalone="no"?>
<!DOCTYPE svg PUBLIC "-//W3C//DTD SVG 1.1//EN"
 "http://www.w3.org/Graphics/SVG/1.1/DTD/svg11.dtd">
<!-- Generated by graphviz version 7.1.0 (20230121.1956)
 -->
<!-- Title: G Pages: 1 -->
<svg width="273pt" height="261pt"
 viewBox="0.00 0.00 273.00 261.00" xmlns="http://www.w3.org/2000/svg" xmlns:xlink="http://www.w3.org/1999/xlink">
<g id="graph0" class="graph" transform="scale(1 1) rotate(0) translate(4 257)">
<title>G</title>
<polygon fill="white" stroke="none" points="-4,4 -4,-257 269,-257 269,4 -4,4"/>
<g id="clust1" class="cluster">
<title>cluster_0</title>
<polygon fill="none" stroke="white" points="0,-8 0,-245 79,-245 79,-8 0,-8"/>
<text text-anchor="start" x="8" y="-229.8" font-family="Helvetica,sans-Serif" font-size="14.00" fill="#ff4a11">input layer</text>
</g>
<g id="clust2" class="cluster">
<title>cluster_1</title>
<polygon fill="none" stroke="white" points="165,-88 165,-178 265,-178 265,-88 165,-88"/>
<text text-anchor="start" x="192.5" y="-162.8" font-family="Helvetica,sans-Serif" font-size="14.00" fill="#ff4a11">layer 1 </text>
<text text-anchor="start" x="173" y="-147.8" font-family="Helvetica,sans-Serif" font-size="14.00" fill="#ff4a11"> (output layer)</text>
</g>
<!-- x3 -->
<g id="node1" class="node">
<title>x3</title>
<ellipse fill="none" stroke="black" cx="39" cy="-196" rx="18" ry="18"/>
<text text-anchor="start" x="35" y="-192.3" font-family="Helvetica,sans-Serif" font-size="14.00">b</text>
</g>
<!-- a12 -->
<g id="node5" class="node">
<title>a12</title>
<ellipse fill="none" stroke="#ff4a11" cx="215" cy="-114" rx="18" ry="18"/>
<text text-anchor="start" x="198.5" y="-111.3" font-family="Helvetica,sans-Serif" font-size="14.00">h</text>
<text text-anchor="start" x="206.5" y="-111.3" font-family="Helvetica,sans-Serif" baseline-shift="sub" font-size="14.00">w</text>
<text text-anchor="start" x="215.5" y="-111.3" font-family="Helvetica,sans-Serif" font-size="14.00">(x)</text>
</g>
<!-- x3&#45;&gt;a12 -->
<g id="edge3" class="edge">
<title>x3&#45;&gt;a12</title>
<path fill="none" stroke="lightgrey" d="M55.75,-188.58C86.47,-174.1 154.53,-142.03 190.57,-125.04"/>
<polygon fill="lightgrey" stroke="lightgrey" points="191.51,-127.31 196.79,-122.11 189.42,-122.88 191.51,-127.31"/>
<text text-anchor="start" x="89" y="-175.8" font-family="Helvetica,sans-Serif" font-size="14.00">bias unit b </text>
</g>
<!-- x2 -->
<g id="node2" class="node">
<title>x2</title>
<ellipse fill="none" stroke="black" cx="39" cy="-142" rx="18" ry="18"/>
<text text-anchor="start" x="32" y="-139.3" font-family="Helvetica,sans-Serif" font-size="14.00">x</text>
<text text-anchor="start" x="39" y="-139.3" font-family="Helvetica,sans-Serif" baseline-shift="sub" font-size="14.00">1</text>
</g>
<!-- x2&#45;&gt;a12 -->
<g id="edge2" class="edge">
<title>x2&#45;&gt;a12</title>
<path fill="none" stroke="lightgrey" d="M57,-139.26C87.8,-134.31 152.94,-123.83 188.88,-118.04"/>
<polygon fill="lightgrey" stroke="lightgrey" points="188.91,-120.52 195.44,-116.99 188.14,-115.68 188.91,-120.52"/>
</g>
<!-- x1 -->
<g id="node3" class="node">
<title>x1</title>
<ellipse fill="none" stroke="black" cx="39" cy="-88" rx="18" ry="18"/>
<text text-anchor="start" x="32" y="-85.3" font-family="Helvetica,sans-Serif" font-size="14.00">x</text>
<text text-anchor="start" x="39" y="-85.3" font-family="Helvetica,sans-Serif" baseline-shift="sub" font-size="14.00">2</text>
</g>
<!-- x1&#45;&gt;a12 -->
<g id="edge1" class="edge">
<title>x1&#45;&gt;a12</title>
<path fill="none" stroke="lightgrey" d="M57,-90.54C87.8,-95.14 152.94,-104.88 188.88,-110.25"/>
<polygon fill="lightgrey" stroke="lightgrey" points="188.15,-112.61 195.43,-111.23 188.87,-107.77 188.15,-112.61"/>
</g>
<!-- x0 -->
<g id="node4" class="node">
<title>x0</title>
<ellipse fill="none" stroke="black" cx="39" cy="-34" rx="18" ry="18"/>
<text text-anchor="start" x="32" y="-31.3" font-family="Helvetica,sans-Serif" font-size="14.00">x</text>
<text text-anchor="start" x="39" y="-31.3" font-family="Helvetica,sans-Serif" baseline-shift="sub" font-size="14.00">3</text>
</g>
<!-- x0&#45;&gt;a12 -->
<g id="edge4" class="edge">
<title>x0&#45;&gt;a12</title>
<path fill="none" stroke="lightgrey" d="M55.75,-41.24C86.47,-55.36 154.53,-86.66 190.57,-103.23"/>
<polygon fill="lightgrey" stroke="lightgrey" points="189.4,-105.39 196.79,-106.09 191.45,-100.94 189.4,-105.39"/>
</g>
</g>
</svg>