<?xml version="1.0" encoding="UTF-8" standalone="no"?>
<!DOCTYPE svg PUBLIC "-//W3C//DTD SVG 1.1//EN"
 "http://www.w3.org/Graphics/SVG/1.1/DTD/svg11.dtd">
<!-- Generated by graphviz version 7.1.0 (20230121.1956)
 -->
<!-- Title: G Pages: 1 -->
<svg width="207pt" height="207pt"
 viewBox="0.00 0.00 207.00 207.00" xmlns="http://www.w3.org/2000/svg" xmlns:xlink="http://www.w3.org/1999/xlink">
<g id="graph0" class="graph" transform="scale(1 1) rotate(0) translate(4 203)">
<title>G</title>
<polygon fill="white" stroke="none" points="-4,4 -4,-203 203,-203 203,4 -4,4"/>
<g id="clust1" class="cluster">
<title>cluster_0</title>
<polygon fill="none" stroke="white" points="0,-8 0,-191 79,-191 79,-8 0,-8"/>
<text text-anchor="start" x="8" y="-175.8" font-family="Helvetica,sans-Serif" font-size="14.00" fill="#ff4a11">input layer</text>
</g>
<g id="clust2" class="cluster">
<title>cluster_1</title>
<polygon fill="none" stroke="white" points="99,-62 99,-152 199,-152 199,-62 99,-62"/>
<text text-anchor="start" x="126.5" y="-136.8" font-family="Helvetica,sans-Serif" font-size="14.00" fill="#ff4a11">layer 1 </text>
<text text-anchor="start" x="107" y="-121.8" font-family="Helvetica,sans-Serif" font-size="14.00" fill="#ff4a11"> (output layer)</text>
</g>
<!-- x2 -->
<g id="node1" class="node">
<title>x2</title>
<ellipse fill="none" stroke="black" cx="39" cy="-142" rx="18" ry="18"/>
<text text-anchor="start" x="32" y="-139.3" font-family="Helvetica,sans-Serif" font-size="14.00">x</text>
<text text-anchor="start" x="39" y="-139.3" font-family="Helvetica,sans-Serif" baseline-shift="sub" font-size="14.00">1</text>
</g>
<!-- a12 -->
<g id="node4" class="node">
<title>a12</title>
<ellipse fill="none" stroke="#ff4a11" cx="149" cy="-88" rx="18" ry="18"/>
<text text-anchor="start" x="132.5" y="-85.3" font-family="Helvetica,sans-Serif" font-size="14.00">h</text>
<text text-anchor="start" x="140.5" y="-85.3" font-family="Helvetica,sans-Serif" baseline-shift="sub" font-size="14.00">w</text>
<text text-anchor="start" x="149.5" y="-85.3" font-family="Helvetica,sans-Serif" font-size="14.00">(x)</text>
</g>
<!-- x2&#45;&gt;a12 -->
<g id="edge2" class="edge">
<title>x2&#45;&gt;a12</title>
<path fill="none" stroke="lightgrey" d="M55.47,-134.26C73.68,-125.16 104.07,-109.96 125.03,-99.48"/>
<polygon fill="lightgrey" stroke="lightgrey" points="126.04,-101.72 131.2,-96.4 123.84,-97.34 126.04,-101.72"/>
</g>
<!-- x1 -->
<g id="node2" class="node">
<title>x1</title>
<ellipse fill="none" stroke="black" cx="39" cy="-88" rx="18" ry="18"/>
<text text-anchor="start" x="32" y="-85.3" font-family="Helvetica,sans-Serif" font-size="14.00">x</text>
<text text-anchor="start" x="39" y="-85.3" font-family="Helvetica,sans-Serif" baseline-shift="sub" font-size="14.00">2</text>
</g>
<!-- x1&#45;&gt;a12 -->
<g id="edge1" class="edge">
<title>x1&#45;&gt;a12</title>
<path fill="none" stroke="lightgrey" d="M57.35,-88C74.91,-88 102.25,-88 122.32,-88"/>
<polygon fill="lightgrey" stroke="lightgrey" points="122.18,-90.45 129.18,-88 122.18,-85.55 122.18,-90.45"/>
</g>
<!-- x0 -->
<g id="node3" class="node">
<title>x0</title>
<ellipse fill="none" stroke="black" cx="39" cy="-34" rx="18" ry="18"/>
<text text-anchor="start" x="32" y="-31.3" font-family="Helvetica,sans-Serif" font-size="14.00">x</text>
<text text-anchor="start" x="39" y="-31.3" font-family="Helvetica,sans-Serif" baseline-shift="sub" font-size="14.00">3</text>
</g>
<!-- x0&#45;&gt;a12 -->
<g id="edge3" class="edge">
<title>x0&#45;&gt;a12</title>
<path fill="none" stroke="lightgrey" d="M55.47,-41.74C73.68,-50.84 104.07,-66.04 125.03,-76.52"/>
<polygon fill="lightgrey" stroke="lightgrey" points="123.84,-78.66 131.2,-79.6 126.04,-74.28 123.84,-78.66"/>
</g>
</g>
</svg>